<svg xmlns="http://www.w3.org/2000/svg"
    xmlns:xlink="http://www.w3.org/1999/xlink" id="Capa_1" x="0px" y="0px" viewBox="0 0 49.9 60.6" xml:space="preserve">
    <g id="_Grupo_">
        <path id="_Trazado_" fill="#F8CAC9" d="M37.1,43.6l-23.8,0c0,0-5.6,2.9-5,5.2s1.5,6.5,9.3,6.5s27.7-0.8,27.7-0.8l0.3-41.5l-4.3-7.8 l0.3,38.1L37.1,43.6z"></path>
        <path id="_Trazado_2" d="M41.5,30.6v2c-0.6-0.3-0.7-1-0.4-1.6C41.2,30.9,41.3,30.7,41.5,30.6z"></path>
        <path id="_Trazado_compuesto_" d="M29.3,58c-5,0-9.9,0-14.9,0c-2.9,0.1-5.7-1.2-7.5-3.4c-1.3-1.6-2-3.6-1.9-5.7l0-31.8 c0-2.2,0-4.4,0-6.7c-0.1-3.1,2.2-5.7,5.3-5.9c0.2,0,0.3,0,0.5,0l30.5,0c0.5,0,0.9,0.4,0.9,0.9c0,0.2,0,0.3,0,0.4v1 c0,7.7,0,15.4,0,23.1c0,0.1,0,0.2,0,0.3l0,2.9c0,0.1,0,0.2,0,0.2c0,2.9,0,5.8,0,8.7l0,1.5c-0.1,0.4-0.5,0.7-0.9,0.7l-5.8,0 c-6.9,0-13.9,0-20.8,0c-0.5,0-0.9,0-1.4,0.1c-1.3,0.2-2.5,0.9-3.3,2c-1.5,2.1-1,5.1,1.1,6.6c0.8,0.6,1.8,0.9,2.7,0.9 c0.3,0,0.5,0,0.8,0h30.2V12.9c0-0.5,0.4-0.9,0.9-0.9h1.7c0.5,0,0.9,0.4,0.9,0.9v44.1c0,0.5-0.4,0.9-0.9,0.9c-0.1,0-0.3,0-0.4,0 l-7.9,0C35.9,58,32.6,58,29.3,58z M33.3,5.8l-22.5,0C8.4,5.7,6.4,7.5,6.3,9.9c0,0.2,0,0.3,0,0.5c0,2.2,0,4.4,0,6.7l0,3.3l0,7.1 l0,21.4c-0.1,1.8,0.5,3.5,1.6,4.9c1.6,1.9,4,3,6.5,2.9c8.3,0,16.6,0,24.9,0l7.9,0V13.4h-0.9v40.8c0,0.5-0.4,0.9-0.9,0.9H14.8 c-0.3,0-0.6,0-0.9,0c-3.4,0-6-2.8-6-6.2c0-1.2,0.4-2.4,1.1-3.4c1-1.4,2.5-2.3,4.2-2.5c0.5-0.1,1-0.1,1.5-0.1c6.9,0,13.9,0,20.8,0 h5.4l0-0.9c0-2.9,0-5.8,0-8.7l0-0.2l0-3.3c0-7.7,0-15.4,0-23.1l0-0.9L33.3,5.8z"></path>
        <g id="_Grupo_2">
            <path id="_Trazado_compuesto_2" fill="#211915" d="M10.3,20.1h2.4v1.4c0.3-0.5,0.7-0.9,1.3-1.2c0.5-0.3,1.1-0.5,1.8-0.5 c1.1,0,2.1,0.5,2.9,1.3c0.8,1,1.3,2.3,1.2,3.7c0.1,1.4-0.3,2.7-1.2,3.8c-0.7,0.9-1.8,1.3-2.9,1.3c-0.5,0-1-0.1-1.4-0.3 c-0.5-0.3-1-0.6-1.4-1.1v4.9h-2.6V20.1z M12.8,24.7c-0.1,0.9,0.2,1.7,0.6,2.4c0.4,0.5,1,0.8,1.6,0.8c0.6,0,1.1-0.3,1.5-0.7 c0.5-0.7,0.7-1.5,0.6-2.3c0.1-0.8-0.2-1.6-0.6-2.3c-0.4-0.5-0.9-0.7-1.5-0.7c-0.6,0-1.2,0.3-1.6,0.7C13,23.2,12.8,24,12.8,24.7 L12.8,24.7z"></path>
            <path id="_Trazado_compuesto_3" fill="#211915" d="M30.6,29.7h-2.4v-1.4c-0.4,0.5-0.8,0.9-1.4,1.2c-0.5,0.3-1.1,0.4-1.6,0.4 c-1.1,0-2.1-0.5-2.8-1.3c-0.8-1.1-1.3-2.4-1.2-3.7c-0.1-1.3,0.3-2.7,1.2-3.7c0.7-0.8,1.8-1.3,2.9-1.3c1.1,0,2.1,0.5,2.8,1.3v-4.8 h2.6L30.6,29.7z M23.8,24.7c-0.1,0.8,0.1,1.5,0.4,2.2c0.3,0.6,1,1,1.7,1c0.6,0,1.1-0.3,1.5-0.7c0.5-0.7,0.7-1.4,0.6-2.2 c0.1-0.8-0.1-1.7-0.6-2.4c-0.4-0.5-0.9-0.7-1.5-0.7c-0.6,0-1.2,0.3-1.5,0.7C23.9,23.2,23.7,23.9,23.8,24.7z"></path>
            <path id="_Trazado_compuesto_4" fill="#211915" d="M32,20.1h1.4v-0.7c0-0.6,0.1-1.2,0.3-1.8c0.2-0.4,0.5-0.8,1-1 c0.5-0.3,1.1-0.4,1.8-0.4c0.7,0,1.4,0.1,2.1,0.3l-0.3,1.8c-0.4-0.1-0.8-0.1-1.2-0.1c-0.3,0-0.6,0.1-0.8,0.3 c-0.2,0.3-0.3,0.6-0.2,1v0.7h1.9v2h-1.9v7.6h-2.6v-7.6H32V20.1z"></path>
        </g>
        <g id="_Grupo_3">
            <path id="_Trazado_3" fill="#110033" d="M6.6,2.2c-3,2.1-5,5.5-5.3,9.1l0.1,12.9l0.8,0.1L2.2,11.4C2.5,8,4.3,4.9,7.1,2.9L6.6,2.2z "></path>
        </g>
        <g id="_Grupo_4">
            <rect id="_Trazado_4" x="8.4" y="0.6" transform="matrix(0.9029 -0.4299 0.4299 0.9029 0.5343 4.2972)" fill="#110033" width="2.8" height="0.8"></rect>
        </g>
        <g id="_Grupo_5">
            <path id="_Trazado_5" fill="#110033" d="M1.4,54.3l0.8-0.1c0.6,3.5,4.8,5.7,4.8,5.7l-0.4,0.7C6.5,60.5,2.1,58.1,1.4,54.3z"></path>
        </g>
    </g>
</svg>