<svg xmlns="http://www.w3.org/2000/svg"
    xmlns:xlink="http://www.w3.org/1999/xlink" id="Capa_1" x="0px" y="0px" viewBox="0 0 70.1 82.2" xml:space="preserve">
    <g id="_Grupo_">
        <g id="_Grupo_2">
            <g>
                <path id="_Trazado_compuesto_" fill="#F8CAC9" d="M55.4,9.4c0.1-0.1,0.1-0.2,0-0.3c0,0-0.1,0-0.1-0.1l-9.2-2.9 c-0.3-0.1-0.5-0.2-0.8-0.2l-0.3,0c-1.4-0.3-2.7,0.3-4.4,1.8L12.2,34.1C8.4,38,6.7,43.5,7.6,48.8l4.5,19.5c0.2,1.7,1.2,3.2,2.7,4 c0.3,0.1,0.7,0.3,1.1,0.4l9.1,3c0.1,0,0.2,0,0.3-0.1c0,0,0,0,0,0c0.1-0.4,0.3-1.4,0.5-2.3c0-0.1,0.1-0.2,0.2-0.2 c0.5,0.1,9.9,4.1,10.2,3.1l-4.8-15c0.1-0.4,0.4-0.8,0.7-1.1l16.8-15.6c3.7-3.9,5.4-9.3,4.5-14.7L50,14.9c0-0.1,0-0.1,0.1-0.2 L55.4,9.4z"></path>
                <path id="_Trazado_compuesto_2" fill="#F8CAC9" d="M35.8,77c-1.1,0-3.3-0.7-8.1-2.6c-0.5-0.2-1.1-0.4-1.5-0.6 c-0.2,0.8-0.3,1.5-0.4,1.8c-0.1,0.5-0.6,0.8-1,0.6c0,0-0.1,0-0.1,0l-9.1-3c-0.4-0.1-0.8-0.2-1.1-0.4c-1.6-1-2.8-2.6-3.1-4.5L7,49 c-1-5.6,0.8-11.2,4.7-15.3L40.2,7.2c1.8-1.7,3.3-2.3,5-2l0.3,0c0.3,0.1,0.7,0.2,1,0.3l9.1,2.9c0.5,0.1,0.7,0.6,0.6,1.1 c0,0.1-0.1,0.3-0.2,0.4L50.7,15l3.4,14.7c1,5.6-0.8,11.2-4.7,15.3L32.6,60.5c-0.2,0.2-0.3,0.4-0.5,0.7l4.8,15l-0.1,0.2 c-0.1,0.2-0.3,0.4-0.5,0.5C36.1,77,36,77,35.8,77z M25.9,72.4C25.9,72.4,26,72.4,25.9,72.4c0.8,0.2,1.6,0.5,2.3,0.8 c2.3,1,4.7,1.8,7.1,2.5l-4.6-14.5l0.1-0.2c0.2-0.5,0.5-1,0.9-1.4L48.5,44c3.6-3.7,5.2-8.9,4.3-14L49.4,15c-0.1-0.3,0-0.6,0.2-0.8 l4.8-4.7l-8.5-2.7c-0.2-0.1-0.5-0.2-0.8-0.2l-0.3,0c-1.2-0.2-2.3,0.3-3.8,1.7L12.6,34.6c-3.6,3.7-5.2,8.9-4.3,14l4.5,19.5 c0.2,1.5,1.1,2.8,2.3,3.6c0.3,0.1,0.6,0.2,0.9,0.3l8.7,2.8c0.1-0.5,0.3-1.1,0.4-1.8C25.1,72.7,25.5,72.4,25.9,72.4L25.9,72.4z"></path>
            </g>
        </g>
        <g id="_Grupo_3">
            <path id="_Trazado_" fill="#FFFFFF" d="M50.5,10.9L22,37.4c-3.7,3.8-5.4,9.2-4.5,14.5L22,71.5c1.1,4.7,4.8,5.9,8.4,2.6l2.4-2.2 c0.3-0.4,0.9-0.5,1.3-0.2c0.2,0.2,0.4,0.4,0.4,0.7l0.7,3c0.3,1.4,1.7,1,2.3-0.6l3.9-10.4c0.1-0.4,0.4-0.8,0.7-1.1l16.9-15.7 c3.7-3.8,5.4-9.2,4.5-14.5l-4.5-19.6C57.8,8.8,54.1,7.6,50.5,10.9z"></path>
            <path id="_Trazado_compuesto_3" fill="#110033" d="M35.9,76.9C35.9,76.9,35.9,76.9,35.9,76.9c-0.8-0.1-1.4-0.7-1.5-1.4l-0.7-3 c-0.1-0.3-0.2-0.3-0.2-0.4c0,0-0.2,0-0.4,0.2l-2.4,2.2c-1.9,1.8-3.9,2.4-5.7,1.9c-1.8-0.6-3.1-2.3-3.7-4.8L16.9,52 c-0.9-5.5,0.8-11.1,4.7-15.1l28.5-26.5C52,8.7,54,8,55.8,8.6c1.8,0.6,3.1,2.3,3.7,4.8L64,33c0.9,5.5-0.8,11.1-4.7,15.1L42.5,63.7 c-0.2,0.2-0.4,0.5-0.5,0.9L38,75C37.8,76,37,76.8,35.9,76.9z M33.5,70.8c0.1,0,0.3,0,0.4,0.1c0.6,0.2,1,0.7,1.1,1.3l0.7,3 c0.1,0.2,0.1,0.4,0.2,0.4c0.2,0,0.6-0.3,0.9-1l3.9-10.4c0.2-0.5,0.5-1,0.9-1.4l16.9-15.7c3.5-3.7,5.1-8.8,4.3-13.8l-4.5-19.6 c-0.5-2-1.5-3.4-2.8-3.8c-1.3-0.4-2.9,0.1-4.5,1.6L22.4,37.9c-3.5,3.7-5.1,8.8-4.3,13.8l4.5,19.6c0.5,2,1.5,3.4,2.8,3.8 c1.3,0.4,2.9-0.1,4.5-1.6l2.4-2.2C32.6,71,33.1,70.8,33.5,70.8z"></path>
        </g>
        <g id="_Grupo_4">
            <rect id="_Trazado_2" x="11.9" y="45.2" transform="matrix(0.2956 -0.9553 0.9553 0.2956 -39.2238 47.4749)" fill="#110033" width="1.3" height="10.3"></rect>
        </g>
        <g id="_Grupo_5">
            <polygon id="_Trazado_3" fill="#110033" points="21.9,37.6 12.1,34.5 12.5,33.2 22.3,36.3 "></polygon>
        </g>
        <g id="_Grupo_6">
            <rect id="_Trazado_4" x="44.7" y="4.4" transform="matrix(0.2955 -0.9553 0.9553 0.2955 22.8426 50.0931)" fill="#110033" width="1.3" height="10.3"></rect>
        </g>
        <g id="_Grupo_7">
            <polygon id="_Trazado_5" fill="#110033" points="21.7,71.5 11.8,68.4 12.2,67.1 22,70.2 "></polygon>
        </g>
        <g id="_Grupo_8">
            <path id="_Trazado_6" fill="#110033" d="M1.9,46.9c-0.4-5.9,2-11.7,6.3-15.8l15.4-14.1l0.9,1L9.1,32.1c-4,3.8-6.1,9.2-5.9,14.7 L1.9,46.9z"></path>
        </g>
        <g id="_Grupo_9">
            <rect id="_Trazado_7" x="2.8" y="49.8" transform="matrix(0.9748 -0.223 0.223 0.9748 -11.5253 2.0883)" fill="#110033" width="1.3" height="4.5"></rect>
        </g>
        <g id="_Grupo_10">
            <path id="_Trazado_8" fill="#110033" d="M66.3,44.1l-1.1-0.8c3.2-4.7,1-11.9,1-12l1.3-0.4C67.6,31.2,69.8,38.9,66.3,44.1z"></path>
        </g>
        <path id="_Trazado_9" fill="#211915" d="M28.3,42.6l4.9,15.8c0,0,1.9,3.5,4.6,0c3.1-3.9,10.8-18.2,10.8-18.2s1.3-3.6-3.2-3.6 c-5.5,0-14.1,0.4-14.1,0.4C28.9,37.7,27.6,40.2,28.3,42.6z"></path>
        <g id="_Grupo_11">
            <path id="_Trazado_10" fill="#F8CAC9" d="M31.4,39.7l4.9,15.8c0,0,1.9,3.5,4.6,0c3.1-3.9,10.8-18.2,10.8-18.2s1.3-3.6-3.2-3.6 c-5.5,0-14.1,0.4-14.1,0.4C32,34.8,30.7,37.4,31.4,39.7z"></path>
            <path id="_Trazado_compuesto_4" fill="#211915" d="M38.5,57.7c-0.1,0-0.1,0-0.2,0c-1.1-0.2-2.1-0.9-2.6-1.9l-4.9-15.9 c-0.9-2.7,0.5-5.6,3.2-6.5c0,0,0.1,0,0.1,0l0.2,0c0.1,0,8.8-0.4,14.2-0.4c1.3-0.1,2.7,0.4,3.6,1.4c0.6,0.9,0.7,2.1,0.3,3.1 C52,38.2,44.5,52,41.4,55.9C40.8,56.9,39.7,57.6,38.5,57.7z M32.1,39.5l4.9,15.8c0.3,0.5,0.9,0.9,1.5,1.1c0.7,0.1,1.5-0.7,2-1.3 c3-3.8,10.6-17.8,10.8-18.1l0,0c0.2-0.6,0.1-1.3-0.2-1.8c-0.6-0.7-1.5-1-2.5-0.8c-5.1,0-13,0.4-14,0.4 C32.5,35.4,31.4,37.5,32.1,39.5C32.1,39.5,32.1,39.5,32.1,39.5z"></path>
        </g>
    </g>
</svg>