<svg xmlns="http://www.w3.org/2000/svg"
    xmlns:xlink="http://www.w3.org/1999/xlink" id="Capa_1" x="0px" y="0px" viewBox="0 0 70.1 82.2" xml:space="preserve">
    <g id="_Grupo_">
        <g id="_Grupo_2">
            <path id="_Trazado_" fill="#F8CAC9" d="M45.8,23.3c-0.1,0-0.2,0-0.3,0l-0.2,0.1l-2.6,0.8l10-18.8c0-0.1,0-0.2-0.1-0.2l-5.8-3.6 l0,0c-0.1-0.1-0.4,0-0.5,0.3L20.1,43.6c-0.2,0.3-0.2,0.4-0.2,0.5l0.1,0.1l6.3,3.7c0,0,0,0.1-0.1,0.3l-9,21.1 c-0.1,0.3-0.1,0.5,0,0.5h0c0,0,0,0,0,0l5.9,3.6c0.1,0,0.2,0,0.2,0c0,0,0,0,0,0l19.9-38.1l8.3-8.2c0.1-0.1,0.1-0.2,0-0.2 c0,0,0,0,0,0L45.8,23.3L45.8,23.3z"></path>
            <path id="_Trazado_compuesto_" fill="#F8CAC9" d="M23.2,74.2c-0.2,0-0.3,0-0.4-0.1l-5.9-3.6c-0.5-0.3-0.6-0.9-0.4-1.4l8.9-20.8 l-6-3.5l-0.2-0.3c-0.2-0.4-0.1-0.8,0.1-1.1L45.7,1.7c0.3-0.5,0.9-0.8,1.4-0.5L53,4.7c0.4,0.2,0.5,0.7,0.3,1.1l-9.2,17.3l1.1-0.4 c0.2-0.1,0.3-0.1,0.5-0.1l0.2-0.1l6,3.7c0.4,0.2,0.5,0.8,0.3,1.2c0,0.1-0.1,0.1-0.1,0.2l-8.2,8.2L23.8,74l-0.4,0.1 C23.4,74.2,23.3,74.2,23.2,74.2z M17.9,69.5l5.1,3.1l19.8-37.8l7.8-7.8l-4.9-3l-0.1,0.1l-4.2,1.4L51.9,5.6l-5-3.1L20.7,43.9 l6.4,3.7l-0.2,0.8L17.9,69.5z"></path>
        </g>
        <g id="_Grupo_3">
            <path id="_Trazado_2" fill="#FFFFFF" d="M52.3,5.7L26.1,47.3c-0.3,0.4-0.1,0.9,0.3,0.7l9.4-5.4c0.3-0.2,0.5,0.1,0.3,0.5L23.2,73 c-0.3,0.6,0.3,0.8,0.6,0.2l28-45.6c0.3-0.4,0.1-0.9-0.3-0.6L42,32.5c-0.3,0.2-0.5-0.1-0.3-0.5L52.9,6C53.2,5.4,52.6,5.2,52.3,5.7z "></path>
            <path id="_Trazado_compuesto_2" fill="#110033" d="M23.4,74.3c-0.1,0-0.3,0-0.4-0.1c-0.5-0.3-0.7-0.9-0.4-1.4l12.4-29l-8.3,4.8 c-0.4,0.2-0.9,0.2-1.2-0.1c-0.4-0.4-0.4-1.1,0-1.5L51.7,5.3c0.3-0.5,0.9-0.8,1.4-0.5c0.5,0.3,0.7,0.9,0.4,1.4L42.7,31.3l8.5-4.9 c0.4-0.2,0.8-0.2,1.2,0.1c0.4,0.4,0.4,1,0,1.5l-28,45.6C24.2,74,23.8,74.3,23.4,74.3z M35.9,41.8c0.2,0,0.4,0.1,0.6,0.2 c0.3,0.3,0.4,0.9,0.2,1.3L25.8,68.7l24.8-40.4l-8.2,4.8c-0.3,0.2-0.8,0.2-1.1-0.1c-0.3-0.3-0.4-0.9-0.2-1.3L50.4,10L27.3,46.6 l8-4.6C35.5,41.9,35.7,41.8,35.9,41.8z"></path>
        </g>
        <g id="_Grupo_4">
            <rect id="_Trazado_3" x="27.8" y="33.9" transform="matrix(0.5139 -0.8578 0.8578 0.5139 -18.2138 42.5716)" fill="#110033" width="1.4" height="7"></rect>
        </g>
        <g id="_Grupo_5">
            <rect id="_Trazado_4" x="45.9" y="5.3" transform="matrix(0.514 -0.8578 0.8578 0.514 15.114 44.2404)" fill="#110033" width="1.4" height="7"></rect>
        </g>
        <g id="_Grupo_6">
            <rect id="_Trazado_5" x="24.1" y="57.1" transform="matrix(0.5139 -0.8579 0.8579 0.5139 -39.9093 50.7153)" fill="#110033" width="1.4" height="7"></rect>
        </g>
        <g id="_Grupo_7">
            <g id="_Grupo_8">
                <rect id="_Trazado_6" x="26" y="9.3" transform="matrix(0.5373 -0.8434 0.8434 0.5373 7.87 34.3157)" fill="#110033" width="18.4" height="1.4"></rect>
            </g>
            <g id="_Grupo_9">
                <rect id="_Trazado_7" x="24.5" y="21.6" transform="matrix(0.5363 -0.844 0.844 0.5363 -6.0996 33.4382)" fill="#110033" width="5.8" height="1.4"></rect>
            </g>
        </g>
        <g id="_Grupo_10">
            <g id="_Grupo_11">
                <rect id="_Trazado_8" x="24.5" y="65.4" transform="matrix(0.5375 -0.8432 0.8432 0.5375 -40.1267 58.948)" fill="#110033" width="18.4" height="1.4"></rect>
            </g>
            <g id="_Grupo_12">
                <rect id="_Trazado_9" x="23" y="77.7" transform="matrix(0.5369 -0.8437 0.8437 0.5369 -54.1208 58.0911)" fill="#110033" width="5.8" height="1.4"></rect>
            </g>
        </g>
    </g>
</svg>