<svg xmlns="http://www.w3.org/2000/svg" xmlns:xlink="http://www.w3.org/1999/xlink" id="Layer_2" width="705.81" height="190.74" viewBox="0 0 705.81 190.74"><defs><clipPath id="clippath"><rect x="556.15" y="1.6" width="10.21" height="16.72" fill="none"></rect></clipPath></defs><g id="Layer_1-2"><path d="M163.21,146.48c5.07,7.6,8.03,14.47,8.9,20.6.87,6.13.57,11.13-.9,15-.93,2.53-2.13,4.47-3.6,5.8-1.47,1.33-2.97,2.03-4.5,2.1-1.53.07-2.97-.5-4.3-1.7-1.33-1.2-2.4-3.07-3.2-5.6-1.2-3.73-1.5-8.4-.9-14,.6-5.6,1.57-11.33,2.9-17.2,1.33-5.87,2.83-11.5,4.5-16.9,1.67-5.4,3.1-9.7,4.3-12.9,2-5.2,4.33-10.87,7-17,2.67-6.13,5.67-12.2,9-18.2,3.33-6,7-11.6,11-16.8,4-5.2,8.33-9.53,13-13,2.53-1.87,4.9-3.1,7.1-3.7,2.2-.6,4.03-.6,5.5,0,1.47.6,2.4,1.87,2.8,3.8.4,1.93,0,4.57-1.2,7.9-1.07,3.07-2.83,6.63-5.3,10.7-2.47,4.07-5.83,8.57-10.1,13.5-4.27,4.93-9.47,10.27-15.6,16-6.13,5.73-13.4,11.8-21.8,18.2-1.2,3.33-2.67,7.6-4.4,12.8-1.73,5.2-3.27,10.63-4.6,16.3-1.33,5.67-2.27,11.2-2.8,16.6-.53,5.4-.27,9.97.8,13.7,1.47,4.8,3.67,7.07,6.6,6.8,2.93-.27,5.27-2.8,7-7.6,1.47-3.87,1.73-8.83.8-14.9-.93-6.07-3.93-12.83-9-20.3,0-.53.13-.8.4-.8,4.93-.4,9.57-1.17,13.9-2.3,4.33-1.13,8.6-2.63,12.8-4.5,4.2-1.87,8.43-4.13,12.7-6.8,4.27-2.67,8.93-5.8,14-9.4.4-.27.7-.27.9,0,.2.27.03.53-.5.8-9.07,6.67-17.8,12-26.2,16-8.4,4-17.4,6.33-27,7ZM168.41,121.28c16.13-12.27,28.23-23.3,36.3-33.1,8.07-9.8,13.1-17.7,15.1-23.7,1.2-3.2,1.6-5.7,1.2-7.5-.4-1.8-1.23-2.93-2.5-3.4-1.27-.47-2.9-.37-4.9.3-2,.67-4.07,1.8-6.2,3.4-4.53,3.33-8.73,7.6-12.6,12.8-3.87,5.2-7.47,10.73-10.8,16.6-3.33,5.87-6.3,11.83-8.9,17.9-2.6,6.07-4.83,11.63-6.7,16.7Z" fill="#fbcbc5"></path><path d="M263.81,122.68c.27-.27.57-.3.9-.1.33.2.17.5-.5.9-2.67,2.13-5.7,4.1-9.1,5.9-3.4,1.8-6.93,3.3-10.6,4.5-3.67,1.2-7.27,2-10.8,2.4-3.53.4-6.77.2-9.7-.6-1.87,2.27-3.87,3.67-6,4.2-2.13.53-3.87.07-5.2-1.4-1.2-1.47-1.67-3.33-1.4-5.6.27-2.27.73-4.33,1.4-6.2-.4-1.87-.5-3.6-.3-5.2.2-1.6.9-3.13,2.1-4.6,1.73-2,3.97-2.83,6.7-2.5,2.73.33,4.77,2.03,6.1,5.1.93,2.27,1.07,4.9.4,7.9-.67,3-1.8,5.57-3.4,7.7,2.93.67,6.13.8,9.6.4,3.47-.4,6.97-1.2,10.5-2.4,3.53-1.2,6.97-2.7,10.3-4.5,3.33-1.8,6.33-3.77,9-5.9ZM223.21,135.48c-2.13-.67-3.97-1.53-5.5-2.6-1.53-1.07-2.83-2.53-3.9-4.4-.67,1.47-1.1,3.13-1.3,5-.2,1.87.17,3.4,1.1,4.6,1.07,1.33,2.57,1.7,4.5,1.1,1.93-.6,3.63-1.83,5.1-3.7ZM216.01,122.48c.27-.27.6-.27,1,0,.4.27.47.53.2.8-.67.53-1.23,1.17-1.7,1.9-.47.73-.9,1.5-1.3,2.3.67,1.87,1.93,3.4,3.8,4.6,1.87,1.2,3.8,2.13,5.8,2.8,1.47-2,2.53-4.43,3.2-7.3.67-2.87.6-5.43-.2-7.7-1.07-2.67-2.77-4.23-5.1-4.7-2.33-.47-4.3.03-5.9,1.5-1.47,1.33-2.37,2.8-2.7,4.4-.33,1.6-.23,3.13.3,4.6.4-.8.87-1.47,1.4-2,.53-.53.93-.93,1.2-1.2Z" fill="#fbcbc5"></path><path d="M262.61,120.48c-.67-2.27-.13-4.27,1.6-6,.93-1.07,2.07-1.67,3.4-1.8,1.33-.13,2.3.17,2.9.9.6.73.57,1.87-.1,3.4-.67,1.53-2.4,3.43-5.2,5.7,1.6,1.47,2.77,2.4,3.5,2.8.73.4.77,1.47.1,3.2-.4,1.07-.93,2.43-1.6,4.1-.67,1.67-1.1,3.3-1.3,4.9-.2,1.6-.13,3.07.2,4.4.33,1.33,1.3,2.27,2.9,2.8,2.27.67,5.37.1,9.3-1.7,3.93-1.8,8-4.03,12.2-6.7,4.2-2.67,8.1-5.33,11.7-8,3.6-2.67,6.2-4.6,7.8-5.8.27-.27.56-.3.9-.1.33.2.16.5-.5.9-1.6,1.2-4.23,3.17-7.9,5.9-3.67,2.73-7.6,5.43-11.8,8.1-4.2,2.67-8.33,4.9-12.4,6.7-4.07,1.8-7.3,2.3-9.7,1.5-1.87-.53-3.07-1.5-3.6-2.9-.53-1.4-.73-2.93-.6-4.6.13-1.67.5-3.4,1.1-5.2.6-1.8,1.1-3.3,1.5-4.5.27-.67.4-1.2.4-1.6s-.2-.87-.6-1.4c-1.07-.93-1.97-1.7-2.7-2.3-.73-.6-1.23-1.5-1.5-2.7ZM264.41,122.08c2.67-2.13,4.33-3.87,5-5.2.67-1.33.8-2.27.4-2.8-.4-.53-1.13-.67-2.2-.4-1.07.27-2,.87-2.8,1.8-.67.93-1.1,2.03-1.3,3.3-.2,1.27.1,2.37.9,3.3Z" fill="#fbcbc5"></path><path d="M310.01,122.68c.13-.27.5-.37,1.1-.3.6.07.83.23.7.5-1.07,2.27-2.07,4.53-3,6.8-.93,2.27-1.8,4.53-2.6,6.8,2.53-3.47,5.43-7.03,8.7-10.7,3.27-3.67,6.23-6.57,8.9-8.7.53-.53,1.2-1.03,2-1.5.8-.47,1.57-.77,2.3-.9.73-.13,1.37,0,1.9.4.53.4.87,1.27,1,2.6.13,1.47-.23,3.8-1.1,7-.87,3.2-1.9,6.4-3.1,9.6,5.33-6,9.27-10.03,11.8-12.1,2.53-2.07,4.53-2.77,6-2.1,1.33.67,1.87,2.2,1.6,4.6-.27,2.4-.7,4.97-1.3,7.7-.6,2.73-.9,5.23-.9,7.5s1,3.53,3,3.8c1.87.27,4.47-.43,7.8-2.1,3.33-1.67,6.77-3.7,10.3-6.1,3.53-2.4,6.93-4.83,10.2-7.3,3.27-2.47,5.7-4.3,7.3-5.5.27-.27.57-.3.9-.1.33.2.17.5-.5.9-1.73,1.33-4.2,3.23-7.4,5.7-3.2,2.47-6.6,4.87-10.2,7.2-3.6,2.33-7.1,4.33-10.5,6-3.4,1.67-6.1,2.37-8.1,2.1-2.27-.4-3.53-1.77-3.8-4.1-.27-2.33-.2-4.87.2-7.6.4-2.73.8-5.3,1.2-7.7.4-2.4.27-3.8-.4-4.2-.93-.67-2.83.17-5.7,2.5-2.87,2.33-7.1,6.9-12.7,13.7-.4.4-.8.57-1.2.5-.4-.07-.47-.43-.2-1.1,2-5.07,3.37-9.1,4.1-12.1.73-3,1.23-5.23,1.5-6.7,0-.93-.17-1.53-.5-1.8-.33-.27-.8-.33-1.4-.2-.6.13-1.23.4-1.9.8-.67.4-1.2.8-1.6,1.2-1.47,1.07-3.07,2.47-4.8,4.2-1.73,1.73-3.43,3.6-5.1,5.6-1.67,2-3.3,4-4.9,6-1.6,2-3,3.87-4.2,5.6-.27.27-.6.4-1,.4s-.53-.27-.4-.8c.67-2.8,1.53-5.63,2.6-8.5,1.07-2.87,2.2-5.37,3.4-7.5Z" fill="#fbcbc5"></path><path d="M385.81,135.28c-2.53,2.53-4.6,3.73-6.2,3.6-.8-.13-1.43-.63-1.9-1.5-.47-.87-.7-1.83-.7-2.9-.27-2.53.43-5.2,2.1-8,1.67-2.8,3.9-4.73,6.7-5.8,1.47-.53,3.03-.7,4.7-.5,1.67.2,3.3.9,4.9,2.1l2.6-4c.27-.27.67-.33,1.2-.2.53.13.67.33.4.6-.67,1.07-1.5,2.57-2.5,4.5-1,1.93-1.93,4-2.8,6.2-.87,2.2-1.6,4.4-2.2,6.6-.6,2.2-.77,4.1-.5,5.7.27,1.87,1,2.97,2.2,3.3,1.2.33,2.6.3,4.2-.1,2.4-.53,5.27-1.7,8.6-3.5,3.33-1.8,6.7-3.83,10.1-6.1,3.4-2.27,6.67-4.53,9.8-6.8,3.13-2.27,5.77-4.2,7.9-5.8.27-.27.53-.27.8,0,.27.27.13.53-.4.8-2.27,1.6-4.93,3.57-8,5.9-3.07,2.33-6.3,4.6-9.7,6.8-3.4,2.2-6.73,4.17-10,5.9-3.27,1.73-6.17,2.93-8.7,3.6-2,.53-3.67.57-5,.1-1.33-.47-2.27-1.7-2.8-3.7-.53-1.87-.4-4.37.4-7.5.8-3.13,1.73-6.03,2.8-8.7-1.07,1.33-2.4,3-4,5s-2.93,3.47-4,4.4ZM394.81,123.08c-2.67-2-5.33-2.53-8-1.6-1.87.67-3.53,1.93-5,3.8-1.47,1.87-2.47,3.93-3,6.2-.4,1.33-.6,2.7-.6,4.1s.53,2.23,1.6,2.5c1.47.27,3.47-1,6-3.8,1.6-1.87,3.23-3.8,4.9-5.8,1.67-2,3.03-3.8,4.1-5.4Z" fill="#fbcbc5"></path><path d="M443.8,123.28c0,.4-.23.67-.7.8-.47.13-.63-.13-.5-.8.13-1.6-.53-2.3-2-2.1-1.47.2-2.73.63-3.8,1.3-1.47.93-2.8,2.2-4,3.8-1.2,1.6-2.1,3.3-2.7,5.1-.6,1.8-.9,3.57-.9,5.3s.47,3.13,1.4,4.2c1.2,1.33,2.87,2.07,5,2.2,2.13.13,4.4-.07,6.8-.6,2.4-.53,4.77-1.27,7.1-2.2,2.33-.93,4.37-1.8,6.1-2.6,2-.93,4.07-2,6.2-3.2,2.13-1.2,4.23-2.47,6.3-3.8,2.07-1.33,4.07-2.7,6-4.1,1.93-1.4,3.63-2.7,5.1-3.9.27-.27.57-.3.9-.1.33.2.17.5-.5.9-3.87,2.93-7.77,5.7-11.7,8.3-3.93,2.6-7.97,4.83-12.1,6.7-2,.93-4.2,1.87-6.6,2.8-2.4.93-4.8,1.67-7.2,2.2-2.4.53-4.67.7-6.8.5-2.13-.2-3.87-.97-5.2-2.3-1.87-1.73-2.63-4.17-2.3-7.3.33-3.13,1.43-5.97,3.3-8.5,1.07-1.33,2.37-2.57,3.9-3.7,1.53-1.13,3.23-1.7,5.1-1.7,2,0,3.27.93,3.8,2.8Z" fill="#fbcbc5"></path><path d="M479.2,122.68c.27-.4.7-.53,1.3-.4.6.13.77.4.5.8-1.47,2.27-2.73,4.9-3.8,7.9-1.07,3-1.67,5.17-1.8,6.5-.53,2.67-.3,4.7.7,6.1s2.97,1.77,5.9,1.1c2.53-.53,5.43-1.63,8.7-3.3,3.27-1.67,6.6-3.6,10-5.8,3.4-2.2,6.67-4.47,9.8-6.8,3.13-2.33,5.83-4.37,8.1-6.1.27-.27.57-.3.9-.1.33.2.17.5-.5.9-2.13,1.6-4.83,3.6-8.1,6-3.27,2.4-6.63,4.7-10.1,6.9-3.47,2.2-6.87,4.17-10.2,5.9-3.33,1.73-6.2,2.8-8.6,3.2-6.4,1.07-9.07-1.67-8-8.2.27-1.87.73-4,1.4-6.4.67-2.4,1.93-5.13,3.8-8.2ZM485.2,110.28c.13-.27.43-.3.9-.1.47.2.63.43.5.7-.27.93-.73,1.73-1.4,2.4-.27.27-.5.33-.7.2-.2-.13-.3-.33-.3-.6s.1-.7.3-1.3c.2-.6.43-1.03.7-1.3Z" fill="#fbcbc5"></path><path d="M566.4,122.68c.27-.27.57-.3.9-.1.33.2.17.5-.5.9-2.67,2.13-5.7,4.1-9.1,5.9-3.4,1.8-6.93,3.3-10.6,4.5-3.67,1.2-7.27,2-10.8,2.4-3.53.4-6.77.2-9.7-.6-1.87,2.27-3.87,3.67-6,4.2-2.13.53-3.87.07-5.2-1.4-1.2-1.47-1.67-3.33-1.4-5.6.27-2.27.73-4.33,1.4-6.2-.4-1.87-.5-3.6-.3-5.2s.9-3.13,2.1-4.6c1.73-2,3.96-2.83,6.7-2.5,2.73.33,4.77,2.03,6.1,5.1.93,2.27,1.07,4.9.4,7.9-.67,3-1.8,5.57-3.4,7.7,2.93.67,6.13.8,9.6.4,3.47-.4,6.97-1.2,10.5-2.4,3.53-1.2,6.97-2.7,10.3-4.5,3.33-1.8,6.33-3.77,9-5.9ZM525.8,135.48c-2.13-.67-3.97-1.53-5.5-2.6-1.53-1.07-2.83-2.53-3.9-4.4-.67,1.47-1.1,3.13-1.3,5-.2,1.87.17,3.4,1.1,4.6,1.07,1.33,2.57,1.7,4.5,1.1,1.93-.6,3.63-1.83,5.1-3.7ZM518.6,122.48c.27-.27.6-.27,1,0,.4.27.47.53.2.8-.67.53-1.23,1.17-1.7,1.9-.47.73-.9,1.5-1.3,2.3.67,1.87,1.93,3.4,3.8,4.6,1.87,1.2,3.8,2.13,5.8,2.8,1.47-2,2.53-4.43,3.2-7.3.67-2.87.6-5.43-.2-7.7-1.07-2.67-2.77-4.23-5.1-4.7-2.33-.47-4.3.03-5.9,1.5-1.47,1.33-2.37,2.8-2.7,4.4-.33,1.6-.23,3.13.3,4.6.4-.8.87-1.47,1.4-2s.93-.93,1.2-1.2Z" fill="#fbcbc5"></path><path d="M566.4,122.68c.13-.27.5-.37,1.1-.3.6.07.83.23.7.5-1.07,2.27-2.07,4.53-3,6.8-.93,2.27-1.8,4.53-2.6,6.8,2.4-3.2,5.2-6.4,8.4-9.6,3.2-3.2,5.93-5.67,8.2-7.4,1.07-.8,2.37-1.43,3.9-1.9,1.53-.47,2.57.23,3.1,2.1.4,1.47.27,3.47-.4,6-.67,2.53-1.27,5.07-1.8,7.6-.54,2.53-.8,4.83-.8,6.9s.87,3.3,2.6,3.7c1.73.4,4.37-.27,7.9-2,3.53-1.73,7.17-3.87,10.9-6.4,3.73-2.53,7.2-5.03,10.4-7.5,3.2-2.47,5.46-4.23,6.8-5.3.27-.27.57-.3.9-.1.33.2.17.5-.5.9-1.47,1.07-3.83,2.87-7.1,5.4-3.27,2.53-6.8,5.07-10.6,7.6-3.8,2.53-7.47,4.67-11,6.4-3.54,1.73-6.23,2.33-8.1,1.8-2-.53-3.13-1.87-3.4-4-.27-2.13-.17-4.53.3-7.2.47-2.67,1.07-5.27,1.8-7.8.73-2.53,1.03-4.53.9-6-.13-1.47-.9-1.9-2.3-1.3-1.4.6-2.43,1.23-3.1,1.9-2.67,1.87-5.67,4.57-9,8.1-3.33,3.53-6.2,7.03-8.6,10.5-.27.27-.63.43-1.1.5-.47.07-.63-.17-.5-.7.67-2.8,1.53-5.63,2.6-8.5,1.07-2.87,2.2-5.37,3.4-7.5Z" fill="#fbcbc5"></path><path d="M630,119.48c.93.27,1.47.8,1.6,1.6.13.8-.47,1.53-1.8,2.2-.8.27-1.77.5-2.9.7-1.13.2-2.5.17-4.1-.1-.8,1.07-1.53,2.3-2.2,3.7-.67,1.4-1.2,2.87-1.6,4.4-.4,1.53-.53,3.03-.4,4.5.13,1.47.6,2.67,1.4,3.6.93,1.2,2.23,1.93,3.9,2.2,1.67.27,3.43.3,5.3.1,1.87-.2,3.7-.57,5.5-1.1,1.8-.53,3.37-1.07,4.7-1.6,5.07-2.13,10.1-4.83,15.1-8.1,5-3.27,9.1-6.23,12.3-8.9.27-.27.57-.3.9-.1.33.2.17.5-.5.9-1.6,1.2-3.43,2.57-5.5,4.1-2.07,1.53-4.3,3.07-6.7,4.6-2.4,1.53-4.9,3-7.5,4.4s-5.17,2.63-7.7,3.7c-2,.8-4.27,1.53-6.8,2.2-2.53.67-4.9.97-7.1.9-2.2-.07-4.13-.63-5.8-1.7-1.67-1.07-2.7-2.8-3.1-5.2s-.07-5,1-7.8c1.07-2.8,2.4-4.93,4-6.4,1.07-.93,2.3-1.7,3.7-2.3,1.4-.6,2.83-.77,4.3-.5ZM623.6,123.08c2.53.4,4.47.27,5.8-.4,1.07-.53,1.57-1.1,1.5-1.7-.07-.6-.63-.9-1.7-.9-.93,0-1.93.23-3,.7-1.07.47-1.93,1.23-2.6,2.3Z" fill="#fbcbc5"></path><path d="M668.8,141.68c6.4-2.13,12.53-4.73,18.4-7.8,5.87-3.07,11.47-6.8,16.8-11.2.27-.27.57-.3.9-.1.33.2.17.5-.5.9-6,4.67-11.83,8.47-17.5,11.4-5.67,2.93-11.7,5.53-18.1,7.8-.27,2.27-.73,4.2-1.4,5.8-.67,1.6-1.87,2.93-3.6,4-.8.53-1.67.87-2.6,1-.93.13-1.73.07-2.4-.2-.67-.27-1.17-.73-1.5-1.4-.33-.67-.37-1.53-.1-2.6.67-2,2.13-3.53,4.4-4.6,2.27-1.07,4.27-1.93,6-2.6,0-1.6-.17-3.37-.5-5.3-.33-1.93-.6-3.87-.8-5.8-.2-1.93-.27-3.83-.2-5.7.07-1.87.57-3.6,1.5-5.2.67-1.2,1.57-2.13,2.7-2.8,1.13-.67,2.27-1,3.4-1s2.07.33,2.8,1c.73.67,1.03,1.8.9,3.4,0,.4-.23.6-.7.6s-.63-.2-.5-.6c.4-1.2.33-2.1-.2-2.7-.53-.6-1.23-.9-2.1-.9s-1.8.27-2.8.8c-1,.53-1.77,1.4-2.3,2.6-.67,1.33-1.03,2.93-1.1,4.8-.07,1.87,0,3.8.2,5.8.2,2,.4,3.97.6,5.9.2,1.93.3,3.5.3,4.7ZM658,149.28c-.67,1.73-.3,2.8,1.1,3.2,1.4.4,2.83.2,4.3-.6,1.6-.93,2.7-2.23,3.3-3.9.6-1.67.9-3.3.9-4.9-1.73.53-3.57,1.27-5.5,2.2-1.93.93-3.3,2.27-4.1,4Z" fill="#fbcbc5"></path><path d="M175.11,104.58c2.6-6.07,5.57-12.03,8.9-17.9,3.33-5.86,6.93-11.4,10.8-16.6,3.86-5.2,8.06-9.47,12.6-12.8,2.13-1.6,4.2-2.73,6.2-3.4,2-.67,3.63-.77,4.9-.3,1.27.47,2.1,1.6,2.5,3.4.4,1.8,0,4.3-1.2,7.5-2,6-7.04,13.9-15.1,23.7-8.07,9.8-20.17,20.84-36.3,33.1,1.86-5.07,4.1-10.63,6.7-16.7ZM190.21,139.48c8.4-4,17.13-9.33,26.2-16,.53-.27.7-.53.5-.8-.2-.27-.5-.27-.9,0-5.07,3.6-9.73,6.74-14,9.4-4.27,2.67-8.5,4.93-12.7,6.8-4.2,1.87-8.47,3.37-12.8,4.5-4.33,1.14-8.97,1.9-13.9,2.3-.26,0-.4.27-.4.8,5.07,7.47,8.07,14.23,9,20.3.93,6.07.67,11.03-.8,14.9-1.73,4.8-4.07,7.33-7,7.6-2.93.27-5.13-2-6.6-6.8-1.07-3.73-1.33-8.3-.8-13.7.54-5.4,1.47-10.93,2.8-16.6,1.33-5.66,2.87-11.1,4.6-16.3,1.73-5.2,3.2-9.47,4.4-12.8,8.4-6.4,15.66-12.47,21.8-18.2,6.13-5.73,11.33-11.07,15.6-16,4.27-4.93,7.63-9.43,10.1-13.5,2.46-4.07,4.23-7.63,5.3-10.7,1.2-3.33,1.6-5.96,1.2-7.9-.4-1.93-1.34-3.2-2.8-3.8-1.47-.6-3.3-.6-5.5,0-2.2.6-4.57,1.83-7.1,3.7-4.67,3.47-9,7.8-13,13-4,5.2-7.67,10.8-11,16.8-3.33,6-6.33,12.07-9,18.2-2.67,6.14-5,11.8-7,17-1.2,3.2-2.64,7.5-4.3,12.9-1.67,5.4-3.17,11.03-4.5,16.9-1.33,5.87-2.3,11.6-2.9,17.2-.6,5.6-.3,10.27.9,14,.8,2.53,1.87,4.4,3.2,5.6,1.33,1.2,2.77,1.77,4.3,1.7,1.53-.07,3.03-.77,4.5-2.1,1.47-1.33,2.67-3.27,3.6-5.8,1.47-3.87,1.77-8.87.9-15-.87-6.13-3.83-13-8.9-20.6,9.6-.67,18.6-3,27-7Z" fill="none" stroke="#fbcbc5" stroke-miterlimit="10" stroke-width="1.5"></path><path d="M218.11,139.18c-1.93.6-3.43.23-4.5-1.1-.93-1.2-1.3-2.73-1.1-4.6.2-1.87.63-3.53,1.3-5,1.07,1.87,2.37,3.33,3.9,4.4,1.53,1.07,3.37,1.93,5.5,2.6-1.47,1.87-3.17,3.1-5.1,3.7ZM214.81,123.68c-.53.54-1,1.2-1.4,2-.54-1.46-.64-3-.3-4.6.33-1.6,1.23-3.06,2.7-4.4,1.6-1.46,3.57-1.96,5.9-1.5,2.33.47,4.03,2.04,5.1,4.7.8,2.27.87,4.83.2,7.7-.67,2.87-1.73,5.3-3.2,7.3-2-.66-3.93-1.6-5.8-2.8-1.87-1.2-3.13-2.73-3.8-4.6.4-.8.83-1.57,1.3-2.3.47-.73,1.03-1.37,1.7-1.9.27-.26.2-.53-.2-.8-.4-.27-.73-.27-1,0-.27.27-.67.67-1.2,1.2ZM254.81,128.58c-3.33,1.8-6.77,3.3-10.3,4.5-3.53,1.2-7.03,2-10.5,2.4-3.47.4-6.67.27-9.6-.4,1.6-2.13,2.73-4.7,3.4-7.7.67-3,.53-5.63-.4-7.9-1.34-3.07-3.37-4.77-6.1-5.1-2.73-.33-4.97.5-6.7,2.5-1.2,1.47-1.9,3-2.1,4.6-.2,1.6-.1,3.33.3,5.2-.67,1.87-1.13,3.93-1.4,6.2-.27,2.27.2,4.14,1.4,5.6,1.33,1.47,3.07,1.93,5.2,1.4,2.13-.53,4.13-1.93,6-4.2,2.93.8,6.17,1,9.7.6,3.53-.4,7.13-1.2,10.8-2.4,3.67-1.2,7.2-2.7,10.6-4.5,3.4-1.8,6.43-3.77,9.1-5.9.67-.4.83-.7.5-.9-.33-.2-.63-.17-.9.1-2.67,2.13-5.67,4.1-9,5.9Z" fill="none" stroke="#fbcbc5" stroke-miterlimit="10" stroke-width="1.5"></path><path d="M263.51,118.78c.2-1.27.63-2.37,1.3-3.3.8-.93,1.73-1.53,2.8-1.8,1.07-.27,1.8-.13,2.2.4.4.54.27,1.47-.4,2.8-.67,1.34-2.34,3.07-5,5.2-.8-.93-1.1-2.03-.9-3.3ZM264.11,123.18c.73.6,1.63,1.37,2.7,2.3.4.53.6,1,.6,1.4s-.14.94-.4,1.6c-.4,1.2-.9,2.7-1.5,4.5-.6,1.8-.97,3.53-1.1,5.2-.14,1.67.07,3.2.6,4.6.53,1.4,1.73,2.37,3.6,2.9,2.4.8,5.63.3,9.7-1.5,4.07-1.8,8.2-4.03,12.4-6.7,4.2-2.67,8.13-5.37,11.8-8.1,3.67-2.73,6.3-4.7,7.9-5.9.66-.4.83-.7.5-.9-.34-.2-.64-.17-.9.1-1.6,1.2-4.2,3.14-7.8,5.8-3.6,2.67-7.5,5.33-11.7,8-4.2,2.67-8.27,4.9-12.2,6.7-3.93,1.8-7.03,2.37-9.3,1.7-1.6-.53-2.57-1.47-2.9-2.8-.33-1.33-.4-2.8-.2-4.4.2-1.6.63-3.23,1.3-4.9.66-1.67,1.2-3.03,1.6-4.1.67-1.73.63-2.8-.1-3.2-.73-.4-1.9-1.33-3.5-2.8,2.8-2.27,4.53-4.17,5.2-5.7.66-1.53.7-2.67.1-3.4-.6-.73-1.57-1.03-2.9-.9-1.33.14-2.47.73-3.4,1.8-1.73,1.73-2.27,3.73-1.6,6,.27,1.2.77,2.1,1.5,2.7Z" fill="none" stroke="#fbcbc5" stroke-miterlimit="10" stroke-width="1.5"></path><path d="M306.61,130.18c-1.07,2.87-1.93,5.7-2.6,8.5-.13.53,0,.8.4.8s.73-.13,1-.4c1.2-1.73,2.6-3.6,4.2-5.6,1.6-2,3.23-4,4.9-6,1.67-2,3.37-3.87,5.1-5.6,1.73-1.73,3.33-3.13,4.8-4.2.4-.4.93-.8,1.6-1.2.67-.4,1.3-.67,1.9-.8.6-.13,1.07-.06,1.4.2.33.27.5.87.5,1.8-.27,1.47-.77,3.7-1.5,6.7-.73,3-2.1,7.03-4.1,12.1-.27.67-.2,1.03.2,1.1.4.07.8-.1,1.2-.5,5.6-6.8,9.83-11.36,12.7-13.7,2.87-2.33,4.77-3.16,5.7-2.5.67.4.8,1.8.4,4.2-.4,2.4-.8,4.97-1.2,7.7-.4,2.73-.47,5.27-.2,7.6.27,2.33,1.53,3.7,3.8,4.1,2,.27,4.7-.43,8.1-2.1,3.4-1.67,6.9-3.67,10.5-6,3.6-2.33,7-4.73,10.2-7.2,3.2-2.46,5.66-4.36,7.4-5.7.67-.4.83-.7.5-.9-.33-.2-.63-.17-.9.1-1.6,1.2-4.03,3.04-7.3,5.5-3.27,2.47-6.67,4.9-10.2,7.3-3.53,2.4-6.97,4.43-10.3,6.1-3.33,1.67-5.93,2.37-7.8,2.1-2-.27-3-1.53-3-3.8s.3-4.77.9-7.5c.6-2.73,1.03-5.3,1.3-7.7.27-2.4-.27-3.93-1.6-4.6-1.47-.67-3.47.04-6,2.1-2.53,2.07-6.47,6.1-11.8,12.1,1.2-3.2,2.23-6.4,3.1-9.6.86-3.2,1.23-5.53,1.1-7-.13-1.33-.47-2.2-1-2.6-.53-.4-1.17-.53-1.9-.4-.73.14-1.5.44-2.3.9-.8.47-1.47.97-2,1.5-2.67,2.14-5.63,5.04-8.9,8.7-3.27,3.67-6.17,7.23-8.7,10.7.8-2.27,1.67-4.53,2.6-6.8.93-2.27,1.93-4.53,3-6.8.13-.26-.1-.43-.7-.5-.6-.06-.97.03-1.1.3-1.2,2.14-2.33,4.64-3.4,7.5Z" fill="none" stroke="#fbcbc5" stroke-miterlimit="10" stroke-width="1.5"></path><path d="M390.71,128.48c-1.67,2-3.3,3.93-4.9,5.8-2.53,2.8-4.53,4.07-6,3.8-1.07-.27-1.6-1.1-1.6-2.5s.2-2.77.6-4.1c.53-2.27,1.53-4.33,3-6.2,1.47-1.87,3.13-3.13,5-3.8,2.67-.93,5.33-.4,8,1.6-1.07,1.6-2.43,3.4-4.1,5.4ZM389.81,130.88c1.6-2,2.93-3.66,4-5-1.07,2.67-2,5.57-2.8,8.7-.8,3.14-.93,5.64-.4,7.5.53,2,1.47,3.23,2.8,3.7,1.33.47,3,.43,5-.1,2.53-.66,5.43-1.86,8.7-3.6,3.27-1.73,6.6-3.7,10-5.9,3.4-2.2,6.63-4.46,9.7-6.8,3.07-2.33,5.73-4.3,8-5.9.53-.27.67-.53.4-.8-.27-.27-.54-.27-.8,0-2.13,1.6-4.77,3.53-7.9,5.8-3.14,2.27-6.4,4.53-9.8,6.8-3.4,2.27-6.77,4.3-10.1,6.1-3.33,1.8-6.2,2.97-8.6,3.5-1.6.4-3,.43-4.2.1-1.2-.33-1.93-1.43-2.2-3.3-.27-1.6-.1-3.5.5-5.7.6-2.2,1.33-4.4,2.2-6.6.86-2.2,1.8-4.27,2.8-6.2,1-1.93,1.83-3.43,2.5-4.5.27-.27.13-.47-.4-.6-.54-.13-.93-.06-1.2.2l-2.6,4c-1.6-1.2-3.23-1.9-4.9-2.1-1.67-.2-3.23-.03-4.7.5-2.8,1.07-5.03,3-6.7,5.8-1.66,2.8-2.36,5.47-2.1,8,0,1.07.23,2.03.7,2.9.47.87,1.1,1.37,1.9,1.5,1.6.14,3.67-1.07,6.2-3.6,1.07-.93,2.4-2.4,4-4.4Z" fill="none" stroke="#fbcbc5" stroke-miterlimit="10" stroke-width="1.5"></path><path d="M440,120.48c-1.87,0-3.57.57-5.1,1.7-1.53,1.14-2.83,2.37-3.9,3.7-1.87,2.53-2.97,5.37-3.3,8.5-.33,3.14.43,5.57,2.3,7.3,1.33,1.34,3.07,2.1,5.2,2.3,2.13.2,4.4.03,6.8-.5,2.4-.53,4.8-1.27,7.2-2.2,2.4-.93,4.6-1.87,6.6-2.8,4.13-1.87,8.17-4.1,12.1-6.7,3.93-2.6,7.83-5.37,11.7-8.3.67-.4.83-.7.5-.9-.33-.2-.63-.17-.9.1-1.47,1.2-3.17,2.5-5.1,3.9-1.93,1.4-3.93,2.77-6,4.1-2.07,1.34-4.17,2.6-6.3,3.8-2.14,1.2-4.2,2.27-6.2,3.2-1.73.8-3.77,1.67-6.1,2.6-2.34.93-4.7,1.67-7.1,2.2-2.4.53-4.67.73-6.8.6-2.13-.13-3.8-.87-5-2.2-.93-1.07-1.4-2.46-1.4-4.2s.3-3.5.9-5.3c.6-1.8,1.5-3.5,2.7-5.1,1.2-1.6,2.53-2.87,4-3.8,1.07-.67,2.33-1.1,3.8-1.3,1.47-.2,2.13.5,2,2.1-.13.67.03.93.5.8.47-.13.7-.4.7-.8-.53-1.87-1.8-2.8-3.8-2.8Z" fill="none" stroke="#fbcbc5" stroke-miterlimit="10" stroke-width="1.5"></path><path d="M484.5,111.58c-.2.6-.3,1.03-.3,1.3s.1.47.3.6c.2.13.43.07.7-.2.67-.67,1.13-1.46,1.4-2.4.13-.27-.03-.5-.5-.7-.47-.2-.77-.17-.9.1-.27.27-.5.7-.7,1.3ZM475.4,130.88c-.67,2.4-1.13,4.53-1.4,6.4-1.07,6.53,1.6,9.27,8,8.2,2.4-.4,5.27-1.47,8.6-3.2,3.33-1.73,6.73-3.7,10.2-5.9,3.46-2.2,6.83-4.5,10.1-6.9,3.27-2.4,5.97-4.4,8.1-6,.67-.4.83-.7.5-.9-.33-.2-.63-.17-.9.1-2.27,1.73-4.97,3.77-8.1,6.1-3.13,2.33-6.4,4.6-9.8,6.8-3.4,2.2-6.73,4.14-10,5.8-3.27,1.67-6.17,2.77-8.7,3.3-2.93.67-4.9.3-5.9-1.1-1-1.4-1.23-3.43-.7-6.1.13-1.33.73-3.5,1.8-6.5,1.07-3,2.33-5.63,3.8-7.9.27-.4.1-.67-.5-.8-.6-.13-1.03,0-1.3.4-1.87,3.07-3.13,5.8-3.8,8.2Z" fill="none" stroke="#fbcbc5" stroke-miterlimit="10" stroke-width="1.5"></path><path d="M520.7,139.18c-1.93.6-3.43.23-4.5-1.1-.93-1.2-1.3-2.73-1.1-4.6.2-1.87.63-3.53,1.3-5,1.07,1.87,2.37,3.33,3.9,4.4,1.53,1.07,3.37,1.93,5.5,2.6-1.47,1.87-3.17,3.1-5.1,3.7ZM517.4,123.68c-.53.54-1,1.2-1.4,2-.54-1.46-.64-3-.3-4.6.33-1.6,1.23-3.06,2.7-4.4,1.6-1.46,3.57-1.96,5.9-1.5,2.33.47,4.03,2.04,5.1,4.7.8,2.27.87,4.83.2,7.7-.67,2.87-1.73,5.3-3.2,7.3-2-.66-3.93-1.6-5.8-2.8-1.87-1.2-3.13-2.73-3.8-4.6.4-.8.83-1.57,1.3-2.3.47-.73,1.03-1.37,1.7-1.9.27-.26.2-.53-.2-.8-.4-.27-.73-.27-1,0-.27.27-.67.67-1.2,1.2ZM557.4,128.58c-3.33,1.8-6.77,3.3-10.3,4.5-3.53,1.2-7.03,2-10.5,2.4-3.47.4-6.67.27-9.6-.4,1.6-2.13,2.73-4.7,3.4-7.7.67-3,.53-5.63-.4-7.9-1.34-3.07-3.37-4.77-6.1-5.1-2.73-.33-4.97.5-6.7,2.5-1.2,1.47-1.9,3-2.1,4.6s-.1,3.33.3,5.2c-.66,1.87-1.13,3.93-1.4,6.2-.27,2.27.2,4.14,1.4,5.6,1.33,1.47,3.07,1.93,5.2,1.4,2.13-.53,4.13-1.93,6-4.2,2.93.8,6.17,1,9.7.6,3.53-.4,7.13-1.2,10.8-2.4,3.67-1.2,7.2-2.7,10.6-4.5,3.4-1.8,6.43-3.77,9.1-5.9.67-.4.83-.7.5-.9-.33-.2-.63-.17-.9.1-2.67,2.13-5.67,4.1-9,5.9Z" fill="none" stroke="#fbcbc5" stroke-miterlimit="10" stroke-width="1.5"></path><path d="M563,130.18c-1.07,2.87-1.93,5.7-2.6,8.5-.13.53.04.77.5.7.47-.07.84-.23,1.1-.5,2.4-3.47,5.27-6.97,8.6-10.5,3.33-3.53,6.33-6.23,9-8.1.67-.67,1.7-1.3,3.1-1.9,1.4-.6,2.17-.16,2.3,1.3.13,1.47-.17,3.47-.9,6-.73,2.53-1.33,5.14-1.8,7.8-.47,2.67-.57,5.07-.3,7.2.27,2.14,1.4,3.47,3.4,4,1.87.53,4.57-.07,8.1-1.8,3.53-1.73,7.2-3.86,11-6.4,3.8-2.53,7.33-5.07,10.6-7.6,3.27-2.53,5.63-4.33,7.1-5.4.67-.4.83-.7.5-.9-.33-.2-.63-.17-.9.1-1.33,1.07-3.6,2.83-6.8,5.3-3.2,2.47-6.67,4.97-10.4,7.5-3.73,2.53-7.37,4.67-10.9,6.4-3.53,1.73-6.17,2.4-7.9,2-1.73-.4-2.6-1.63-2.6-3.7s.27-4.36.8-6.9c.53-2.53,1.13-5.07,1.8-7.6.67-2.53.8-4.53.4-6-.53-1.86-1.57-2.56-3.1-2.1-1.53.47-2.83,1.1-3.9,1.9-2.27,1.73-5,4.2-8.2,7.4-3.2,3.2-6,6.4-8.4,9.6.8-2.27,1.67-4.53,2.6-6.8.93-2.27,1.93-4.53,3-6.8.13-.26-.1-.43-.7-.5-.6-.06-.97.03-1.1.3-1.2,2.14-2.33,4.64-3.4,7.5Z" fill="none" stroke="#fbcbc5" stroke-miterlimit="10" stroke-width="1.5"></path><path d="M626.2,120.78c1.07-.47,2.07-.7,3-.7,1.07,0,1.63.3,1.7.9.07.6-.43,1.17-1.5,1.7-1.34.67-3.27.8-5.8.4.67-1.07,1.53-1.83,2.6-2.3ZM625.7,119.98c-1.4.6-2.64,1.37-3.7,2.3-1.6,1.47-2.93,3.6-4,6.4-1.07,2.8-1.4,5.4-1,7.8.4,2.4,1.43,4.13,3.1,5.2,1.67,1.07,3.6,1.64,5.8,1.7,2.2.07,4.57-.23,7.1-.9,2.53-.67,4.8-1.4,6.8-2.2,2.53-1.07,5.1-2.3,7.7-3.7,2.6-1.4,5.1-2.87,7.5-4.4,2.4-1.53,4.63-3.07,6.7-4.6,2.07-1.53,3.9-2.9,5.5-4.1.66-.4.83-.7.5-.9-.34-.2-.64-.17-.9.1-3.2,2.67-7.3,5.64-12.3,8.9-5,3.27-10.03,5.97-15.1,8.1-1.34.54-2.9,1.07-4.7,1.6-1.8.53-3.64.9-5.5,1.1-1.87.2-3.64.17-5.3-.1-1.67-.27-2.97-1-3.9-2.2-.8-.93-1.27-2.13-1.4-3.6-.13-1.47,0-2.97.4-4.5.4-1.53.93-3,1.6-4.4.67-1.4,1.4-2.63,2.2-3.7,1.6.27,2.97.3,4.1.1,1.13-.2,2.1-.43,2.9-.7,1.33-.67,1.93-1.4,1.8-2.2-.13-.8-.67-1.33-1.6-1.6-1.47-.27-2.9-.1-4.3.5Z" fill="none" stroke="#fbcbc5" stroke-miterlimit="10" stroke-width="1.5"></path><path d="M662.1,145.28c1.93-.93,3.77-1.67,5.5-2.2,0,1.6-.3,3.23-.9,4.9-.6,1.67-1.7,2.97-3.3,3.9-1.47.8-2.9,1-4.3.6-1.4-.4-1.77-1.47-1.1-3.2.8-1.73,2.17-3.07,4.1-4ZM668.5,136.98c-.2-1.93-.4-3.9-.6-5.9-.2-2-.27-3.93-.2-5.8.07-1.87.43-3.47,1.1-4.8.53-1.2,1.3-2.07,2.3-2.6,1-.53,1.93-.8,2.8-.8s1.57.3,2.1.9c.53.6.6,1.5.2,2.7-.14.4.03.6.5.6s.7-.2.7-.6c.13-1.6-.17-2.73-.9-3.4-.73-.67-1.67-1-2.8-1s-2.27.33-3.4,1c-1.13.67-2.03,1.6-2.7,2.8-.93,1.6-1.43,3.33-1.5,5.2-.07,1.87,0,3.77.2,5.7.2,1.93.47,3.87.8,5.8.33,1.93.5,3.7.5,5.3-1.73.67-3.73,1.53-6,2.6-2.27,1.07-3.73,2.6-4.4,4.6-.27,1.07-.23,1.93.1,2.6.34.67.84,1.14,1.5,1.4.67.27,1.47.33,2.4.2.93-.13,1.8-.47,2.6-1,1.73-1.07,2.93-2.4,3.6-4,.66-1.6,1.13-3.53,1.4-5.8,6.4-2.26,12.43-4.86,18.1-7.8,5.66-2.93,11.5-6.73,17.5-11.4.66-.4.83-.7.5-.9-.34-.2-.63-.17-.9.1-5.33,4.4-10.93,8.14-16.8,11.2-5.87,3.07-12,5.67-18.4,7.8,0-1.2-.1-2.76-.3-4.7Z" fill="none" stroke="#fbcbc5" stroke-miterlimit="10" stroke-width="1.5"></path><path d="M2.54,3.93c.97-.14,1.87.52,2.01,1.49.03.17.03.35,0,.52.12.99-.59,1.9-1.58,2.01-.14.02-.29.02-.43,0-.99.12-1.9-.59-2.01-1.59-.02-.14-.02-.29,0-.43-.14-.97.52-1.87,1.49-2.01.17-.03.35-.03.52,0M4.55,13.99c.13.98-.56,1.88-1.54,2.01-.16.02-.32.02-.47,0-.98.13-1.88-.56-2.01-1.54-.02-.16-.02-.32,0-.47-.14-.97.52-1.87,1.49-2.01.17-.03.35-.03.52,0,.97-.14,1.87.52,2.01,1.49.03.17.03.35,0,.52M4.55,22.05c.14.97-.52,1.87-1.49,2.01-.17.03-.35.03-.52,0-1.11,0-2.01-.9-2.01-2.01s.9-2.01,2.01-2.01c.98-.13,1.88.56,2.01,1.54.02.16.02.32,0,.47M2.54,28.09c1.11,0,2.01.9,2.01,2.01s-.9,2.01-2.01,2.01-2.01-.9-2.01-2.01.9-2.01,2.01-2.01M4.55,38.15c.16.95-.49,1.86-1.44,2.01-.19.03-.38.03-.57,0-.97.15-1.87-.52-2.01-1.49-.02-.17-.02-.35,0-.52-.12-.99.59-1.9,1.59-2.01.14-.02.29-.02.43,0,.99-.12,1.89.59,2.01,1.59.02.14.02.29,0,.43M4.55,46.21c.16.95-.49,1.86-1.44,2.01-.19.03-.38.03-.57,0-.97.14-1.87-.52-2.01-1.49-.02-.17-.02-.35,0-.52-.12-.99.59-1.9,1.59-2.01.14-.02.29-.02.43,0,.99-.12,1.89.59,2.01,1.59.02.14.02.29,0,.43M4.55,54.26c.16.96-.49,1.86-1.44,2.01-.19.03-.38.03-.57,0-.97.14-1.87-.52-2.01-1.49-.02-.17-.02-.35,0-.52-.12-.99.59-1.9,1.59-2.01.14-.02.29-.02.43,0,.99-.12,1.89.59,2.01,1.58.02.14.02.29,0,.43M2.54,60.3c.99-.12,1.89.59,2.01,1.58.02.14.02.29,0,.43.16.95-.49,1.86-1.44,2.01-.19.03-.38.03-.57,0-.97.15-1.87-.52-2.01-1.49-.02-.17-.02-.35,0-.52-.12-.99.59-1.9,1.59-2.01.14-.02.29-.02.43,0M7.55,9.97c.99-.12,1.89.59,2.01,1.59.02.14.02.29,0,.43.14.97-.52,1.87-1.49,2.01-.17.03-.35.03-.52,0-.95.16-1.86-.49-2.01-1.44-.03-.19-.03-.38,0-.57-.12-.99.59-1.9,1.58-2.01.14-.02.29-.02.43,0M12.73,16.67c.97-.14,1.87.52,2.01,1.49.03.17.03.35,0,.52.13.98-.56,1.88-1.54,2.01-.16.02-.32.02-.47,0-.99.12-1.9-.59-2.01-1.59-.02-.14-.02-.29,0-.43-.14-.97.52-1.87,1.49-2.01.17-.03.35-.03.52,0M17.7,22.97c.95-.16,1.86.49,2.01,1.44.03.19.03.38,0,.57.12.99-.59,1.9-1.58,2.01-.14.02-.29.02-.43,0-.99.12-1.89-.59-2.01-1.59-.02-.14-.02-.29,0-.43-.14-.97.52-1.87,1.49-2.01.17-.03.35-.03.52,0M22.79,29.3c.98-.13,1.88.56,2.01,1.54.02.16.02.32,0,.47.12.99-.59,1.9-1.59,2.01-.14.02-.29.02-.43,0-.99.12-1.9-.59-2.01-1.58-.02-.14-.02-.29,0-.43-.13-.98.56-1.88,1.54-2.01.16-.02.32-.02.48,0M27.89,35.62c.99-.12,1.89.59,2.01,1.58.02.14.02.29,0,.43.14.97-.52,1.87-1.49,2.01-.17.03-.35.03-.52,0-.97.14-1.87-.52-2.01-1.49-.02-.17-.02-.35,0-.52-.12-.99.59-1.9,1.59-2.01.14-.02.29-.02.43,0M32.86,29.3c-.98-.13-1.88.56-2.01,1.54-.02.16-.02.32,0,.47,0,1.11.9,2.01,2.01,2.01s2.01-.9,2.01-2.01-.9-2.01-2.01-2.01M37.89,22.97c-.95-.16-1.86.49-2.01,1.44-.03.19-.03.38,0,.57,0,1.11.9,2.01,2.01,2.01s2.01-.9,2.01-2.01c.14-.97-.52-1.87-1.49-2.01-.17-.03-.35-.03-.52,0M42.93,16.67c-.97-.14-1.87.52-2.01,1.49-.02.17-.02.35,0,.52,0,1.11.9,2.01,2.01,2.01s2.01-.9,2.01-2.01c.16-.95-.49-1.86-1.44-2.01-.19-.03-.38-.03-.57,0M47.96,10.31c-.99-.12-1.89.59-2.01,1.58-.02.14-.02.29,0,.43,0,1.11.9,2.01,2.01,2.01s2.01-.9,2.01-2.01c.12-.99-.59-1.9-1.59-2.01-.14-.02-.29-.02-.43,0M52.99,3.93c-.97-.14-1.87.52-2.01,1.49-.03.17-.03.35,0,.52,0,1.11.9,2.01,2.01,2.01s2.01-.9,2.01-2.01c.13-.98-.56-1.88-1.54-2.01-.16-.02-.32-.02-.48,0" fill="#414042"></path><path d="M2.54,3.93c.97-.14,1.87.52,2.01,1.49.03.17.03.35,0,.52.12.99-.59,1.9-1.58,2.01-.14.02-.29.02-.43,0-.99.12-1.9-.59-2.01-1.59-.02-.14-.02-.29,0-.43-.14-.97.52-1.87,1.49-2.01.17-.03.35-.03.52,0M4.55,13.99c.13.98-.56,1.88-1.54,2.01-.16.02-.32.02-.47,0-.98.13-1.88-.56-2.01-1.54-.02-.16-.02-.32,0-.47-.14-.97.52-1.87,1.49-2.01.17-.03.35-.03.52,0,.97-.14,1.87.52,2.01,1.49.03.17.03.35,0,.52M4.55,22.05c.14.97-.52,1.87-1.49,2.01-.17.03-.35.03-.52,0-1.11,0-2.01-.9-2.01-2.01s.9-2.01,2.01-2.01c.98-.13,1.88.56,2.01,1.54.02.16.02.32,0,.47M2.54,28.09c1.11,0,2.01.9,2.01,2.01s-.9,2.01-2.01,2.01-2.01-.9-2.01-2.01.9-2.01,2.01-2.01M4.55,38.15c.16.95-.49,1.86-1.44,2.01-.19.03-.38.03-.57,0-.97.15-1.87-.52-2.01-1.49-.02-.17-.02-.35,0-.52-.12-.99.59-1.9,1.59-2.01.14-.02.29-.02.43,0,.99-.12,1.89.59,2.01,1.59.02.14.02.29,0,.43M4.55,46.21c.16.95-.49,1.86-1.44,2.01-.19.03-.38.03-.57,0-.97.14-1.87-.52-2.01-1.49-.02-.17-.02-.35,0-.52-.12-.99.59-1.9,1.59-2.01.14-.02.29-.02.43,0,.99-.12,1.89.59,2.01,1.59.02.14.02.29,0,.43M4.55,54.26c.16.96-.49,1.86-1.44,2.01-.19.03-.38.03-.57,0-.97.14-1.87-.52-2.01-1.49-.02-.17-.02-.35,0-.52-.12-.99.59-1.9,1.59-2.01.14-.02.29-.02.43,0,.99-.12,1.89.59,2.01,1.58.02.14.02.29,0,.43M2.54,60.3c.99-.12,1.89.59,2.01,1.58.02.14.02.29,0,.43.16.95-.49,1.86-1.44,2.01-.19.03-.38.03-.57,0-.97.15-1.87-.52-2.01-1.49-.02-.17-.02-.35,0-.52-.12-.99.59-1.9,1.59-2.01.14-.02.29-.02.43,0M7.55,9.97c.99-.12,1.89.59,2.01,1.59.02.14.02.29,0,.43.14.97-.52,1.87-1.49,2.01-.17.03-.35.03-.52,0-.95.16-1.86-.49-2.01-1.44-.03-.19-.03-.38,0-.57-.12-.99.59-1.9,1.58-2.01.14-.02.29-.02.43,0M12.73,16.67c.97-.14,1.87.52,2.01,1.49.03.17.03.35,0,.52.13.98-.56,1.88-1.54,2.01-.16.02-.32.02-.47,0-.99.12-1.9-.59-2.01-1.59-.02-.14-.02-.29,0-.43-.14-.97.52-1.87,1.49-2.01.17-.03.35-.03.52,0M17.7,22.97c.95-.16,1.86.49,2.01,1.44.03.19.03.38,0,.57.12.99-.59,1.9-1.58,2.01-.14.02-.29.02-.43,0-.99.12-1.89-.59-2.01-1.59-.02-.14-.02-.29,0-.43-.14-.97.52-1.87,1.49-2.01.17-.03.35-.03.52,0M22.79,29.3c.98-.13,1.88.56,2.01,1.54.02.16.02.32,0,.47.12.99-.59,1.9-1.59,2.01-.14.02-.29.02-.43,0-.99.12-1.9-.59-2.01-1.58-.02-.14-.02-.29,0-.43-.13-.98.56-1.88,1.54-2.01.16-.02.32-.02.48,0M27.89,35.62c.99-.12,1.89.59,2.01,1.58.02.14.02.29,0,.43.14.97-.52,1.87-1.49,2.01-.17.03-.35.03-.52,0-.97.14-1.87-.52-2.01-1.49-.02-.17-.02-.35,0-.52-.12-.99.59-1.9,1.59-2.01.14-.02.29-.02.43,0M32.86,29.3c-.98-.13-1.88.56-2.01,1.54-.02.16-.02.32,0,.47,0,1.11.9,2.01,2.01,2.01s2.01-.9,2.01-2.01-.9-2.01-2.01-2.01M37.89,22.97c-.95-.16-1.86.49-2.01,1.44-.03.19-.03.38,0,.57,0,1.11.9,2.01,2.01,2.01s2.01-.9,2.01-2.01c.14-.97-.52-1.87-1.49-2.01-.17-.03-.35-.03-.52,0M42.93,16.67c-.97-.14-1.87.52-2.01,1.49-.02.17-.02.35,0,.52,0,1.11.9,2.01,2.01,2.01s2.01-.9,2.01-2.01c.16-.95-.49-1.86-1.44-2.01-.19-.03-.38-.03-.57,0M47.96,10.31c-.99-.12-1.89.59-2.01,1.58-.02.14-.02.29,0,.43,0,1.11.9,2.01,2.01,2.01s2.01-.9,2.01-2.01c.12-.99-.59-1.9-1.59-2.01-.14-.02-.29-.02-.43,0M52.99,3.93c-.97-.14-1.87.52-2.01,1.49-.03.17-.03.35,0,.52,0,1.11.9,2.01,2.01,2.01s2.01-.9,2.01-2.01c.13-.98-.56-1.88-1.54-2.01-.16-.02-.32-.02-.48,0" fill="none" stroke="#414042" stroke-miterlimit="10" stroke-width="1.01"></path><path d="M66.68,3.93c.98-.13,1.88.56,2.01,1.54.02.16.02.32,0,.47,0,1.11-.9,2.01-2.01,2.01s-2.01-.9-2.01-2.01c-.13-.98.56-1.88,1.54-2.01.16-.02.32-.02.47,0M68.7,13.99c0,1.11-.9,2.01-2.01,2.01s-2.01-.9-2.01-2.01.9-2.01,2.01-2.01c.99-.12,1.9.59,2.01,1.58.02.14.02.29,0,.43M68.7,22.05c0,1.11-.9,2.01-2.01,2.01s-2.01-.9-2.01-2.01.9-2.01,2.01-2.01c.98-.13,1.88.56,2.01,1.54.02.16.02.32,0,.47M66.68,28.09c1.11,0,2.01.9,2.01,2.01s-.9,2.01-2.01,2.01-2.01-.9-2.01-2.01c-.12-.99.59-1.9,1.58-2.01.14-.02.29-.02.43,0M68.7,38.15c0,1.11-.9,2.01-2.01,2.01s-2.01-.9-2.01-2.01.9-2.01,2.01-2.01,2.01.9,2.01,2.01M68.7,46.21c0,1.11-.9,2.01-2.01,2.01s-2.01-.9-2.01-2.01.9-2.01,2.01-2.01,2.01.9,2.01,2.01M68.7,54.26c0,1.11-.9,2.01-2.01,2.01s-2.01-.9-2.01-2.01.9-2.01,2.01-2.01,2.01.9,2.01,2.01M66.68,60.3c.99-.12,1.9.59,2.01,1.58.02.14.02.29,0,.43,0,1.11-.9,2.01-2.01,2.01s-2.01-.9-2.01-2.01c-.12-.99.59-1.89,1.58-2.01.14-.02.29-.02.43,0M74.74,3.54c.97-.14,1.87.52,2.01,1.49.03.17.03.35,0,.52,0,1.11-.9,2.01-2.01,2.01s-2.01-.9-2.01-2.01c-.13-.98.56-1.88,1.54-2.01.16-.02.32-.02.47,0M74.74,27.87c1.11,0,2.01.9,2.01,2.01s-.9,2.01-2.01,2.01-2.01-.9-2.01-2.01c-.13-.98.56-1.88,1.54-2.01.16-.02.32-.02.47,0M74.74,60.3c.99-.12,1.9.59,2.01,1.58.02.14.02.29,0,.43,0,1.11-.9,2.01-2.01,2.01s-2.01-.9-2.01-2.01c-.12-.99.59-1.89,1.59-2.01.14-.02.29-.02.43,0M82.79,3.54c.97-.14,1.87.52,2.01,1.49.03.17.03.35,0,.52,0,1.11-.9,2.01-2.01,2.01s-2.01-.9-2.01-2.01c-.13-.98.56-1.88,1.54-2.01.16-.02.32-.02.48,0M82.79,27.87c1.11,0,2.01.9,2.01,2.01s-.9,2.01-2.01,2.01-2.01-.9-2.01-2.01c-.13-.98.56-1.88,1.54-2.01.16-.02.32-.02.48,0M82.79,60.3c.99-.12,1.89.59,2.01,1.58.02.14.02.29,0,.43,0,1.11-.9,2.01-2.01,2.01s-2.01-.9-2.01-2.01c-.12-.99.59-1.89,1.59-2.01.14-.02.29-.02.43,0M90.84,3.54c.98-.13,1.88.56,2.01,1.54.02.16.02.32,0,.47,0,1.11-.9,2.01-2.01,2.01s-2.01-.9-2.01-2.01c-.14-.97.52-1.87,1.49-2.01.17-.03.35-.03.52,0M90.84,27.87c1.11,0,2.01.9,2.01,2.01s-.9,2.01-2.01,2.01-2.01-.9-2.01-2.01c-.13-.98.56-1.88,1.54-2.01.16-.02.32-.02.47,0M90.84,60.3c.99-.12,1.9.59,2.01,1.58.02.14.02.29,0,.43,0,1.11-.9,2.01-2.01,2.01s-2.01-.9-2.01-2.01c-.12-.99.59-1.89,1.58-2.01.14-.02.29-.02.43,0M98.9,3.54c.98-.13,1.88.56,2.01,1.54.02.16.02.32,0,.47,0,1.11-.9,2.01-2.01,2.01s-2.01-.9-2.01-2.01c-.13-.98.56-1.88,1.54-2.01.16-.02.32-.02.48,0M98.9,60.3c.99-.12,1.89.59,2.01,1.58.02.14.02.29,0,.43,0,1.11-.9,2.01-2.01,2.01s-2.01-.9-2.01-2.01c-.12-.99.59-1.89,1.58-2.01.14-.02.29-.02.43,0" fill="#414042"></path><path d="M66.68,3.93c.98-.13,1.88.56,2.01,1.54.02.16.02.32,0,.47,0,1.11-.9,2.01-2.01,2.01s-2.01-.9-2.01-2.01c-.13-.98.56-1.88,1.54-2.01.16-.02.32-.02.47,0M68.7,13.99c0,1.11-.9,2.01-2.01,2.01s-2.01-.9-2.01-2.01.9-2.01,2.01-2.01c.99-.12,1.9.59,2.01,1.58.02.14.02.29,0,.43M68.7,22.05c0,1.11-.9,2.01-2.01,2.01s-2.01-.9-2.01-2.01.9-2.01,2.01-2.01c.98-.13,1.88.56,2.01,1.54.02.16.02.32,0,.47M66.68,28.09c1.11,0,2.01.9,2.01,2.01s-.9,2.01-2.01,2.01-2.01-.9-2.01-2.01c-.12-.99.59-1.9,1.58-2.01.14-.02.29-.02.43,0M68.7,38.15c0,1.11-.9,2.01-2.01,2.01s-2.01-.9-2.01-2.01.9-2.01,2.01-2.01,2.01.9,2.01,2.01M68.7,46.21c0,1.11-.9,2.01-2.01,2.01s-2.01-.9-2.01-2.01.9-2.01,2.01-2.01,2.01.9,2.01,2.01M68.7,54.26c0,1.11-.9,2.01-2.01,2.01s-2.01-.9-2.01-2.01.9-2.01,2.01-2.01,2.01.9,2.01,2.01M66.68,60.3c.99-.12,1.9.59,2.01,1.58.02.14.02.29,0,.43,0,1.11-.9,2.01-2.01,2.01s-2.01-.9-2.01-2.01c-.12-.99.59-1.89,1.58-2.01.14-.02.29-.02.43,0M74.74,3.54c.97-.14,1.87.52,2.01,1.49.03.17.03.35,0,.52,0,1.11-.9,2.01-2.01,2.01s-2.01-.9-2.01-2.01c-.13-.98.56-1.88,1.54-2.01.16-.02.32-.02.47,0M74.74,27.87c1.11,0,2.01.9,2.01,2.01s-.9,2.01-2.01,2.01-2.01-.9-2.01-2.01c-.13-.98.56-1.88,1.54-2.01.16-.02.32-.02.47,0M74.74,60.3c.99-.12,1.9.59,2.01,1.58.02.14.02.29,0,.43,0,1.11-.9,2.01-2.01,2.01s-2.01-.9-2.01-2.01c-.12-.99.59-1.89,1.59-2.01.14-.02.29-.02.43,0M82.79,3.54c.97-.14,1.87.52,2.01,1.49.03.17.03.35,0,.52,0,1.11-.9,2.01-2.01,2.01s-2.01-.9-2.01-2.01c-.13-.98.56-1.88,1.54-2.01.16-.02.32-.02.48,0M82.79,27.87c1.11,0,2.01.9,2.01,2.01s-.9,2.01-2.01,2.01-2.01-.9-2.01-2.01c-.13-.98.56-1.88,1.54-2.01.16-.02.32-.02.48,0M82.79,60.3c.99-.12,1.89.59,2.01,1.58.02.14.02.29,0,.43,0,1.11-.9,2.01-2.01,2.01s-2.01-.9-2.01-2.01c-.12-.99.59-1.89,1.59-2.01.14-.02.29-.02.43,0M90.84,3.54c.98-.13,1.88.56,2.01,1.54.02.16.02.32,0,.47,0,1.11-.9,2.01-2.01,2.01s-2.01-.9-2.01-2.01c-.14-.97.52-1.87,1.49-2.01.17-.03.35-.03.52,0M90.84,27.87c1.11,0,2.01.9,2.01,2.01s-.9,2.01-2.01,2.01-2.01-.9-2.01-2.01c-.13-.98.56-1.88,1.54-2.01.16-.02.32-.02.47,0M90.84,60.3c.99-.12,1.9.59,2.01,1.58.02.14.02.29,0,.43,0,1.11-.9,2.01-2.01,2.01s-2.01-.9-2.01-2.01c-.12-.99.59-1.89,1.58-2.01.14-.02.29-.02.43,0M98.9,3.54c.98-.13,1.88.56,2.01,1.54.02.16.02.32,0,.47,0,1.11-.9,2.01-2.01,2.01s-2.01-.9-2.01-2.01c-.13-.98.56-1.88,1.54-2.01.16-.02.32-.02.48,0M98.9,60.3c.99-.12,1.89.59,2.01,1.58.02.14.02.29,0,.43,0,1.11-.9,2.01-2.01,2.01s-2.01-.9-2.01-2.01c-.12-.99.59-1.89,1.58-2.01.14-.02.29-.02.43,0" fill="none" stroke="#414042" stroke-miterlimit="10" stroke-width="1.01"></path><path d="M111.68,5.94c-.12-.99.59-1.9,1.59-2.01.14-.02.29-.02.43,0,.97-.14,1.87.52,2.01,1.49.03.17.03.35,0,.52.12.99-.59,1.9-1.58,2.01-.14.02-.29.02-.43,0-1.01.1-1.91-.62-2.01-1.63-.01-.13-.01-.26,0-.38M113.7,16.01c-1.11,0-2.01-.9-2.01-2.01s.9-2.01,2.01-2.01c.97-.14,1.87.52,2.01,1.49.03.17.03.35,0,.52.13.98-.56,1.88-1.54,2.01-.16.02-.32.02-.47,0M113.7,24.06c-1.11,0-2.01-.9-2.01-2.01s.9-2.01,2.01-2.01,2.01.9,2.01,2.01c.14.97-.52,1.87-1.49,2.01-.17.03-.35.03-.52,0M113.7,32.11c-.98.13-1.88-.56-2.01-1.54-.02-.16-.02-.32,0-.47-.11-1.01.62-1.91,1.63-2.01.13-.01.26-.01.38,0,.99-.12,1.9.59,2.01,1.58.02.14.02.29,0,.43.16.95-.49,1.86-1.44,2.01-.19.03-.38.03-.57,0M111.68,38.15c-.11-1.01.62-1.91,1.63-2.01.13-.01.26-.01.38,0,.99-.12,1.9.59,2.01,1.59.02.14.02.29,0,.43.16.95-.49,1.86-1.44,2.01-.19.03-.38.03-.57,0-.98.13-1.88-.56-2.01-1.54-.02-.16-.02-.32,0-.47M113.7,48.22c-.98.13-1.88-.56-2.01-1.54-.02-.16-.02-.32,0-.47-.11-1.01.62-1.91,1.63-2.01.13-.01.26-.01.38,0,.99-.12,1.9.59,2.01,1.58.02.14.02.29,0,.43.16.95-.49,1.86-1.44,2.01-.19.03-.38.03-.57,0M113.7,56.28c-.98.13-1.88-.56-2.01-1.54-.02-.16-.02-.32,0-.47-.11-1.01.62-1.91,1.63-2.01.13-.01.26-.01.38,0,.99-.12,1.9.59,2.01,1.59.02.14.02.29,0,.43.16.95-.49,1.86-1.44,2.01-.19.03-.38.03-.57,0M111.68,62.32c-.11-1.01.62-1.91,1.63-2.01.13-.01.26-.01.38,0,.99-.12,1.9.59,2.01,1.59.02.14.02.29,0,.43.16.95-.49,1.86-1.44,2.01-.19.03-.38.03-.57,0-.98.13-1.88-.56-2.01-1.54-.02-.16-.02-.32,0-.47M119.74,38.01c-.16-.95.49-1.86,1.44-2.01.19-.03.38-.03.57,0,.98-.13,1.88.56,2.01,1.54.02.16.02.32,0,.47.1,1.01-.62,1.91-1.63,2.01-.13.01-.26.01-.38,0-1.37,0-2.01-.7-2.01-2.01M119.74,5.52c-.12-.99.59-1.9,1.58-2.01.14-.02.29-.02.43,0,.97-.14,1.87.52,2.01,1.49.02.17.02.35,0,.52.12.99-.59,1.9-1.59,2.01-.14.02-.29.02-.43,0-1.01.1-1.91-.62-2.01-1.63-.01-.13-.01-.26,0-.38M127.79,38.01c-.15-.97.52-1.87,1.49-2.01.17-.03.35-.03.52,0,.98-.13,1.88.56,2.01,1.54.02.16.02.32,0,.47.11,1.01-.62,1.91-1.63,2.01-.13.01-.26.01-.38,0-.99.12-1.9-.59-2.01-1.58-.02-.14-.02-.29,0-.43M127.79,5.52c0-1.11.9-2.01,2.01-2.01s2.01.9,2.01,2.01-.9,2.01-2.01,2.01-2.01-.9-2.01-2.01M133.09,44.13c-.13-.98.56-1.88,1.54-2.01.16-.02.32-.02.47,0,1.01-.1,1.91.62,2.01,1.63.01.13.01.26,0,.38.13.98-.56,1.88-1.54,2.01-.16.02-.32.02-.48,0-.95.16-1.86-.49-2.01-1.44-.03-.19-.03-.38,0-.57M135.74,37.57c-.12-.99.59-1.9,1.59-2.01.14-.02.29-.02.43,0,1.01-.11,1.91.62,2.01,1.63.01.13.01.26,0,.38.13.98-.56,1.88-1.54,2.01-.16.02-.32.02-.47,0-.95.16-1.86-.49-2.01-1.44-.03-.19-.03-.38,0-.57M135.74,6.32c0-1.11.9-2.01,2.01-2.01s2.01.9,2.01,2.01-.9,2.01-2.01,2.01-2.01-.9-2.01-2.01M138.34,50.19c0-1.11.9-2.01,2.01-2.01s2.01.9,2.01,2.01-.9,2.01-2.01,2.01-2.01-.9-2.01-2.01M142.37,10.87c-.14-.97.52-1.87,1.49-2.01.17-.03.35-.03.52,0,.98-.13,1.88.56,2.01,1.54.02.16.02.32,0,.47.12.99-.59,1.9-1.59,2.01-.14.02-.29.02-.43,0-.98.13-1.88-.56-2.01-1.54-.02-.16-.02-.32,0-.47M142.37,33.36c0-1.11.9-2.01,2.01-2.01s2.01.9,2.01,2.01-.9,2.01-2.01,2.01-2.01-.9-2.01-2.01M143.58,56.32c-.09-1.02.66-1.92,1.68-2.01.11-.01.22-.01.34,0,.99-.12,1.9.59,2.01,1.59.02.14.02.29,0,.43.16.95-.49,1.86-1.44,2.01-.19.03-.38.03-.57,0-.98.13-1.88-.56-2.01-1.54-.02-.16-.02-.32,0-.47M145.79,18.06c0-1.11.9-2.01,2.01-2.01s2.01.9,2.01,2.01-.9,2.01-2.01,2.01-2.01-.9-2.01-2.01M145.79,26.11c0-1.11.9-2.01,2.01-2.01s2.01.9,2.01,2.01-.9,2.01-2.01,2.01-2.01-.9-2.01-2.01M148.87,62.36c0-1.11.9-2.01,2.01-2.01s2.01.9,2.01,2.01-.9,2.01-2.01,2.01-2.01-.9-2.01-2.01" fill="#414042"></path><path d="M111.68,5.94c-.12-.99.59-1.9,1.59-2.01.14-.02.29-.02.43,0,.97-.14,1.87.52,2.01,1.49.03.17.03.35,0,.52.12.99-.59,1.9-1.58,2.01-.14.02-.29.02-.43,0-1.01.1-1.91-.62-2.01-1.63-.01-.13-.01-.26,0-.38M113.7,16.01c-1.11,0-2.01-.9-2.01-2.01s.9-2.01,2.01-2.01c.97-.14,1.87.52,2.01,1.49.03.17.03.35,0,.52.13.98-.56,1.88-1.54,2.01-.16.02-.32.02-.47,0M113.7,24.06c-1.11,0-2.01-.9-2.01-2.01s.9-2.01,2.01-2.01,2.01.9,2.01,2.01c.14.97-.52,1.87-1.49,2.01-.17.03-.35.03-.52,0M113.7,32.11c-.98.13-1.88-.56-2.01-1.54-.02-.16-.02-.32,0-.47-.11-1.01.62-1.91,1.63-2.01.13-.01.26-.01.38,0,.99-.12,1.9.59,2.01,1.58.02.14.02.29,0,.43.16.95-.49,1.86-1.44,2.01-.19.03-.38.03-.57,0M111.68,38.15c-.11-1.01.62-1.91,1.63-2.01.13-.01.26-.01.38,0,.99-.12,1.9.59,2.01,1.59.02.14.02.29,0,.43.16.95-.49,1.86-1.44,2.01-.19.03-.38.03-.57,0-.98.13-1.88-.56-2.01-1.54-.02-.16-.02-.32,0-.47M113.7,48.22c-.98.13-1.88-.56-2.01-1.54-.02-.16-.02-.32,0-.47-.11-1.01.62-1.91,1.63-2.01.13-.01.26-.01.38,0,.99-.12,1.9.59,2.01,1.58.02.14.02.29,0,.43.16.95-.49,1.86-1.44,2.01-.19.03-.38.03-.57,0M113.7,56.28c-.98.13-1.88-.56-2.01-1.54-.02-.16-.02-.32,0-.47-.11-1.01.62-1.91,1.63-2.01.13-.01.26-.01.38,0,.99-.12,1.9.59,2.01,1.59.02.14.02.29,0,.43.16.95-.49,1.86-1.44,2.01-.19.03-.38.03-.57,0M111.68,62.32c-.11-1.01.62-1.91,1.63-2.01.13-.01.26-.01.38,0,.99-.12,1.9.59,2.01,1.59.02.14.02.29,0,.43.16.95-.49,1.86-1.44,2.01-.19.03-.38.03-.57,0-.98.13-1.88-.56-2.01-1.54-.02-.16-.02-.32,0-.47M119.74,38.01c-.16-.95.49-1.86,1.44-2.01.19-.03.38-.03.57,0,.98-.13,1.88.56,2.01,1.54.02.16.02.32,0,.47.1,1.01-.62,1.91-1.63,2.01-.13.01-.26.01-.38,0-1.37,0-2.01-.7-2.01-2.01M119.74,5.52c-.12-.99.59-1.9,1.58-2.01.14-.02.29-.02.43,0,.97-.14,1.87.52,2.01,1.49.02.17.02.35,0,.52.12.99-.59,1.9-1.59,2.01-.14.02-.29.02-.43,0-1.01.1-1.91-.62-2.01-1.63-.01-.13-.01-.26,0-.38M127.79,38.01c-.15-.97.52-1.87,1.49-2.01.17-.03.35-.03.52,0,.98-.13,1.88.56,2.01,1.54.02.16.02.32,0,.47.11,1.01-.62,1.91-1.63,2.01-.13.01-.26.01-.38,0-.99.12-1.9-.59-2.01-1.58-.02-.14-.02-.29,0-.43M127.79,5.52c0-1.11.9-2.01,2.01-2.01s2.01.9,2.01,2.01-.9,2.01-2.01,2.01-2.01-.9-2.01-2.01M133.09,44.13c-.13-.98.56-1.88,1.54-2.01.16-.02.32-.02.47,0,1.01-.1,1.91.62,2.01,1.63.01.13.01.26,0,.38.13.98-.56,1.88-1.54,2.01-.16.02-.32.02-.48,0-.95.16-1.86-.49-2.01-1.44-.03-.19-.03-.38,0-.57M135.74,37.57c-.12-.99.59-1.9,1.59-2.01.14-.02.29-.02.43,0,1.01-.11,1.91.62,2.01,1.63.01.13.01.26,0,.38.13.98-.56,1.88-1.54,2.01-.16.02-.32.02-.47,0-.95.16-1.86-.49-2.01-1.44-.03-.19-.03-.38,0-.57M135.74,6.32c0-1.11.9-2.01,2.01-2.01s2.01.9,2.01,2.01-.9,2.01-2.01,2.01-2.01-.9-2.01-2.01M138.34,50.19c0-1.11.9-2.01,2.01-2.01s2.01.9,2.01,2.01-.9,2.01-2.01,2.01-2.01-.9-2.01-2.01M142.37,10.87c-.14-.97.52-1.87,1.49-2.01.17-.03.35-.03.52,0,.98-.13,1.88.56,2.01,1.54.02.16.02.32,0,.47.12.99-.59,1.9-1.59,2.01-.14.02-.29.02-.43,0-.98.13-1.88-.56-2.01-1.54-.02-.16-.02-.32,0-.47M142.37,33.36c0-1.11.9-2.01,2.01-2.01s2.01.9,2.01,2.01-.9,2.01-2.01,2.01-2.01-.9-2.01-2.01M143.58,56.32c-.09-1.02.66-1.92,1.68-2.01.11-.01.22-.01.34,0,.99-.12,1.9.59,2.01,1.59.02.14.02.29,0,.43.16.95-.49,1.86-1.44,2.01-.19.03-.38.03-.57,0-.98.13-1.88-.56-2.01-1.54-.02-.16-.02-.32,0-.47M145.79,18.06c0-1.11.9-2.01,2.01-2.01s2.01.9,2.01,2.01-.9,2.01-2.01,2.01-2.01-.9-2.01-2.01M145.79,26.11c0-1.11.9-2.01,2.01-2.01s2.01.9,2.01,2.01-.9,2.01-2.01,2.01-2.01-.9-2.01-2.01M148.87,62.36c0-1.11.9-2.01,2.01-2.01s2.01.9,2.01,2.01-.9,2.01-2.01,2.01-2.01-.9-2.01-2.01" fill="none" stroke="#414042" stroke-miterlimit="10" stroke-width="1.01"></path><path d="M159.95,5.94c0-1.11.9-2.01,2.01-2.01s2.01.9,2.01,2.01-.9,2.01-2.01,2.01-2.01-.9-2.01-2.01" fill="#414042"></path><path d="M159.95,5.94c0-1.11.9-2.01,2.01-2.01s2.01.9,2.01,2.01-.9,2.01-2.01,2.01-2.01-.9-2.01-2.01" fill="none" stroke="#414042" stroke-miterlimit="10" stroke-width="1.01"></path><path d="M164.82,12.44c-.14-.97.52-1.87,1.49-2.01.17-.03.35-.03.52,0,1.11,0,2.01.9,2.01,2.01s-.9,2.01-2.01,2.01c-.97.15-1.87-.52-2.01-1.49-.03-.17-.03-.35,0-.52" fill="#414042"></path><path d="M164.82,12.44c-.14-.97.52-1.87,1.49-2.01.17-.03.35-.03.52,0,1.11,0,2.01.9,2.01,2.01s-.9,2.01-2.01,2.01c-.97.15-1.87-.52-2.01-1.49-.03-.17-.03-.35,0-.52" fill="none" stroke="#414042" stroke-miterlimit="10" stroke-width="1.01"></path><path d="M169.77,18.95c0-1.11.9-2.01,2.01-2.01s2.01.9,2.01,2.01-.9,2.01-2.01,2.01-2.01-.9-2.01-2.01" fill="#414042"></path><path d="M169.77,18.95c0-1.11.9-2.01,2.01-2.01s2.01.9,2.01,2.01-.9,2.01-2.01,2.01-2.01-.9-2.01-2.01" fill="none" stroke="#414042" stroke-miterlimit="10" stroke-width="1.01"></path><path d="M174.52,25.41c-.12-.99.59-1.9,1.58-2.01.14-.02.29-.02.43,0,.95-.16,1.86.49,2.01,1.44.03.19.03.38,0,.57.13.98-.56,1.88-1.54,2.01-.16.02-.32.02-.48,0-1.01.11-1.91-.62-2.01-1.63-.01-.13-.01-.26,0-.38" fill="#414042"></path><path d="M174.52,25.41c-.12-.99.59-1.9,1.58-2.01.14-.02.29-.02.43,0,.95-.16,1.86.49,2.01,1.44.03.19.03.38,0,.57.13.98-.56,1.88-1.54,2.01-.16.02-.32.02-.48,0-1.01.11-1.91-.62-2.01-1.63-.01-.13-.01-.26,0-.38" fill="none" stroke="#414042" stroke-miterlimit="10" stroke-width="1.01"></path><path d="M179.5,31.89c0-1.11.9-2.01,2.01-2.01s2.01.9,2.01,2.01-.9,2.01-2.01,2.01-2.01-.9-2.01-2.01" fill="#414042"></path><path d="M179.5,31.89c0-1.11.9-2.01,2.01-2.01s2.01.9,2.01,2.01-.9,2.01-2.01,2.01-2.01-.9-2.01-2.01" fill="none" stroke="#414042" stroke-miterlimit="10" stroke-width="1.01"></path><path d="M184.75,37.07c0-1.35.68-2.01,2.01-2.01.95-.16,1.86.49,2.01,1.44.03.19.03.38,0,.57.13.98-.56,1.88-1.54,2.01-.16.02-.32.02-.48,0-1.01.11-1.91-.62-2.01-1.63-.01-.13-.01-.26,0-.38" fill="#414042"></path><path d="M184.75,37.07c0-1.35.68-2.01,2.01-2.01.95-.16,1.86.49,2.01,1.44.03.19.03.38,0,.57.13.98-.56,1.88-1.54,2.01-.16.02-.32.02-.48,0-1.01.11-1.91-.62-2.01-1.63-.01-.13-.01-.26,0-.38" fill="none" stroke="#414042" stroke-miterlimit="10" stroke-width="1.01"></path><path d="M193.27,31.89c0-1.11-.9-2.01-2.01-2.01s-2.01.9-2.01,2.01.9,2.01,2.01,2.01c.98.13,1.88-.56,2.01-1.54.02-.16.02-.32,0-.47" fill="#414042"></path><path d="M193.27,31.89c0-1.11-.9-2.01-2.01-2.01s-2.01.9-2.01,2.01.9,2.01,2.01,2.01c.98.13,1.88-.56,2.01-1.54.02-.16.02-.32,0-.47" fill="none" stroke="#414042" stroke-miterlimit="10" stroke-width="1.01"></path><path d="M198.16,25.41c.12-.99-.59-1.9-1.58-2.01-.14-.02-.29-.02-.43,0-.97-.14-1.87.52-2.01,1.49-.03.17-.03.35,0,.52-.13.98.56,1.88,1.54,2.01.16.02.32.02.48,0,1.01.11,1.91-.62,2.01-1.63.01-.13.01-.26,0-.38" fill="#414042"></path><path d="M198.16,25.41c.12-.99-.59-1.9-1.58-2.01-.14-.02-.29-.02-.43,0-.97-.14-1.87.52-2.01,1.49-.03.17-.03.35,0,.52-.13.98.56,1.88,1.54,2.01.16.02.32.02.48,0,1.01.11,1.91-.62,2.01-1.63.01-.13.01-.26,0-.38" fill="none" stroke="#414042" stroke-miterlimit="10" stroke-width="1.01"></path><path d="M202.99,18.95c0-1.11-.9-2.01-2.01-2.01s-2.01.9-2.01,2.01.9,2.01,2.01,2.01c.97.14,1.87-.52,2.01-1.49.03-.17.03-.35,0-.52" fill="#414042"></path><path d="M202.99,18.95c0-1.11-.9-2.01-2.01-2.01s-2.01.9-2.01,2.01.9,2.01,2.01,2.01c.97.14,1.87-.52,2.01-1.49.03-.17.03-.35,0-.52" fill="none" stroke="#414042" stroke-miterlimit="10" stroke-width="1.01"></path><path d="M207.87,12.44c.14-.97-.52-1.87-1.49-2.01-.17-.03-.35-.03-.52,0-1.11,0-2.01.9-2.01,2.01s.9,2.01,2.01,2.01c.97.15,1.87-.52,2.01-1.49.03-.17.03-.35,0-.52" fill="#414042"></path><path d="M207.87,12.44c.14-.97-.52-1.87-1.49-2.01-.17-.03-.35-.03-.52,0-1.11,0-2.01.9-2.01,2.01s.9,2.01,2.01,2.01c.97.15,1.87-.52,2.01-1.49.03-.17.03-.35,0-.52" fill="none" stroke="#414042" stroke-miterlimit="10" stroke-width="1.01"></path><path d="M212.74,5.94c0-1.11-.9-2.01-2.01-2.01s-2.01.9-2.01,2.01.9,2.01,2.01,2.01,2.01-.9,2.01-2.01" fill="#414042"></path><path d="M212.74,5.94c0-1.11-.9-2.01-2.01-2.01s-2.01.9-2.01,2.01.9,2.01,2.01,2.01,2.01-.9,2.01-2.01" fill="none" stroke="#414042" stroke-miterlimit="10" stroke-width="1.01"></path><path d="M170.17,62.66c.11-1.01-.62-1.91-1.63-2.01-.13-.01-.25-.01-.38,0-.99-.12-1.9.59-2.01,1.58-.02.14-.02.29,0,.43-.16.95.49,1.86,1.44,2.01.19.03.38.03.57,0,.98.13,1.88-.56,2.01-1.54.02-.16.02-.32,0-.47" fill="#414042"></path><path d="M170.17,62.66c.11-1.01-.62-1.91-1.63-2.01-.13-.01-.25-.01-.38,0-.99-.12-1.9.59-2.01,1.58-.02.14-.02.29,0,.43-.16.95.49,1.86,1.44,2.01.19.03.38.03.57,0,.98.13,1.88-.56,2.01-1.54.02-.16.02-.32,0-.47" fill="none" stroke="#414042" stroke-miterlimit="10" stroke-width="1.01"></path><path d="M175.03,56.17c.12-.99-.59-1.9-1.58-2.01-.14-.02-.29-.02-.43,0-1.11,0-2.01.9-2.01,2.01s.9,2.01,2.01,2.01c.98.13,1.88-.56,2.01-1.54.02-.16.02-.32,0-.47" fill="#414042"></path><path d="M175.03,56.17c.12-.99-.59-1.9-1.58-2.01-.14-.02-.29-.02-.43,0-1.11,0-2.01.9-2.01,2.01s.9,2.01,2.01,2.01c.98.13,1.88-.56,2.01-1.54.02-.16.02-.32,0-.47" fill="none" stroke="#414042" stroke-miterlimit="10" stroke-width="1.01"></path><path d="M179.84,49.67c0-1.11-.9-2.01-2.01-2.01s-2.01.9-2.01,2.01.9,2.01,2.01,2.01,2.01-.9,2.01-2.01" fill="#414042"></path><path d="M179.84,49.67c0-1.11-.9-2.01-2.01-2.01s-2.01.9-2.01,2.01.9,2.01,2.01,2.01,2.01-.9,2.01-2.01" fill="none" stroke="#414042" stroke-miterlimit="10" stroke-width="1.01"></path><path d="M184.75,43.11c.13-.98-.56-1.88-1.54-2.01-.16-.02-.32-.02-.47,0-1.11,0-2.01.9-2.01,2.01s.9,2.01,2.01,2.01c.97.15,1.87-.52,2.01-1.49.03-.17.03-.35,0-.52" fill="#414042"></path><path d="M184.75,43.11c.13-.98-.56-1.88-1.54-2.01-.16-.02-.32-.02-.47,0-1.11,0-2.01.9-2.01,2.01s.9,2.01,2.01,2.01c.97.15,1.87-.52,2.01-1.49.03-.17.03-.35,0-.52" fill="none" stroke="#414042" stroke-miterlimit="10" stroke-width="1.01"></path><path d="M236.33,33.04c0,1.35-.68,2.01-2.01,2.01-.95.16-1.86-.49-2.01-1.44-.03-.19-.03-.38,0-.57-.13-.98.56-1.88,1.54-2.01.16-.02.32-.02.47,0,1.01-.11,1.91.62,2.01,1.63.01.13.01.26,0,.38M237.48,24.99c.11,1.01-.62,1.91-1.63,2.01-.13.01-.26.01-.38,0-.98.13-1.88-.56-2.01-1.54-.02-.16-.02-.32,0-.47-.16-.95.49-1.86,1.44-2.01.19-.03.38-.03.57,0,.98-.13,1.88.56,2.01,1.54.02.16.02.32,0,.47M237.48,40.95c0-1.35-.71-2.01-2.01-2.01s-2.01.62-2.01,2.01c-.12.99.59,1.9,1.58,2.01.14.02.29.02.43,0,1.02.09,1.92-.66,2.01-1.68,0-.11,0-.22,0-.34M240.6,17.54c.16.95-.49,1.86-1.44,2.01-.19.03-.38.03-.57,0-.98.13-1.88-.56-2.01-1.54-.02-.16-.02-.32,0-.47-.1-1.01.62-1.91,1.63-2.01.13-.01.26-.01.38,0,.98-.13,1.88.56,2.01,1.54.02.16.02.32,0,.47M240.6,48.36c.13-.98-.56-1.88-1.54-2.01-.16-.02-.32-.02-.47,0-1.01-.11-1.91.62-2.01,1.63-.01.13-.01.26,0,.38-.12.99.59,1.9,1.59,2.01.14.02.29.02.43,0,.95.16,1.86-.49,2.01-1.44.03-.19.03-.38,0-.57M245.74,11.28c.1,1.01-.62,1.91-1.63,2.01-.13.01-.26.01-.38,0-.98.13-1.88-.56-2.01-1.54-.02-.16-.02-.32,0-.47-.16-.95.49-1.86,1.44-2.01.19-.03.38-.03.57,0,1.37,0,2.01.64,2.01,2.01M245.74,54.6c.12-.99-.59-1.9-1.59-2.01-.14-.02-.29-.02-.43,0-1.11,0-2.01.9-2.01,2.01s.9,2.01,2.01,2.01c.98.13,1.88-.56,2.01-1.54.02-.16.02-.32,0-.47M252.32,6.7c.16.96-.49,1.86-1.44,2.01-.19.03-.38.03-.57,0-.98.13-1.88-.56-2.01-1.54-.02-.16-.02-.32,0-.48-.11-1.01.62-1.91,1.63-2.01.13-.01.26-.01.38,0,.98-.13,1.88.56,2.01,1.54.02.16.02.32,0,.47M252.32,59.4c.16-.95-.49-1.86-1.44-2.01-.19-.03-.38-.03-.57,0-1.37,0-2.01.64-2.01,2.01-.11,1.01.62,1.91,1.63,2.01.13.01.26.01.38,0,.98.13,1.88-.56,2.01-1.54.02-.16.02-.32,0-.47M259.89,4.01c.13.98-.56,1.88-1.54,2.01-.16.02-.32.02-.47,0-.99.12-1.89-.59-2.01-1.58-.02-.14-.02-.29,0-.43-.11-1.01.62-1.91,1.63-2.01.13-.01.26-.01.38,0,.98-.13,1.88.56,2.01,1.54.02.16.02.32,0,.48M259.89,62.17c.12-.99-.59-1.9-1.58-2.01-.14-.02-.29-.02-.43,0-1.01-.11-1.91.62-2.01,1.63-.01.13-.01.26,0,.38-.13.98.56,1.88,1.54,2.01.16.02.32.02.47,0,.96.16,1.86-.49,2.01-1.44.03-.19.03-.38,0-.57M263.27,33.04c-.17.94.45,1.84,1.39,2.01.21.04.42.04.62,0,.98.13,1.88-.56,2.01-1.54.02-.16.02-.32,0-.47.11-1.01-.62-1.91-1.63-2.01-.13-.01-.26-.01-.38,0-1.37,0-2.01.7-2.01,2.01M263.98,3.34c0,1.11.9,2.01,2.01,2.01s2.01-.9,2.01-2.01-.9-2.01-2.01-2.01-2.01.9-2.01,2.01M268.01,62.72c0-1.11-.9-2.01-2.01-2.01s-2.01.9-2.01,2.01.9,2.01,2.01,2.01,2.01-.9,2.01-2.01M271.39,33.04c-.17.94.45,1.84,1.39,2.01.21.04.42.04.62,0,1.37,0,2.01-.64,2.01-2.01.11-1.01-.62-1.91-1.63-2.01-.13-.01-.26-.01-.38,0-1.35,0-2.01.7-2.01,2.01M272.09,3.99c0,1.11.9,2.01,2.01,2.01s2.01-.9,2.01-2.01-.9-2.01-2.01-2.01-2.01.9-2.01,2.01M272.09,62.15c0-1.11.9-2.01,2.01-2.01s2.01.9,2.01,2.01-.9,2.01-2.01,2.01-2.01-.9-2.01-2.01M279.5,33.04c-.16.95.49,1.86,1.44,2.01.19.03.38.03.57,0,.98.13,1.88-.56,2.01-1.54.02-.16.02-.32,0-.47.11-1.01-.62-1.91-1.63-2.01-.13-.01-.26-.01-.38,0-.98-.13-1.88.56-2.01,1.54-.02.16-.02.32,0,.47M279.64,6.68c-.16.95.49,1.86,1.44,2.01.19.03.38.03.57,0,.99.12,1.9-.59,2.01-1.59.02-.14.02-.29,0-.43.09-1.02-.66-1.92-1.68-2.01-.11-.01-.23-.01-.34,0-.98-.13-1.88.56-2.01,1.54-.02.16-.02.32,0,.47M279.64,59.38c-.16-.95.49-1.86,1.44-2.01.19-.03.38-.03.57,0,.99-.12,1.9.59,2.01,1.58.02.14.02.29,0,.43.09,1.02-.66,1.92-1.68,2.01-.11.01-.23.01-.34,0-.98.13-1.88-.56-2.01-1.54-.02-.16-.02-.32,0-.48M286.27,11.36c-.11,1.01.62,1.91,1.63,2.01.13.01.26.01.38,0,.98.13,1.88-.56,2.01-1.54.02-.16.02-.32,0-.48.16-.95-.49-1.86-1.44-2.01-.19-.03-.38-.03-.57,0-.98-.13-1.88.56-2.01,1.54-.02.16-.02.32,0,.47M286.27,54.68c-.12-.99.59-1.9,1.58-2.01.14-.02.29-.02.43,0,1.11,0,2.01.9,2.01,2.01s-.9,2.01-2.01,2.01c-.99.12-1.9-.59-2.01-1.59-.02-.14-.02-.29,0-.43M287.6,33.04c-.16.95.49,1.86,1.44,2.01.19.03.38.03.57,0,.98.13,1.88-.56,2.01-1.54.02-.16.02-.32,0-.47.11-1.01-.62-1.91-1.63-2.01-.13-.01-.26-.01-.38,0-.98-.13-1.88.56-2.01,1.54-.02.16-.02.32,0,.47M291.4,48.44c-.13-.98.56-1.88,1.54-2.01.16-.02.32-.02.47,0,1.01-.1,1.91.62,2.01,1.63.01.13.01.26,0,.38.12.99-.59,1.9-1.59,2.01-.14.02-.29.02-.43,0-.95.16-1.86-.49-2.01-1.44-.03-.19-.03-.38,0-.57M294.6,41.09c0-1.35.71-2.01,2.01-2.01.94-.17,1.84.45,2.01,1.39.04.21.04.42,0,.62.12.99-.59,1.9-1.59,2.01-.14.02-.29.02-.43,0-1.02.09-1.92-.66-2.01-1.68,0-.11,0-.22,0-.34M295.77,33.04c0,1.11.9,2.01,2.01,2.01s2.01-.9,2.01-2.01-.9-2.01-2.01-2.01-2.01.9-2.01,2.01" fill="#414042"></path><path d="M236.33,33.04c0,1.35-.68,2.01-2.01,2.01-.95.16-1.86-.49-2.01-1.44-.03-.19-.03-.38,0-.57-.13-.98.56-1.88,1.54-2.01.16-.02.32-.02.47,0,1.01-.11,1.91.62,2.01,1.63.01.13.01.26,0,.38M237.48,24.99c.11,1.01-.62,1.91-1.63,2.01-.13.01-.26.01-.38,0-.98.13-1.88-.56-2.01-1.54-.02-.16-.02-.32,0-.47-.16-.95.49-1.86,1.44-2.01.19-.03.38-.03.57,0,.98-.13,1.88.56,2.01,1.54.02.16.02.32,0,.47M237.48,40.95c0-1.35-.71-2.01-2.01-2.01s-2.01.62-2.01,2.01c-.12.99.59,1.9,1.58,2.01.14.02.29.02.43,0,1.02.09,1.92-.66,2.01-1.68,0-.11,0-.22,0-.34M240.6,17.54c.16.95-.49,1.86-1.44,2.01-.19.03-.38.03-.57,0-.98.13-1.88-.56-2.01-1.54-.02-.16-.02-.32,0-.47-.1-1.01.62-1.91,1.63-2.01.13-.01.26-.01.38,0,.98-.13,1.88.56,2.01,1.54.02.16.02.32,0,.47M240.6,48.36c.13-.98-.56-1.88-1.54-2.01-.16-.02-.32-.02-.47,0-1.01-.11-1.91.62-2.01,1.63-.01.13-.01.26,0,.38-.12.99.59,1.9,1.59,2.01.14.02.29.02.43,0,.95.16,1.86-.49,2.01-1.44.03-.19.03-.38,0-.57M245.74,11.28c.1,1.01-.62,1.91-1.63,2.01-.13.01-.26.01-.38,0-.98.13-1.88-.56-2.01-1.54-.02-.16-.02-.32,0-.47-.16-.95.49-1.86,1.44-2.01.19-.03.38-.03.57,0,1.37,0,2.01.64,2.01,2.01M245.74,54.6c.12-.99-.59-1.9-1.59-2.01-.14-.02-.29-.02-.43,0-1.11,0-2.01.9-2.01,2.01s.9,2.01,2.01,2.01c.98.13,1.88-.56,2.01-1.54.02-.16.02-.32,0-.47M252.32,6.7c.16.96-.49,1.86-1.44,2.01-.19.03-.38.03-.57,0-.98.13-1.88-.56-2.01-1.54-.02-.16-.02-.32,0-.48-.11-1.01.62-1.91,1.63-2.01.13-.01.26-.01.38,0,.98-.13,1.88.56,2.01,1.54.02.16.02.32,0,.47M252.32,59.4c.16-.95-.49-1.86-1.44-2.01-.19-.03-.38-.03-.57,0-1.37,0-2.01.64-2.01,2.01-.11,1.01.62,1.91,1.63,2.01.13.01.26.01.38,0,.98.13,1.88-.56,2.01-1.54.02-.16.02-.32,0-.47M259.89,4.01c.13.98-.56,1.88-1.54,2.01-.16.02-.32.02-.47,0-.99.12-1.89-.59-2.01-1.58-.02-.14-.02-.29,0-.43-.11-1.01.62-1.91,1.63-2.01.13-.01.26-.01.38,0,.98-.13,1.88.56,2.01,1.54.02.16.02.32,0,.48M259.89,62.17c.12-.99-.59-1.9-1.58-2.01-.14-.02-.29-.02-.43,0-1.01-.11-1.91.62-2.01,1.63-.01.13-.01.26,0,.38-.13.98.56,1.88,1.54,2.01.16.02.32.02.47,0,.96.16,1.86-.49,2.01-1.44.03-.19.03-.38,0-.57M263.27,33.04c-.17.94.45,1.84,1.39,2.01.21.04.42.04.62,0,.98.13,1.88-.56,2.01-1.54.02-.16.02-.32,0-.47.11-1.01-.62-1.91-1.63-2.01-.13-.01-.26-.01-.38,0-1.37,0-2.01.7-2.01,2.01M263.98,3.34c0,1.11.9,2.01,2.01,2.01s2.01-.9,2.01-2.01-.9-2.01-2.01-2.01-2.01.9-2.01,2.01M268.01,62.72c0-1.11-.9-2.01-2.01-2.01s-2.01.9-2.01,2.01.9,2.01,2.01,2.01,2.01-.9,2.01-2.01M271.39,33.04c-.17.94.45,1.84,1.39,2.01.21.04.42.04.62,0,1.37,0,2.01-.64,2.01-2.01.11-1.01-.62-1.91-1.63-2.01-.13-.01-.26-.01-.38,0-1.35,0-2.01.7-2.01,2.01M272.09,3.99c0,1.11.9,2.01,2.01,2.01s2.01-.9,2.01-2.01-.9-2.01-2.01-2.01-2.01.9-2.01,2.01M272.09,62.15c0-1.11.9-2.01,2.01-2.01s2.01.9,2.01,2.01-.9,2.01-2.01,2.01-2.01-.9-2.01-2.01M279.5,33.04c-.16.95.49,1.86,1.44,2.01.19.03.38.03.57,0,.98.13,1.88-.56,2.01-1.54.02-.16.02-.32,0-.47.11-1.01-.62-1.91-1.63-2.01-.13-.01-.26-.01-.38,0-.98-.13-1.88.56-2.01,1.54-.02.16-.02.32,0,.47M279.64,6.68c-.16.95.49,1.86,1.44,2.01.19.03.38.03.57,0,.99.12,1.9-.59,2.01-1.59.02-.14.02-.29,0-.43.09-1.02-.66-1.92-1.68-2.01-.11-.01-.23-.01-.34,0-.98-.13-1.88.56-2.01,1.54-.02.16-.02.32,0,.47M279.64,59.38c-.16-.95.49-1.86,1.44-2.01.19-.03.38-.03.57,0,.99-.12,1.9.59,2.01,1.58.02.14.02.29,0,.43.09,1.02-.66,1.92-1.68,2.01-.11.01-.23.01-.34,0-.98.13-1.88-.56-2.01-1.54-.02-.16-.02-.32,0-.48M286.27,11.36c-.11,1.01.62,1.91,1.63,2.01.13.01.26.01.38,0,.98.13,1.88-.56,2.01-1.54.02-.16.02-.32,0-.48.16-.95-.49-1.86-1.44-2.01-.19-.03-.38-.03-.57,0-.98-.13-1.88.56-2.01,1.54-.02.16-.02.32,0,.47M286.27,54.68c-.12-.99.59-1.9,1.58-2.01.14-.02.29-.02.43,0,1.11,0,2.01.9,2.01,2.01s-.9,2.01-2.01,2.01c-.99.12-1.9-.59-2.01-1.59-.02-.14-.02-.29,0-.43M287.6,33.04c-.16.95.49,1.86,1.44,2.01.19.03.38.03.57,0,.98.13,1.88-.56,2.01-1.54.02-.16.02-.32,0-.47.11-1.01-.62-1.91-1.63-2.01-.13-.01-.26-.01-.38,0-.98-.13-1.88.56-2.01,1.54-.02.16-.02.32,0,.47M291.4,48.44c-.13-.98.56-1.88,1.54-2.01.16-.02.32-.02.47,0,1.01-.1,1.91.62,2.01,1.63.01.13.01.26,0,.38.12.99-.59,1.9-1.59,2.01-.14.02-.29.02-.43,0-.95.16-1.86-.49-2.01-1.44-.03-.19-.03-.38,0-.57M294.6,41.09c0-1.35.71-2.01,2.01-2.01.94-.17,1.84.45,2.01,1.39.04.21.04.42,0,.62.12.99-.59,1.9-1.59,2.01-.14.02-.29.02-.43,0-1.02.09-1.92-.66-2.01-1.68,0-.11,0-.22,0-.34M295.77,33.04c0,1.11.9,2.01,2.01,2.01s2.01-.9,2.01-2.01-.9-2.01-2.01-2.01-2.01.9-2.01,2.01" fill="none" stroke="#414042" stroke-miterlimit="10" stroke-width="1.01"></path><path d="M300.32,61.51c0-1.11.9-2.01,2.01-2.01s2.01.9,2.01,2.01-.9,2.01-2.01,2.01-2.01-.9-2.01-2.01M304.15,54.32c-.12-.99.59-1.9,1.58-2.01.14-.02.29-.02.43,0,1.02-.09,1.92.66,2.01,1.68.01.11.01.23,0,.34.13.98-.56,1.88-1.54,2.01-.16.02-.32.02-.47,0-.95.16-1.86-.49-2.01-1.44-.03-.19-.03-.38,0-.57M307.95,47.13c0-1.11.9-2.01,2.01-2.01s2.01.9,2.01,2.01-.9,2.01-2.01,2.01-2.01-.9-2.01-2.01M311.74,40.01c-.09-1.02.66-1.92,1.68-2.01.11-.01.23-.01.34,0,.99-.12,1.89.59,2.01,1.58.02.14.02.29,0,.43.16.95-.49,1.86-1.44,2.01-.19.03-.38.03-.57,0-1.37,0-2.01-.64-2.01-2.01M315.54,32.76c-.12-.99.59-1.9,1.58-2.01.14-.02.29-.02.43,0,.97-.14,1.87.52,2.01,1.49.03.17.03.35,0,.52.12.99-.59,1.9-1.59,2.01-.14.02-.29.02-.43,0-1.01.1-1.91-.62-2.01-1.63-.01-.13-.01-.26,0-.38M323.43,39.89c.12-.99-.59-1.9-1.58-2.01-.14-.02-.29-.02-.43,0-.94-.17-1.84.45-2.01,1.39-.04.21-.04.42,0,.62-.16.95.49,1.86,1.44,2.01.19.03.38.03.57,0,1.03.08,1.93-.69,2.01-1.72,0-.1,0-.2,0-.29M319.41,25.61c0-1.11.9-2.01,2.01-2.01s2.01.9,2.01,2.01-.9,2.01-2.01,2.01-2.01-.9-2.01-2.01M323.21,18.48c-.14-.97.52-1.87,1.49-2.01.17-.03.35-.03.52,0,.99-.12,1.9.59,2.01,1.58.02.14.02.29,0,.43.1,1.01-.62,1.91-1.63,2.01-.13.01-.25.01-.38,0-.98.13-1.88-.56-2.01-1.54-.02-.16-.02-.32,0-.47M326.94,11.34c0-1.11.9-2.01,2.01-2.01s2.01.9,2.01,2.01-.9,2.01-2.01,2.01-2.01-.9-2.01-2.01M330.97,39.89c.17-.94-.45-1.84-1.39-2.01-.21-.04-.42-.04-.62,0-1.11,0-2.01.9-2.01,2.01s.9,2.01,2.01,2.01c.99.12,1.89-.59,2.01-1.58.02-.14.02-.29,0-.43M334.87,4.19c0-1.11-.9-2.01-2.01-2.01s-2.01.9-2.01,2.01c-.14.98.54,1.89,1.52,2.03.2.03.4.02.59-.02,1.35,0,2.01-.66,2.01-2.01M338.76,11.34c0-1.37-.68-2.01-2.01-2.01-.95-.16-1.86.49-2.01,1.44-.03.19-.03.38,0,.57-.07,1.04.72,1.94,1.76,2.01.08,0,.17,0,.25,0,.97.14,1.87-.52,2.01-1.49.03-.17.03-.35,0-.52M338.76,39.93c.17-.94-.45-1.84-1.39-2.01-.21-.04-.41-.04-.62,0-.99-.12-1.9.59-2.01,1.59-.02.14-.02.29,0,.43-.09,1.02.66,1.92,1.68,2.01.11.01.23.01.34,0,.98.13,1.88-.56,2.01-1.54.02-.16.02-.32,0-.47M342.56,18.46c.18-.93-.42-1.83-1.34-2.01-.22-.04-.45-.04-.67,0-.99-.12-1.9.59-2.01,1.59-.02.14-.02.29,0,.43,0,1.11.9,2.01,2.01,2.02.03,0,.07,0,.1,0,.98.13,1.88-.56,2.01-1.54.02-.16.02-.32,0-.47M346.47,25.65c.16-.95-.49-1.86-1.44-2.01-.19-.03-.38-.03-.57,0-1.11,0-2.01.9-2.01,2.01s.9,2.01,2.01,2.01c.94.17,1.84-.45,2.01-1.39.04-.2.04-.41,0-.62M346.47,39.93c.18-.93-.42-1.83-1.34-2.01-.22-.04-.45-.04-.67,0-1.01-.11-1.91.62-2.01,1.63-.01.13-.01.26,0,.38-.09,1.02.66,1.92,1.68,2.01.11.01.23.01.34,0,.97.14,1.87-.52,2.01-1.49.03-.17.03-.35,0-.52M350.29,32.8c.13-.98-.56-1.88-1.54-2.01-.16-.02-.32-.02-.47,0-1.02-.09-1.92.66-2.01,1.68-.01.11-.01.22,0,.34,0,1.35.77,2.01,2.01,2.01s2.01-.7,2.01-2.01M354.12,39.93c.16-.95-.49-1.86-1.44-2.01-.19-.03-.38-.03-.57,0-.99-.12-1.9.59-2.01,1.59-.02.14-.02.29,0,.43-.16.95.49,1.86,1.44,2.01.19.03.38.03.57,0,1.04.07,1.95-.72,2.01-1.76,0-.08,0-.17,0-.25M357.92,47.17c0-1.35-.72-2.01-2.01-2.01-.99-.12-1.89.59-2.01,1.59-.02.14-.02.29,0,.43,0,1.11.9,2.01,2.01,2.01s2.01-.9,2.01-2.01M361.71,54.32c.07-1.04-.72-1.94-1.76-2.01-.08,0-.17,0-.25,0-.99-.13-1.9.58-2.03,1.57-.02.18-.02.36.01.54,0,1.11.9,2.01,2.01,2.01s2.01-.9,2.01-2.01M365.54,61.55c.14-.97-.52-1.87-1.49-2.01-.17-.03-.35-.03-.52,0-.91-.2-1.81.38-2.01,1.29-.05.24-.05.48,0,.72-.12.99.59,1.9,1.59,2.01.14.02.28.02.43,0,1.03.08,1.93-.69,2.01-1.72,0-.1,0-.19,0-.29" fill="#414042"></path><path d="M300.32,61.51c0-1.11.9-2.01,2.01-2.01s2.01.9,2.01,2.01-.9,2.01-2.01,2.01-2.01-.9-2.01-2.01M304.15,54.32c-.12-.99.59-1.9,1.58-2.01.14-.02.29-.02.43,0,1.02-.09,1.92.66,2.01,1.68.01.11.01.23,0,.34.13.98-.56,1.88-1.54,2.01-.16.02-.32.02-.47,0-.95.16-1.86-.49-2.01-1.44-.03-.19-.03-.38,0-.57M307.95,47.13c0-1.11.9-2.01,2.01-2.01s2.01.9,2.01,2.01-.9,2.01-2.01,2.01-2.01-.9-2.01-2.01M311.74,40.01c-.09-1.02.66-1.92,1.68-2.01.11-.01.23-.01.34,0,.99-.12,1.89.59,2.01,1.58.02.14.02.29,0,.43.16.95-.49,1.86-1.44,2.01-.19.03-.38.03-.57,0-1.37,0-2.01-.64-2.01-2.01M315.54,32.76c-.12-.99.59-1.9,1.58-2.01.14-.02.29-.02.43,0,.97-.14,1.87.52,2.01,1.49.03.17.03.35,0,.52.12.99-.59,1.9-1.59,2.01-.14.02-.29.02-.43,0-1.01.1-1.91-.62-2.01-1.63-.01-.13-.01-.26,0-.38M323.43,39.89c.12-.99-.59-1.9-1.58-2.01-.14-.02-.29-.02-.43,0-.94-.17-1.84.45-2.01,1.39-.04.21-.04.42,0,.62-.16.95.49,1.86,1.44,2.01.19.03.38.03.57,0,1.03.08,1.93-.69,2.01-1.72,0-.1,0-.2,0-.29M319.41,25.61c0-1.11.9-2.01,2.01-2.01s2.01.9,2.01,2.01-.9,2.01-2.01,2.01-2.01-.9-2.01-2.01M323.21,18.48c-.14-.97.52-1.87,1.49-2.01.17-.03.35-.03.52,0,.99-.12,1.9.59,2.01,1.58.02.14.02.29,0,.43.1,1.01-.62,1.91-1.63,2.01-.13.01-.25.01-.38,0-.98.13-1.88-.56-2.01-1.54-.02-.16-.02-.32,0-.47M326.94,11.34c0-1.11.9-2.01,2.01-2.01s2.01.9,2.01,2.01-.9,2.01-2.01,2.01-2.01-.9-2.01-2.01M330.97,39.89c.17-.94-.45-1.84-1.39-2.01-.21-.04-.42-.04-.62,0-1.11,0-2.01.9-2.01,2.01s.9,2.01,2.01,2.01c.99.12,1.89-.59,2.01-1.58.02-.14.02-.29,0-.43M334.87,4.19c0-1.11-.9-2.01-2.01-2.01s-2.01.9-2.01,2.01c-.14.98.54,1.89,1.52,2.03.2.03.4.02.59-.02,1.35,0,2.01-.66,2.01-2.01M338.76,11.34c0-1.37-.68-2.01-2.01-2.01-.95-.16-1.86.49-2.01,1.44-.03.19-.03.38,0,.57-.07,1.04.72,1.94,1.76,2.01.08,0,.17,0,.25,0,.97.14,1.87-.52,2.01-1.49.03-.17.03-.35,0-.52M338.76,39.93c.17-.94-.45-1.84-1.39-2.01-.21-.04-.41-.04-.62,0-.99-.12-1.9.59-2.01,1.59-.02.14-.02.29,0,.43-.09,1.02.66,1.92,1.68,2.01.11.01.23.01.34,0,.98.13,1.88-.56,2.01-1.54.02-.16.02-.32,0-.47M342.56,18.46c.18-.93-.42-1.83-1.34-2.01-.22-.04-.45-.04-.67,0-.99-.12-1.9.59-2.01,1.59-.02.14-.02.29,0,.43,0,1.11.9,2.01,2.01,2.02.03,0,.07,0,.1,0,.98.13,1.88-.56,2.01-1.54.02-.16.02-.32,0-.47M346.47,25.65c.16-.95-.49-1.86-1.44-2.01-.19-.03-.38-.03-.57,0-1.11,0-2.01.9-2.01,2.01s.9,2.01,2.01,2.01c.94.17,1.84-.45,2.01-1.39.04-.2.04-.41,0-.62M346.47,39.93c.18-.93-.42-1.83-1.34-2.01-.22-.04-.45-.04-.67,0-1.01-.11-1.91.62-2.01,1.63-.01.13-.01.26,0,.38-.09,1.02.66,1.92,1.68,2.01.11.01.23.01.34,0,.97.14,1.87-.52,2.01-1.49.03-.17.03-.35,0-.52M350.29,32.8c.13-.98-.56-1.88-1.54-2.01-.16-.02-.32-.02-.47,0-1.02-.09-1.92.66-2.01,1.68-.01.11-.01.22,0,.34,0,1.35.77,2.01,2.01,2.01s2.01-.7,2.01-2.01M354.12,39.93c.16-.95-.49-1.86-1.44-2.01-.19-.03-.38-.03-.57,0-.99-.12-1.9.59-2.01,1.59-.02.14-.02.29,0,.43-.16.95.49,1.86,1.44,2.01.19.03.38.03.57,0,1.04.07,1.95-.72,2.01-1.76,0-.08,0-.17,0-.25M357.92,47.17c0-1.35-.72-2.01-2.01-2.01-.99-.12-1.89.59-2.01,1.59-.02.14-.02.29,0,.43,0,1.11.9,2.01,2.01,2.01s2.01-.9,2.01-2.01M361.71,54.32c.07-1.04-.72-1.94-1.76-2.01-.08,0-.17,0-.25,0-.99-.13-1.9.58-2.03,1.57-.02.18-.02.36.01.54,0,1.11.9,2.01,2.01,2.01s2.01-.9,2.01-2.01M365.54,61.55c.14-.97-.52-1.87-1.49-2.01-.17-.03-.35-.03-.52,0-.91-.2-1.81.38-2.01,1.29-.05.24-.05.48,0,.72-.12.99.59,1.9,1.59,2.01.14.02.28.02.43,0,1.03.08,1.93-.69,2.01-1.72,0-.1,0-.19,0-.29" fill="none" stroke="#414042" stroke-miterlimit="10" stroke-width="1.01"></path><path d="M374.19,4.65c0-1.35.68-2.01,2.01-2.01.95-.16,1.86.49,2.01,1.44.03.19.03.38,0,.57.13.98-.56,1.88-1.54,2.01-.16.02-.32.02-.47,0-1.01.1-1.91-.62-2.01-1.63-.01-.13-.01-.26,0-.38M376.21,14.72c-.99.12-1.9-.59-2.01-1.58-.02-.14-.02-.29,0-.43-.13-.98.56-1.88,1.54-2.01.16-.02.32-.02.47,0,.97-.14,1.87.52,2.01,1.49.03.17.03.35,0,.52.13.98-.56,1.88-1.54,2.01-.16.02-.32.02-.47,0M376.21,22.77c-1.11,0-2.01-.9-2.01-2.01s.9-2.01,2.01-2.01,2.01.9,2.01,2.01c.14.97-.52,1.87-1.49,2.01-.17.03-.35.03-.52,0M376.21,30.83c-1.11,0-2.01-.9-2.01-2.01s.9-2.01,2.01-2.01,2.01.9,2.01,2.01c.14.97-.52,1.87-1.49,2.01-.17.03-.35.03-.52,0M374.19,36.87c-.1-1.01.62-1.91,1.63-2.01.13-.01.26-.01.38,0,.98-.13,1.88.56,2.01,1.54.02.16.02.32,0,.47.14.97-.52,1.87-1.49,2.01-.17.03-.35.03-.52,0-.98.13-1.88-.56-2.01-1.54-.02-.16-.02-.32,0-.47M376.21,46.93c-1.37,0-2.01-.62-2.01-2.01-.1-1.01.62-1.91,1.63-2.01.13-.01.26-.01.38,0,.98-.13,1.88.56,2.01,1.54.02.16.02.32,0,.47.16.95-.49,1.86-1.44,2.01-.19.03-.38.03-.57,0M376.21,54.99c-1.37,0-2.01-.62-2.01-2.01-.1-1.01.62-1.91,1.63-2.01.13-.01.26-.01.38,0,.99-.12,1.9.59,2.01,1.59.02.14.02.29,0,.43.17.94-.45,1.84-1.39,2.01-.21.04-.41.04-.62,0M374.19,61.03c-.1-1.01.62-1.91,1.63-2.01.13-.01.26-.01.38,0,.98-.13,1.88.56,2.01,1.54.02.16.02.32,0,.47.16.95-.49,1.86-1.44,2.01-.19.03-.38.03-.57,0-1.37,0-2.01-.64-2.01-2.01M382.25,36.73c0-1.11.9-2.01,2.01-2.01s2.01.9,2.01,2.01-.9,2.01-2.01,2.01-2.01-.9-2.01-2.01M382.25,4.23c0-1.11.9-2.01,2.01-2.01s2.01.9,2.01,2.01-.9,2.01-2.01,2.01-2.01-.9-2.01-2.01M390.3,36.73c0-1.11.9-2.01,2.01-2.01s2.01.9,2.01,2.01-.9,2.01-2.01,2.01-2.01-.9-2.01-2.01M390.3,4.23c0-1.11.9-2.01,2.01-2.01s2.01.9,2.01,2.01-.9,2.01-2.01,2.01-2.01-.9-2.01-2.01M395.58,42.85c0-1.11.9-2.01,2.01-2.01s2.01.9,2.01,2.01c0,1.37-.66,2.01-2.01,2.01-.95.16-1.86-.49-2.01-1.44-.03-.19-.03-.38,0-.57M398.25,36.28c-.13-.98.56-1.88,1.54-2.01.16-.02.32-.02.47,0,.99-.12,1.9.59,2.01,1.59.02.14.02.29,0,.43.14.97-.52,1.87-1.49,2.01-.17.03-.35.03-.52,0-.95.16-1.86-.49-2.01-1.44-.03-.19-.03-.38,0-.57M398.25,5.05c-.12-.99.59-1.89,1.59-2.01.14-.02.29-.02.43,0,.97-.14,1.87.52,2.01,1.49.03.17.03.35,0,.52.16.95-.49,1.86-1.44,2.01-.19.03-.38.03-.57,0-.99.12-1.89-.59-2.01-1.58-.02-.14-.02-.29,0-.43M400.87,48.91c-.16-.95.49-1.86,1.44-2.01.19-.03.38-.03.57,0,.98-.13,1.88.56,2.01,1.54.02.16.02.32,0,.47.09,1.02-.66,1.92-1.68,2.01-.11.01-.22.01-.34,0-.99.12-1.9-.59-2.01-1.59-.02-.14-.02-.29,0-.43M404.9,9.56c-.16-.95.49-1.86,1.44-2.01.19-.03.38-.03.57,0,.98-.13,1.88.56,2.01,1.54.02.16.02.32,0,.47.1,1.01-.62,1.91-1.63,2.01-.13.01-.26.01-.38,0-1.35,0-2.01-.68-2.01-2.01M404.9,32.05c0-1.11.9-2.01,2.01-2.01s2.01.9,2.01,2.01-.9,2.01-2.01,2.01-2.01-.9-2.01-2.01M406.11,55.03c0-1.11.9-2.01,2.01-2.01s2.01.9,2.01,2.01-.9,2.01-2.01,2.01-2.01-.9-2.01-2.01M408.32,16.77c-.16-.95.49-1.86,1.44-2.01.19-.03.38-.03.57,0,.99-.12,1.9.59,2.01,1.59.02.14.02.29,0,.43.11,1.01-.62,1.91-1.63,2.01-.13.01-.26.01-.38,0-.98.13-1.88-.56-2.01-1.54-.02-.16-.02-.32,0-.47M408.32,24.83c-.13-.98.56-1.88,1.54-2.01.16-.02.32-.02.47,0,.97-.14,1.87.52,2.01,1.49.03.17.03.35,0,.52.13.98-.56,1.88-1.54,2.01-.16.02-.32.02-.47,0-1.01.11-1.91-.62-2.01-1.63-.01-.13-.01-.26,0-.38M411.38,61.07c-.11-1.01.62-1.91,1.63-2.01.13-.01.26-.01.38,0,.99-.12,1.9.59,2.01,1.58.02.14.02.29,0,.43.16.95-.49,1.86-1.44,2.01-.19.03-.38.03-.57,0-.98.13-1.88-.56-2.01-1.54-.02-.16-.02-.32,0-.47" fill="#414042"></path><path d="M374.19,4.65c0-1.35.68-2.01,2.01-2.01.95-.16,1.86.49,2.01,1.44.03.19.03.38,0,.57.13.98-.56,1.88-1.54,2.01-.16.02-.32.02-.47,0-1.01.1-1.91-.62-2.01-1.63-.01-.13-.01-.26,0-.38M376.21,14.72c-.99.12-1.9-.59-2.01-1.58-.02-.14-.02-.29,0-.43-.13-.98.56-1.88,1.54-2.01.16-.02.32-.02.47,0,.97-.14,1.87.52,2.01,1.49.03.17.03.35,0,.52.13.98-.56,1.88-1.54,2.01-.16.02-.32.02-.47,0M376.21,22.77c-1.11,0-2.01-.9-2.01-2.01s.9-2.01,2.01-2.01,2.01.9,2.01,2.01c.14.97-.52,1.87-1.49,2.01-.17.03-.35.03-.52,0M376.21,30.83c-1.11,0-2.01-.9-2.01-2.01s.9-2.01,2.01-2.01,2.01.9,2.01,2.01c.14.97-.52,1.87-1.49,2.01-.17.03-.35.03-.52,0M374.19,36.87c-.1-1.01.62-1.91,1.63-2.01.13-.01.26-.01.38,0,.98-.13,1.88.56,2.01,1.54.02.16.02.32,0,.47.14.97-.52,1.87-1.49,2.01-.17.03-.35.03-.52,0-.98.13-1.88-.56-2.01-1.54-.02-.16-.02-.32,0-.47M376.21,46.93c-1.37,0-2.01-.62-2.01-2.01-.1-1.01.62-1.91,1.63-2.01.13-.01.26-.01.38,0,.98-.13,1.88.56,2.01,1.54.02.16.02.32,0,.47.16.95-.49,1.86-1.44,2.01-.19.03-.38.03-.57,0M376.21,54.99c-1.37,0-2.01-.62-2.01-2.01-.1-1.01.62-1.91,1.63-2.01.13-.01.26-.01.38,0,.99-.12,1.9.59,2.01,1.59.02.14.02.29,0,.43.17.94-.45,1.84-1.39,2.01-.21.04-.41.04-.62,0M374.19,61.03c-.1-1.01.62-1.91,1.63-2.01.13-.01.26-.01.38,0,.98-.13,1.88.56,2.01,1.54.02.16.02.32,0,.47.16.95-.49,1.86-1.44,2.01-.19.03-.38.03-.57,0-1.37,0-2.01-.64-2.01-2.01M382.25,36.73c0-1.11.9-2.01,2.01-2.01s2.01.9,2.01,2.01-.9,2.01-2.01,2.01-2.01-.9-2.01-2.01M382.25,4.23c0-1.11.9-2.01,2.01-2.01s2.01.9,2.01,2.01-.9,2.01-2.01,2.01-2.01-.9-2.01-2.01M390.3,36.73c0-1.11.9-2.01,2.01-2.01s2.01.9,2.01,2.01-.9,2.01-2.01,2.01-2.01-.9-2.01-2.01M390.3,4.23c0-1.11.9-2.01,2.01-2.01s2.01.9,2.01,2.01-.9,2.01-2.01,2.01-2.01-.9-2.01-2.01M395.58,42.85c0-1.11.9-2.01,2.01-2.01s2.01.9,2.01,2.01c0,1.37-.66,2.01-2.01,2.01-.95.16-1.86-.49-2.01-1.44-.03-.19-.03-.38,0-.57M398.25,36.28c-.13-.98.56-1.88,1.54-2.01.16-.02.32-.02.47,0,.99-.12,1.9.59,2.01,1.59.02.14.02.29,0,.43.14.97-.52,1.87-1.49,2.01-.17.03-.35.03-.52,0-.95.16-1.86-.49-2.01-1.44-.03-.19-.03-.38,0-.57M398.25,5.05c-.12-.99.59-1.89,1.59-2.01.14-.02.29-.02.43,0,.97-.14,1.87.52,2.01,1.49.03.17.03.35,0,.52.16.95-.49,1.86-1.44,2.01-.19.03-.38.03-.57,0-.99.12-1.89-.59-2.01-1.58-.02-.14-.02-.29,0-.43M400.87,48.91c-.16-.95.49-1.86,1.44-2.01.19-.03.38-.03.57,0,.98-.13,1.88.56,2.01,1.54.02.16.02.32,0,.47.09,1.02-.66,1.92-1.68,2.01-.11.01-.22.01-.34,0-.99.12-1.9-.59-2.01-1.59-.02-.14-.02-.29,0-.43M404.9,9.56c-.16-.95.49-1.86,1.44-2.01.19-.03.38-.03.57,0,.98-.13,1.88.56,2.01,1.54.02.16.02.32,0,.47.1,1.01-.62,1.91-1.63,2.01-.13.01-.26.01-.38,0-1.35,0-2.01-.68-2.01-2.01M404.9,32.05c0-1.11.9-2.01,2.01-2.01s2.01.9,2.01,2.01-.9,2.01-2.01,2.01-2.01-.9-2.01-2.01M406.11,55.03c0-1.11.9-2.01,2.01-2.01s2.01.9,2.01,2.01-.9,2.01-2.01,2.01-2.01-.9-2.01-2.01M408.32,16.77c-.16-.95.49-1.86,1.44-2.01.19-.03.38-.03.57,0,.99-.12,1.9.59,2.01,1.59.02.14.02.29,0,.43.11,1.01-.62,1.91-1.63,2.01-.13.01-.26.01-.38,0-.98.13-1.88-.56-2.01-1.54-.02-.16-.02-.32,0-.47M408.32,24.83c-.13-.98.56-1.88,1.54-2.01.16-.02.32-.02.47,0,.97-.14,1.87.52,2.01,1.49.03.17.03.35,0,.52.13.98-.56,1.88-1.54,2.01-.16.02-.32.02-.47,0-1.01.11-1.91-.62-2.01-1.63-.01-.13-.01-.26,0-.38M411.38,61.07c-.11-1.01.62-1.91,1.63-2.01.13-.01.26-.01.38,0,.99-.12,1.9.59,2.01,1.58.02.14.02.29,0,.43.16.95-.49,1.86-1.44,2.01-.19.03-.38.03-.57,0-.98.13-1.88-.56-2.01-1.54-.02-.16-.02-.32,0-.47" fill="none" stroke="#414042" stroke-miterlimit="10" stroke-width="1.01"></path><path d="M423.9,33.04c.16.95-.49,1.86-1.44,2.01-.19.03-.38.03-.57,0-.98.13-1.88-.56-2.01-1.54-.02-.16-.02-.32,0-.47-.11-1.01.62-1.91,1.63-2.01.13-.01.26-.01.38,0,.99-.12,1.9.59,2.01,1.58.02.14.02.29,0,.43M425.03,24.99c.13.98-.56,1.88-1.54,2.01-.16.02-.32.02-.47,0-.99.12-1.9-.59-2.01-1.58-.02-.14-.02-.29,0-.43-.14-.97.52-1.87,1.49-2.01.17-.03.35-.03.52,0,.96-.16,1.86.49,2.01,1.44.03.19.03.38,0,.57M425.03,40.95c.16-.95-.49-1.86-1.44-2.01-.19-.03-.38-.03-.57,0-.97-.14-1.87.52-2.01,1.49-.03.17-.03.35,0,.52-.11,1.01.62,1.91,1.63,2.01.13.01.26.01.38,0,.99.12,1.89-.59,2.01-1.59.02-.14.02-.29,0-.43M428.21,17.54c0,1.11-.9,2.01-2.01,2.01s-2.01-.9-2.01-2.01.9-2.01,2.01-2.01,2.01.9,2.01,2.01M428.21,48.36c0-1.11-.9-2.01-2.01-2.01s-2.01.9-2.01,2.01.9,2.01,2.01,2.01,2.01-.9,2.01-2.01M433.31,11.28c.13.98-.56,1.88-1.54,2.01-.16.02-.32.02-.48,0-.99.12-1.89-.59-2.01-1.59-.02-.14-.02-.29,0-.43-.14-.97.52-1.87,1.49-2.01.17-.03.35-.03.52,0,.96-.16,1.86.49,2.01,1.44.03.19.03.38,0,.57M433.31,54.6c.14-.97-.52-1.87-1.49-2.01-.17-.03-.35-.03-.52,0-1.11,0-2.01.9-2.01,2.01s.9,2.01,2.01,2.01c.97.14,1.87-.52,2.01-1.49.03-.17.03-.35,0-.52M439.97,6.6c0,1.11-.9,2.01-2.01,2.01s-2.01-.9-2.01-2.01.9-2.01,2.01-2.01,2.01.9,2.01,2.01M439.97,59.3c0-1.11-.9-2.01-2.01-2.01s-2.01.9-2.01,2.01.9,2.01,2.01,2.01,2.01-.9,2.01-2.01M447.62,4.01c.12.99-.59,1.9-1.59,2.01-.14.02-.29.02-.43,0-.98.13-1.88-.56-2.01-1.54-.02-.16-.02-.32,0-.47-.13-.98.56-1.88,1.54-2.01.16-.02.32-.02.48,0,1.01-.11,1.91.62,2.01,1.63.01.13.01.26,0,.38M447.62,62.18c.11-1.01-.62-1.91-1.63-2.01-.13-.01-.26-.01-.38,0-.99-.12-1.9.59-2.01,1.58-.02.14-.02.29,0,.43-.16.95.49,1.86,1.44,2.01.19.03.38.03.57,0,.98.13,1.88-.56,2.01-1.54.02-.16.02-.32,0-.47M451.65,3.36c-.14.97.52,1.87,1.49,2.01.17.03.35.03.52,0,.98.13,1.88-.56,2.01-1.54.02-.16.02-.32,0-.47.12-.99-.59-1.9-1.59-2.01-.14-.02-.28-.02-.43,0-.98-.13-1.88.56-2.01,1.54-.02.16-.02.32,0,.48M455.68,62.74c.11-1.01-.62-1.91-1.63-2.01-.13-.01-.26-.01-.38,0-.99-.12-1.9.59-2.01,1.58-.02.14-.02.29,0,.43-.16.95.49,1.86,1.44,2.01.19.03.38.03.57,0,1.37,0,2.01-.64,2.01-2.01M459.7,4.01c0,1.11.9,2.01,2.01,2.01s2.01-.9,2.01-2.01-.9-2.01-2.01-2.01-2.01.9-2.01,2.01M459.7,62.18c0-1.11.9-2.01,2.01-2.01s2.01.9,2.01,2.01-.9,2.01-2.01,2.01-2.01-.9-2.01-2.01M467.25,6.71c0,1.11.9,2.01,2.01,2.01s2.01-.9,2.01-2.01-.9-2.01-2.01-2.01-2.01.9-2.01,2.01M467.25,59.4c0-1.11.9-2.01,2.01-2.01s2.01.9,2.01,2.01-.9,2.01-2.01,2.01-2.01-.9-2.01-2.01" fill="#414042"></path><path d="M423.9,33.04c.16.95-.49,1.86-1.44,2.01-.19.03-.38.03-.57,0-.98.13-1.88-.56-2.01-1.54-.02-.16-.02-.32,0-.47-.11-1.01.62-1.91,1.63-2.01.13-.01.26-.01.38,0,.99-.12,1.9.59,2.01,1.58.02.14.02.29,0,.43M425.03,24.99c.13.98-.56,1.88-1.54,2.01-.16.02-.32.02-.47,0-.99.12-1.9-.59-2.01-1.58-.02-.14-.02-.29,0-.43-.14-.97.52-1.87,1.49-2.01.17-.03.35-.03.52,0,.96-.16,1.86.49,2.01,1.44.03.19.03.38,0,.57M425.03,40.95c.16-.95-.49-1.86-1.44-2.01-.19-.03-.38-.03-.57,0-.97-.14-1.87.52-2.01,1.49-.03.17-.03.35,0,.52-.11,1.01.62,1.91,1.63,2.01.13.01.26.01.38,0,.99.12,1.89-.59,2.01-1.59.02-.14.02-.29,0-.43M428.21,17.54c0,1.11-.9,2.01-2.01,2.01s-2.01-.9-2.01-2.01.9-2.01,2.01-2.01,2.01.9,2.01,2.01M428.21,48.36c0-1.11-.9-2.01-2.01-2.01s-2.01.9-2.01,2.01.9,2.01,2.01,2.01,2.01-.9,2.01-2.01M433.31,11.28c.13.98-.56,1.88-1.54,2.01-.16.02-.32.02-.48,0-.99.12-1.89-.59-2.01-1.59-.02-.14-.02-.29,0-.43-.14-.97.52-1.87,1.49-2.01.17-.03.35-.03.52,0,.96-.16,1.86.49,2.01,1.44.03.19.03.38,0,.57M433.31,54.6c.14-.97-.52-1.87-1.49-2.01-.17-.03-.35-.03-.52,0-1.11,0-2.01.9-2.01,2.01s.9,2.01,2.01,2.01c.97.14,1.87-.52,2.01-1.49.03-.17.03-.35,0-.52M439.97,6.6c0,1.11-.9,2.01-2.01,2.01s-2.01-.9-2.01-2.01.9-2.01,2.01-2.01,2.01.9,2.01,2.01M439.97,59.3c0-1.11-.9-2.01-2.01-2.01s-2.01.9-2.01,2.01.9,2.01,2.01,2.01,2.01-.9,2.01-2.01M447.62,4.01c.12.99-.59,1.9-1.59,2.01-.14.02-.29.02-.43,0-.98.13-1.88-.56-2.01-1.54-.02-.16-.02-.32,0-.47-.13-.98.56-1.88,1.54-2.01.16-.02.32-.02.48,0,1.01-.11,1.91.62,2.01,1.63.01.13.01.26,0,.38M447.62,62.18c.11-1.01-.62-1.91-1.63-2.01-.13-.01-.26-.01-.38,0-.99-.12-1.9.59-2.01,1.58-.02.14-.02.29,0,.43-.16.95.49,1.86,1.44,2.01.19.03.38.03.57,0,.98.13,1.88-.56,2.01-1.54.02-.16.02-.32,0-.47M451.65,3.36c-.14.97.52,1.87,1.49,2.01.17.03.35.03.52,0,.98.13,1.88-.56,2.01-1.54.02-.16.02-.32,0-.47.12-.99-.59-1.9-1.59-2.01-.14-.02-.28-.02-.43,0-.98-.13-1.88.56-2.01,1.54-.02.16-.02.32,0,.48M455.68,62.74c.11-1.01-.62-1.91-1.63-2.01-.13-.01-.26-.01-.38,0-.99-.12-1.9.59-2.01,1.58-.02.14-.02.29,0,.43-.16.95.49,1.86,1.44,2.01.19.03.38.03.57,0,1.37,0,2.01-.64,2.01-2.01M459.7,4.01c0,1.11.9,2.01,2.01,2.01s2.01-.9,2.01-2.01-.9-2.01-2.01-2.01-2.01.9-2.01,2.01M459.7,62.18c0-1.11.9-2.01,2.01-2.01s2.01.9,2.01,2.01-.9,2.01-2.01,2.01-2.01-.9-2.01-2.01M467.25,6.71c0,1.11.9,2.01,2.01,2.01s2.01-.9,2.01-2.01-.9-2.01-2.01-2.01-2.01.9-2.01,2.01M467.25,59.4c0-1.11.9-2.01,2.01-2.01s2.01.9,2.01,2.01-.9,2.01-2.01,2.01-2.01-.9-2.01-2.01" fill="none" stroke="#414042" stroke-miterlimit="10" stroke-width="1.01"></path><path d="M484.35,2.66c.96-.16,1.86.49,2.01,1.44.03.19.03.38,0,.57.12.99-.59,1.9-1.59,2.01-.14.02-.29.02-.43,0-1.01.11-1.91-.62-2.01-1.63-.01-.13-.01-.26,0-.38,0-1.35.68-2.01,2.01-2.01M486.36,12.72c.13.98-.56,1.88-1.54,2.01-.16.02-.32.02-.47,0-.99.12-1.9-.59-2.01-1.58-.02-.14-.02-.29,0-.43,0-1.35.68-2.01,2.01-2.01.96-.16,1.86.49,2.01,1.44.03.19.03.38,0,.57M486.36,20.78c.15.97-.52,1.87-1.49,2.01-.17.03-.35.03-.52,0-1.11,0-2.01-.9-2.01-2.01s.9-2.01,2.01-2.01,2.01.9,2.01,2.01M484.35,26.82c.98-.13,1.88.56,2.01,1.54.02.16.02.32,0,.47.15.97-.52,1.87-1.49,2.01-.17.03-.35.03-.52,0-.98.13-1.88-.56-2.01-1.54-.02-.16-.02-.32,0-.47-.12-.99.59-1.89,1.59-2.01.14-.02.29-.02.43,0M486.36,36.89c.15.97-.52,1.87-1.49,2.01-.17.03-.35.03-.52,0-.98.13-1.88-.56-2.01-1.54-.02-.16-.02-.32,0-.47-.11-1.01.62-1.91,1.63-2.01.13-.01.26-.01.38,0,.99-.12,1.9.59,2.01,1.58.02.14.02.29,0,.43M486.36,44.94c.16.95-.49,1.86-1.44,2.01-.19.03-.38.03-.57,0-1.37,0-2.01-.62-2.01-2.01-.11-1.01.62-1.91,1.63-2.01.13-.01.26-.01.38,0,.99-.12,1.9.59,2.01,1.59.02.14.02.29,0,.43M486.36,52.99c0,1.35-.66,2.01-2.01,2.01s-2.01-.62-2.01-2.01c-.11-1.01.62-1.91,1.63-2.01.13-.01.26-.01.38,0,.99-.12,1.9.59,2.01,1.59.02.14.02.29,0,.43M484.35,59.03c.99-.12,1.9.59,2.01,1.58.02.14.02.29,0,.43.15.97-.52,1.87-1.49,2.01-.17.03-.35.03-.52,0-.98.13-1.88-.56-2.01-1.54-.02-.16-.02-.32,0-.48-.11-1.01.62-1.91,1.63-2.01.13-.01.26-.01.38,0" fill="#414042"></path><path d="M484.35,2.66c.96-.16,1.86.49,2.01,1.44.03.19.03.38,0,.57.12.99-.59,1.9-1.59,2.01-.14.02-.29.02-.43,0-1.01.11-1.91-.62-2.01-1.63-.01-.13-.01-.26,0-.38,0-1.35.68-2.01,2.01-2.01M486.36,12.72c.13.98-.56,1.88-1.54,2.01-.16.02-.32.02-.47,0-.99.12-1.9-.59-2.01-1.58-.02-.14-.02-.29,0-.43,0-1.35.68-2.01,2.01-2.01.96-.16,1.86.49,2.01,1.44.03.19.03.38,0,.57M486.36,20.78c.15.97-.52,1.87-1.49,2.01-.17.03-.35.03-.52,0-1.11,0-2.01-.9-2.01-2.01s.9-2.01,2.01-2.01,2.01.9,2.01,2.01M484.35,26.82c.98-.13,1.88.56,2.01,1.54.02.16.02.32,0,.47.15.97-.52,1.87-1.49,2.01-.17.03-.35.03-.52,0-.98.13-1.88-.56-2.01-1.54-.02-.16-.02-.32,0-.47-.12-.99.59-1.89,1.59-2.01.14-.02.29-.02.43,0M486.36,36.89c.15.97-.52,1.87-1.49,2.01-.17.03-.35.03-.52,0-.98.13-1.88-.56-2.01-1.54-.02-.16-.02-.32,0-.47-.11-1.01.62-1.91,1.63-2.01.13-.01.26-.01.38,0,.99-.12,1.9.59,2.01,1.58.02.14.02.29,0,.43M486.36,44.94c.16.95-.49,1.86-1.44,2.01-.19.03-.38.03-.57,0-1.37,0-2.01-.62-2.01-2.01-.11-1.01.62-1.91,1.63-2.01.13-.01.26-.01.38,0,.99-.12,1.9.59,2.01,1.59.02.14.02.29,0,.43M486.36,52.99c0,1.35-.66,2.01-2.01,2.01s-2.01-.62-2.01-2.01c-.11-1.01.62-1.91,1.63-2.01.13-.01.26-.01.38,0,.99-.12,1.9.59,2.01,1.59.02.14.02.29,0,.43M484.35,59.03c.99-.12,1.9.59,2.01,1.58.02.14.02.29,0,.43.15.97-.52,1.87-1.49,2.01-.17.03-.35.03-.52,0-.98.13-1.88-.56-2.01-1.54-.02-.16-.02-.32,0-.48-.11-1.01.62-1.91,1.63-2.01.13-.01.26-.01.38,0" fill="none" stroke="#414042" stroke-miterlimit="10" stroke-width="1.01"></path><path d="M495.28,61.51c0-1.11.91-2.01,2.02-2.01,1.1,0,2,.9,2.01,2.01,0,1.11-.9,2.01-2.01,2.01s-2.01-.9-2.01-2.01M499.09,54.32c0-1.11.9-2.01,2.01-2.01s2.01.9,2.01,2.01-.9,2.01-2.01,2.01-2.01-.9-2.01-2.01M502.91,47.17c0-1.11.9-2.01,2.01-2.01s2.01.9,2.01,2.01-.9,2.01-2.01,2.01-2.01-.9-2.01-2.01M506.72,40.05c0-1.11.9-2.01,2.01-2.01s2.01.9,2.01,2.01-.9,2.01-2.01,2.01-2.01-.9-2.01-2.01M510.54,32.8c0-1.11.9-2.01,2.01-2.01s2.01.9,2.01,2.01-.9,2.01-2.01,2.01-2.01-.9-2.01-2.01M518.39,39.93c.13-.98-.56-1.88-1.54-2.01-.16-.02-.32-.02-.47,0-.95-.16-1.86.49-2.01,1.44-.03.19-.03.38,0,.57-.14.97.52,1.87,1.49,2.01.17.03.35.03.52,0,1.03.08,1.93-.69,2.01-1.72,0-.1,0-.19,0-.29M514.37,25.65c0-1.11.9-2.01,2.01-2.01s2.01.9,2.01,2.01-.9,2.01-2.01,2.01-2.01-.9-2.01-2.01M518.09,18.52c0-1.11.9-2.01,2.01-2.01s2.01.9,2.01,2.01-.9,2.01-2.01,2.01c-.99.12-1.89-.59-2.01-1.59-.02-.14-.02-.29,0-.43M521.82,11.38c0-1.11.9-2.01,2.01-2.01s2.01.9,2.01,2.01-.9,2.01-2.01,2.01-2.01-.9-2.01-2.01M525.84,39.93c.17-.94-.45-1.84-1.39-2.01-.21-.04-.41-.04-.62,0-1.01-.11-1.91.62-2.01,1.63-.01.13-.01.26,0,.38-.1,1.02.65,1.92,1.66,2.02.15.02.3.01.45-.01.98.13,1.88-.56,2.01-1.54.02-.16.02-.32,0-.47M529.75,4.19c.12-.99-.59-1.89-1.59-2.01-.14-.02-.29-.02-.43,0-1.02-.09-1.92.66-2.01,1.68,0,.11,0,.22,0,.34-.13.98.56,1.88,1.54,2.01.16.02.32.02.48,0,.93.18,1.83-.42,2.01-1.34.04-.22.04-.45,0-.67M533.56,11.34c0-1.37-.66-2.01-2.01-2.01-.97-.14-1.87.52-2.01,1.49-.03.17-.03.35,0,.52-.08,1.04.71,1.95,1.75,2.02.12,0,.24,0,.36,0,.97.14,1.87-.52,2.01-1.49.03-.17.03-.35,0-.52M533.66,39.93c.18-.93-.42-1.83-1.34-2.01-.22-.04-.45-.04-.67,0-1.01-.11-1.91.62-2.01,1.63-.01.13-.01.26,0,.38-.1,1.02.65,1.92,1.66,2.02.15.02.3.01.45-.01.98.13,1.88-.56,2.01-1.54.02-.16.02-.32,0-.47M537.58,18.46c.17-.94-.45-1.84-1.39-2.01-.2-.04-.41-.04-.62,0-.97-.14-1.87.52-2.01,1.49-.03.17-.03.35,0,.52-.08,1.03.69,1.93,1.72,2.01.1,0,.2,0,.29,0,.99.12,1.9-.59,2.01-1.59.02-.14.02-.29,0-.43M541.39,25.65c.14-.97-.52-1.87-1.49-2.01-.17-.03-.35-.03-.52,0-1.11,0-2.01.9-2.01,2.01s.9,2.01,2.01,2.01c.96.16,1.86-.49,2.01-1.44.03-.19.03-.38,0-.57M541.39,39.93c.17-.94-.45-1.84-1.39-2.01-.2-.04-.41-.04-.62,0-.99-.12-1.89.59-2.01,1.59-.02.14-.02.29,0,.43-.09,1.02.66,1.92,1.68,2.01.11.01.22.01.34,0,.98.13,1.88-.56,2.01-1.54.02-.16.02-.32,0-.47M545.21,32.8c.13-.98-.56-1.88-1.54-2.01-.16-.02-.32-.02-.47,0-1.03-.08-1.93.69-2.01,1.72,0,.1,0,.2,0,.29,0,1.35.74,2.01,2.01,2.01.95.16,1.86-.49,2.01-1.44.03-.19.03-.38,0-.57M549,39.93c.18-.93-.42-1.83-1.34-2.01-.22-.04-.45-.04-.67,0-1.01-.11-1.91.62-2.01,1.63-.01.13-.01.26,0,.38-.14.97.52,1.87,1.49,2.01.17.03.35.03.52,0,1.03.08,1.93-.69,2.01-1.72,0-.1,0-.19,0-.29M552.82,47.17c.09-1.02-.66-1.92-1.68-2.01-.11-.01-.23-.01-.34,0-.99-.12-1.9.59-2.01,1.59-.02.14-.02.29,0,.43,0,1.11.9,2.01,2.01,2.01s2.01-.9,2.01-2.01M556.65,54.32c0-1.11-.9-2.02-2.01-2.02-.03,0-.07,0-.1,0-.99-.13-1.9.58-2.03,1.57-.02.18-.02.36.01.54,0,1.35.66,2.01,2.01,2.01s2.01-.64,2.01-2.01M560.33,61.55c.16-.95-.49-1.86-1.44-2.01-.19-.03-.38-.03-.57,0-.93-.19-1.83.42-2.01,1.34-.04.22-.04.45,0,.67-.12.99.59,1.9,1.59,2.01.14.02.28.02.43,0,1.03.08,1.93-.69,2.01-1.72,0-.1,0-.19,0-.29" fill="#414042"></path><path d="M495.28,61.51c0-1.11.91-2.01,2.02-2.01,1.1,0,2,.9,2.01,2.01,0,1.11-.9,2.01-2.01,2.01s-2.01-.9-2.01-2.01M499.09,54.32c0-1.11.9-2.01,2.01-2.01s2.01.9,2.01,2.01-.9,2.01-2.01,2.01-2.01-.9-2.01-2.01M502.91,47.17c0-1.11.9-2.01,2.01-2.01s2.01.9,2.01,2.01-.9,2.01-2.01,2.01-2.01-.9-2.01-2.01M506.72,40.05c0-1.11.9-2.01,2.01-2.01s2.01.9,2.01,2.01-.9,2.01-2.01,2.01-2.01-.9-2.01-2.01M510.54,32.8c0-1.11.9-2.01,2.01-2.01s2.01.9,2.01,2.01-.9,2.01-2.01,2.01-2.01-.9-2.01-2.01M518.39,39.93c.13-.98-.56-1.88-1.54-2.01-.16-.02-.32-.02-.47,0-.95-.16-1.86.49-2.01,1.44-.03.19-.03.38,0,.57-.14.97.52,1.87,1.49,2.01.17.03.35.03.52,0,1.03.08,1.93-.69,2.01-1.72,0-.1,0-.19,0-.29M514.37,25.65c0-1.11.9-2.01,2.01-2.01s2.01.9,2.01,2.01-.9,2.01-2.01,2.01-2.01-.9-2.01-2.01M518.09,18.52c0-1.11.9-2.01,2.01-2.01s2.01.9,2.01,2.01-.9,2.01-2.01,2.01c-.99.12-1.89-.59-2.01-1.59-.02-.14-.02-.29,0-.43M521.82,11.38c0-1.11.9-2.01,2.01-2.01s2.01.9,2.01,2.01-.9,2.01-2.01,2.01-2.01-.9-2.01-2.01M525.84,39.93c.17-.94-.45-1.84-1.39-2.01-.21-.04-.41-.04-.62,0-1.01-.11-1.91.62-2.01,1.63-.01.13-.01.26,0,.38-.1,1.02.65,1.92,1.66,2.02.15.02.3.01.45-.01.98.13,1.88-.56,2.01-1.54.02-.16.02-.32,0-.47M529.75,4.19c.12-.99-.59-1.89-1.59-2.01-.14-.02-.29-.02-.43,0-1.02-.09-1.92.66-2.01,1.68,0,.11,0,.22,0,.34-.13.98.56,1.88,1.54,2.01.16.02.32.02.48,0,.93.18,1.83-.42,2.01-1.34.04-.22.04-.45,0-.67M533.56,11.34c0-1.37-.66-2.01-2.01-2.01-.97-.14-1.87.52-2.01,1.49-.03.17-.03.35,0,.52-.08,1.04.71,1.95,1.75,2.02.12,0,.24,0,.36,0,.97.14,1.87-.52,2.01-1.49.03-.17.03-.35,0-.52M533.66,39.93c.18-.93-.42-1.83-1.34-2.01-.22-.04-.45-.04-.67,0-1.01-.11-1.91.62-2.01,1.63-.01.13-.01.26,0,.38-.1,1.02.65,1.92,1.66,2.02.15.02.3.01.45-.01.98.13,1.88-.56,2.01-1.54.02-.16.02-.32,0-.47M537.58,18.46c.17-.94-.45-1.84-1.39-2.01-.2-.04-.41-.04-.62,0-.97-.14-1.87.52-2.01,1.49-.03.17-.03.35,0,.52-.08,1.03.69,1.93,1.72,2.01.1,0,.2,0,.29,0,.99.12,1.9-.59,2.01-1.59.02-.14.02-.29,0-.43M541.39,25.65c.14-.97-.52-1.87-1.49-2.01-.17-.03-.35-.03-.52,0-1.11,0-2.01.9-2.01,2.01s.9,2.01,2.01,2.01c.96.16,1.86-.49,2.01-1.44.03-.19.03-.38,0-.57M541.39,39.93c.17-.94-.45-1.84-1.39-2.01-.2-.04-.41-.04-.62,0-.99-.12-1.89.59-2.01,1.59-.02.14-.02.29,0,.43-.09,1.02.66,1.92,1.68,2.01.11.01.22.01.34,0,.98.13,1.88-.56,2.01-1.54.02-.16.02-.32,0-.47M545.21,32.8c.13-.98-.56-1.88-1.54-2.01-.16-.02-.32-.02-.47,0-1.03-.08-1.93.69-2.01,1.72,0,.1,0,.2,0,.29,0,1.35.74,2.01,2.01,2.01.95.16,1.86-.49,2.01-1.44.03-.19.03-.38,0-.57M549,39.93c.18-.93-.42-1.83-1.34-2.01-.22-.04-.45-.04-.67,0-1.01-.11-1.91.62-2.01,1.63-.01.13-.01.26,0,.38-.14.97.52,1.87,1.49,2.01.17.03.35.03.52,0,1.03.08,1.93-.69,2.01-1.72,0-.1,0-.19,0-.29M552.82,47.17c.09-1.02-.66-1.92-1.68-2.01-.11-.01-.23-.01-.34,0-.99-.12-1.9.59-2.01,1.59-.02.14-.02.29,0,.43,0,1.11.9,2.01,2.01,2.01s2.01-.9,2.01-2.01M556.65,54.32c0-1.11-.9-2.02-2.01-2.02-.03,0-.07,0-.1,0-.99-.13-1.9.58-2.03,1.57-.02.18-.02.36.01.54,0,1.35.66,2.01,2.01,2.01s2.01-.64,2.01-2.01M560.33,61.55c.16-.95-.49-1.86-1.44-2.01-.19-.03-.38-.03-.57,0-.93-.19-1.83.42-2.01,1.34-.04.22-.04.45,0,.67-.12.99.59,1.9,1.59,2.01.14.02.28.02.43,0,1.03.08,1.93-.69,2.01-1.72,0-.1,0-.19,0-.29" fill="none" stroke="#414042" stroke-miterlimit="10" stroke-width="1.01"></path><g clip-path="url(#clippath)"><path d="M557.26,13.73V3.62h4.49c.9,0,1.59.09,2.06.27.47.18.84.5,1.12.96.28.46.42.97.42,1.53,0,.72-.23,1.32-.7,1.81-.46.49-1.18.81-2.15.94.35.17.62.34.81.5.39.36.76.81,1.11,1.35l1.76,2.75h-1.68l-1.34-2.1c-.39-.61-.71-1.07-.97-1.39-.25-.32-.48-.55-.68-.68s-.4-.22-.61-.27c-.15-.03-.4-.05-.75-.05h-1.55v4.49h-1.34ZM558.6,8.08h2.88c.61,0,1.09-.06,1.44-.19.34-.13.61-.33.79-.61.18-.28.27-.58.27-.91,0-.48-.17-.87-.52-1.18-.35-.31-.9-.46-1.65-.46h-3.2v3.35Z" fill="#414042"></path></g><path d="M552.88,8.88c0-4.63,3.75-8.38,8.38-8.38s8.38,3.75,8.38,8.38-3.75,8.38-8.38,8.38h-.02c-4.61,0-8.36-3.74-8.36-8.36v-.02Z" fill="none" stroke="#414042" stroke-miterlimit="10" stroke-width="1.01"></path></g></svg>