<?xml version="1.0" encoding="UTF-8"?>
<svg xmlns="http://www.w3.org/2000/svg" id="Capa_1" data-name="Capa 1" width="205" height="83.5" viewBox="0 0 205 83.5"><defs><style> .cls-1 { fill: #f8cac9; } </style></defs><title>browes</title><g id="_Grupo_" data-name="&lt;Grupo&gt;"><path id="_Trazado_compuesto_" data-name="&lt;Trazado compuesto&gt;" class="cls-1" d="M23.636,72.1394a58.59978,58.59978,0,0,1,2.65985-5.64391,31.53038,31.53038,0,0,1,3.4383-5.25469,9.58761,9.58761,0,0,1,4.47624-3.24354q2.2683-.64784,3.82724,1.68664a4.9227,4.9227,0,0,1,.90848,2.59484,12.65041,12.65041,0,0,1-.13,3.11409,15.37,15.37,0,0,1-.77845,2.919,16.53,16.53,0,0,1-1.03793,2.27063,40.258,40.258,0,0,0,11.41786-3.30856Q54.9038,64.4858,63.07869,57.608a.43422.43422,0,0,1,.584-.065q.32218.19461-.195.584a85.32479,85.32479,0,0,1-8.044,5.9034,59.014,59.014,0,0,1-7.00606,3.89225,34.23687,34.23687,0,0,1-6.16317,2.2059q-2.91963.71445-5.64362,1.10266a15.3308,15.3308,0,0,1-5.70922,5.06022,13.96258,13.96258,0,0,1-5.83867,1.68664,12.38613,12.38613,0,0,1-4.6707-.519q-2.20474-1.03706-1.62192-2.72458.58427-1.6849,3.95727-2.33564.65132-3.503,1.42745-7.39528.77845-3.89269,1.81639-8.04428A168.02626,168.02626,0,0,1,31.68,37.822a90.052,90.052,0,0,1,8.823-17.97,35.28883,35.28883,0,0,1,7.84952-9.14694,16.8491,16.8491,0,0,1,7.46-3.69779,5.7033,5.7033,0,0,1,4.80074.97321,6.203,6.203,0,0,1,2.07587,4.47624q.25861,3.503-2.27034,9.14694-2.5304,5.64377-9.14694,13.03949A140.341,140.341,0,0,1,39.59456,46.70943q-6.09961,5.5802-12.7147,11.02834Zm-1.03793.90819a4.00264,4.00264,0,0,0-3.1138,1.68693q-.90645,1.4289,1.03793,2.20561a10.26442,10.26442,0,0,0,4.15174.58369,12.90848,12.90848,0,0,0,5.44916-1.49189,14.65965,14.65965,0,0,0,3.04937-2.07587A14.58793,14.58793,0,0,0,35.57227,71.361q-2.9858.26166-5.77365.584-2.79075.32523-5.77365.84318l-.9079,2.46538a.62072.62072,0,0,1-.649.32421c-.25948-.04267-.34424-.19447-.25948-.454Zm1.68635-.90819q2.98319-.51679,5.83867-.84318,2.85258-.32261,5.83867-.584a6.78668,6.78668,0,0,0,.97292-1.94613,22.649,22.649,0,0,0,.77845-2.85432,15.02634,15.02634,0,0,0,.3245-3.04908,5.638,5.638,0,0,0-.519-2.53011q-1.16768-2.594-3.30827-1.81639a9.338,9.338,0,0,0-3.95727,2.98406,35.72652,35.72652,0,0,0-3.30885,5.12495Q25.45183,69.41686,24.28444,72.1394Zm2.72487-15.30982q6.35561-5.44916,12.32576-10.8986A146.00958,146.00958,0,0,0,50.75293,34.25393q6.48622-7.39572,9.01691-12.90974,2.5304-5.51316,2.27092-8.88746a5.80884,5.80884,0,0,0-1.8814-4.087,4.78388,4.78388,0,0,0-4.21675-.84347A16.788,16.788,0,0,0,48.93655,11.224a37.49721,37.49721,0,0,0-7.5256,8.88746A91.07254,91.07254,0,0,0,32.848,37.8867Q29.47208,47.35915,27.00931,56.82958Z"/><path id="_Trazado_compuesto_2" data-name="&lt;Trazado compuesto&gt;" class="cls-1" d="M62.16963,56.18087a3.958,3.958,0,0,1,.779-3.89254A3.28614,3.28614,0,0,1,65.154,51.12065a2.02354,2.02354,0,0,1,1.8814.584,2.256,2.256,0,0,1,.065,2.20561,10.12221,10.12221,0,0,1-3.1138,3.69779,17.59592,17.59592,0,0,0,2.39979,1.81639q.71227.38923.195,2.07587-.38923,1.04011-.84347,2.65985a16.8399,16.8399,0,0,0-.584,3.17882,6.80374,6.80374,0,0,0,.3245,2.85432,2.93833,2.93833,0,0,0,2.01085,1.81639q2.20474.65089,5.9687-1.10266a57.8277,57.8277,0,0,0,7.65448-4.3465q3.89225-2.594,7.2011-5.19,3.30885-2.594,4.73572-3.76251a.43422.43422,0,0,1,.584-.065q.32218.19461-.195.584-1.03968.77845-2.91875,2.27063-1.88256,1.4929-4.28177,3.24354-2.4024,1.75151-5.06022,3.568A53.033,53.033,0,0,1,75.92284,70.388a25.87628,25.87628,0,0,1-4.86517,2.01085,6.48259,6.48259,0,0,1-3.82782.12974,3.42215,3.42215,0,0,1-2.40037-1.88111,7.49763,7.49763,0,0,1-.5834-2.98435,15.54845,15.54845,0,0,1,.38894-3.37329,30.09681,30.09681,0,0,1,.77845-2.91934,2.99925,2.99925,0,0,0,.25948-1.03793,1.43013,1.43013,0,0,0-.519-.90819q-1.03968-.906-1.81639-1.49189A3.49037,3.49037,0,0,1,62.16963,56.18087Zm1.298,1.03793a11.4744,11.4744,0,0,0,3.04879-3.37329q.5834-1.29568.12945-1.81668a1.32007,1.32007,0,0,0-1.42687-.25948,3.51054,3.51054,0,0,0-1.75137,1.168,4.40437,4.40437,0,0,0-.779,2.14059A2.5232,2.5232,0,0,0,63.46763,57.21881Z"/><path id="_Trazado_compuesto_3" data-name="&lt;Trazado compuesto&gt;" class="cls-1" d="M124.05675,57.608a.43422.43422,0,0,1,.584-.065q.32218.19461-.195.584a33.68658,33.68658,0,0,1-5.70864,3.82753,43.53323,43.53323,0,0,1-6.68156,2.91934,32.861,32.861,0,0,1-6.87661,1.5569,16.662,16.662,0,0,1-6.29262-.38923,6.94663,6.94663,0,0,1-3.69779,2.72458,3.3632,3.3632,0,0,1-3.4383-.90819,4.52238,4.52238,0,0,1-1.29742-3.63277,14.4961,14.4961,0,0,1,.77845-4.02229q-1.42629-3.76164.64842-6.35735a4.322,4.322,0,0,1,4.28177-1.55719,5.4003,5.4003,0,0,1,4.15174,3.24384,9.03559,9.03559,0,0,1,.649,5.12495,11.31986,11.31986,0,0,1-1.81639,4.9952,18.97031,18.97031,0,0,0,6.29262.25948,30.58884,30.58884,0,0,0,6.61712-1.5569,40.74333,40.74333,0,0,0,6.42207-2.91934A36.11913,36.11913,0,0,0,124.05675,57.608Zm-31.00916-.12974c.17241-.17241.38952-.17241.649,0,.25948.17444.30186.34656.12945.519a7.73259,7.73259,0,0,0-1.68693,2.72458A6.51121,6.51121,0,0,0,94.799,63.70619a18.07862,18.07862,0,0,0,3.82782,1.81639,10.83121,10.83121,0,0,0,1.8814-4.73572,8.35458,8.35458,0,0,0-.584-4.9952,4.81808,4.81808,0,0,0-3.50332-3.04908,3.93627,3.93627,0,0,0-3.7628.97321,5.24991,5.24991,0,0,0-1.5569,2.85432,5.06387,5.06387,0,0,0,.38952,2.98406,6.14431,6.14431,0,0,1,.84347-1.29742C92.63834,57.91221,92.87344,57.65273,93.04759,57.47829Zm5.3197,8.43351a13.6659,13.6659,0,0,1-3.7628-1.68664,9.57235,9.57235,0,0,1-2.72487-2.85461,10.67992,10.67992,0,0,0-.5834,3.24384,4.09306,4.09306,0,0,0,.97292,2.98406,2.39463,2.39463,0,0,0,2.85432.71343A6.79749,6.79749,0,0,0,98.3673,65.9118Z"/><path id="_Trazado_compuesto_4" data-name="&lt;Trazado compuesto&gt;" class="cls-1" d="M169.85648,57.608a.43355.43355,0,0,1,.5834-.065q.323.19461-.19447.584a63.67078,63.67078,0,0,1-6.16259,4.41122,48.15365,48.15365,0,0,1-7.97956,4.152,22.57565,22.57565,0,0,1-8.174,1.75137,9.3608,9.3608,0,0,1-6.87661-2.65956q-1.03968,1.4289-2.27034,2.98406a13.69008,13.69008,0,0,1-2.65985,2.59484,3.69588,3.69588,0,0,1-2.27034.84347,2.432,2.432,0,0,1-1.62192-.71372,4.72948,4.72948,0,0,1-1.03793-1.62163,8.13133,8.13133,0,0,1-.519-1.8814,17.40384,17.40384,0,0,1-.19447-3.37329,16.11546,16.11546,0,0,1,.32392-2.85461q-1.81813,2.33579-3.17882,3.82753a6.88324,6.88324,0,0,1-2.39979,1.8814q-1.94613.77845-2.5304-.71372a6.7469,6.7469,0,0,1-.454-3.04879q.13061-1.16811.454-2.72487a11.7959,11.7959,0,0,1,1.36243-3.37329q.128-.25861.77845-.19476c.43189.0447.56134.19476.38952.45424a28.73735,28.73735,0,0,0-1.94642,5.83867,6.11069,6.11069,0,0,0,.065,2.65956q.32479,1.23472,1.75137.584,2.20474-1.03706,5.96812-6.61712a.79666.79666,0,0,1,.714-.19447c.30186.04441.40925.19447.32392.454a19.18218,19.18218,0,0,0-.454,3.17882,24.35916,24.35916,0,0,0,0,4.3465,5.46023,5.46023,0,0,0,1.168,3.17882q.97263,1.10368,3.04879-.3245a13.69847,13.69847,0,0,0,2.65985-2.59484,36,36,0,0,0,2.14088-2.98406,8.71188,8.71188,0,0,1-1.5569-2.14088,15.904,15.904,0,0,1-1.03793-2.40037q-1.29916-3.89225,0-6.22761a4.92329,4.92329,0,0,1,3.04879-2.72487,3.06154,3.06154,0,0,1,3.1138,1.168q1.36272,1.5569.19447,5.31941a27.035,27.035,0,0,1-1.2324,3.17882q-.8455,1.88213-1.8814,3.69779a8.98,8.98,0,0,0,6.74715,2.59484,23.65317,23.65317,0,0,0,7.979-1.75166,41.70216,41.70216,0,0,0,7.78509-4.087A71.64873,71.64873,0,0,0,169.85648,57.608Zm-28.93329,7.26583a34.72256,34.72256,0,0,0,1.68635-3.30856q.64784-1.49029,1.29742-3.30856,1.03706-3.503-.12945-4.86546a2.57086,2.57086,0,0,0-2.72487-.97321,4.22779,4.22779,0,0,0-2.59484,2.59513q-1.03968,2.20779.25948,5.96812A12.24045,12.24045,0,0,0,140.92319,64.87386Z"/><path id="_Trazado_compuesto_5" data-name="&lt;Trazado compuesto&gt;" class="cls-1" d="M172.0618,69.93379a77.59136,77.59136,0,0,0,11.48229-5.05993A58.08766,58.08766,0,0,0,193.98845,57.608a.43422.43422,0,0,1,.584-.065q.32218.19461-.19447.584a69.317,69.317,0,0,1-10.89889,7.39557A85.86974,85.86974,0,0,1,172.0618,70.5825a10.74942,10.74942,0,0,1-.584,3.7628,5.36389,5.36389,0,0,1-2.14088,2.59484,3.96528,3.96528,0,0,1-3.37329.519q-1.6849-.51723-1.168-2.59484a4.62436,4.62436,0,0,1,2.65985-2.98435q2.14117-1.03663,3.82782-1.68664a23.15659,23.15659,0,0,0-.584-3.4383q-.45627-1.87908-.84347-3.76251a18.2,18.2,0,0,1-.38952-3.69779,7.43943,7.43943,0,0,1,.779-3.37329,3.88679,3.88679,0,0,1,1.62134-1.81639,4.31959,4.31959,0,0,1,2.2059-.64871,2.84829,2.84829,0,0,1,1.8814.64871,2.73163,2.73163,0,0,1,.77845,2.20561c0,.25948-.15209.38923-.454.38923-.30418,0-.41157-.12974-.3245-.38923a1.91828,1.91828,0,0,0-.25948-1.75166,1.81437,1.81437,0,0,0-1.42745-.58369,3.64014,3.64014,0,0,0-1.81639.519,3.47794,3.47794,0,0,0-1.42687,1.68664,7.59214,7.59214,0,0,0-.45453,3.1138,29.01805,29.01805,0,0,0,.38952,3.76251q.32218,1.94656.71343,3.82753A15.78232,15.78232,0,0,1,172.0618,69.93379Zm-6.74715,4.93048q-.51635,1.68751.84347,2.07587a3.59363,3.59363,0,0,0,2.7893-.38923,4.15364,4.15364,0,0,0,2.01143-2.53011,9.01774,9.01774,0,0,0,.3245-3.17882,29.8201,29.8201,0,0,0-3.4383,1.42716A4.79284,4.79284,0,0,0,165.31464,74.86427Z"/></g></svg>