<svg xmlns="http://www.w3.org/2000/svg" id="Layer_2" viewBox="0 0 626.64 159.29"><g id="Layer_1-2"><path d="M8.82,104.8c-2.52,2.52-4.58,3.72-6.17,3.59-.8-.13-1.43-.63-1.89-1.49-.46-.86-.7-1.82-.7-2.89-.26-2.52.43-5.18,2.09-7.97,1.66-2.79,3.88-4.71,6.67-5.78,1.46-.53,3.02-.7,4.68-.5s3.29.9,4.88,2.09l2.59-3.98c.26-.26.66-.33,1.2-.2.53.13.66.33.4.6-.67,1.06-1.49,2.56-2.49,4.48-1,1.93-1.93,3.98-2.79,6.17-.87,2.19-1.59,4.38-2.19,6.57s-.77,4.08-.5,5.68c.26,1.86,1,2.96,2.19,3.29,1.2.33,2.59.3,4.18-.1,2.39-.53,5.25-1.69,8.57-3.49,3.32-1.79,6.67-3.82,10.06-6.08,3.39-2.26,6.64-4.51,9.76-6.77,3.12-2.26,5.74-4.18,7.87-5.78.26-.26.53-.26.8,0,.26.27.13.53-.4.8-2.26,1.59-4.91,3.55-7.97,5.88-3.06,2.33-6.27,4.58-9.66,6.77-3.39,2.19-6.71,4.15-9.96,5.88-3.26,1.73-6.14,2.92-8.67,3.59-1.99.53-3.65.57-4.98.1-1.33-.46-2.26-1.69-2.79-3.69-.53-1.86-.4-4.35.4-7.47.8-3.12,1.72-6.01,2.79-8.67-1.06,1.33-2.39,2.99-3.98,4.98-1.59,1.99-2.92,3.45-3.98,4.38h0ZM17.78,92.65c-2.66-1.99-5.31-2.52-7.97-1.59-1.86.67-3.52,1.93-4.98,3.78-1.46,1.86-2.46,3.92-2.99,6.18-.4,1.33-.6,2.69-.6,4.08s.53,2.23,1.59,2.49c1.46.27,3.45-1,5.98-3.79,1.59-1.86,3.22-3.78,4.88-5.78,1.66-1.99,3.02-3.79,4.08-5.38h0Z" style="fill:#414042; stroke-width:0px;"></path><path d="M54.23,115.96c5.04,7.57,8,14.41,8.86,20.52s.56,11.09-.9,14.94c-.93,2.52-2.13,4.45-3.59,5.78s-2.96,2.02-4.48,2.09c-1.53.06-2.95-.5-4.28-1.69-1.33-1.2-2.39-3.06-3.19-5.58-1.2-3.72-1.49-8.37-.9-13.94.6-5.58,1.56-11.29,2.89-17.13,1.33-5.84,2.82-11.45,4.48-16.83s3.09-9.66,4.28-12.85c1.99-5.18,4.31-10.82,6.97-16.93,2.66-6.11,5.64-12.15,8.96-18.13,3.32-5.98,6.97-11.55,10.96-16.73,3.98-5.18,8.3-9.49,12.95-12.95,2.52-1.86,4.88-3.09,7.07-3.69s4.01-.6,5.48,0c1.46.6,2.39,1.86,2.79,3.79.4,1.93,0,4.55-1.2,7.87-1.06,3.06-2.82,6.61-5.28,10.66s-5.81,8.53-10.06,13.45-9.43,10.23-15.54,15.94-13.35,11.75-21.71,18.13c-1.2,3.32-2.66,7.57-4.38,12.75s-3.25,10.59-4.58,16.23c-1.33,5.65-2.26,11.15-2.79,16.53-.53,5.38-.26,9.93.8,13.65,1.46,4.78,3.65,7.04,6.57,6.77,2.92-.27,5.24-2.79,6.97-7.57,1.46-3.85,1.72-8.8.8-14.84-.93-6.04-3.92-12.78-8.96-20.22,0-.53.13-.8.4-.8,4.91-.4,9.53-1.16,13.84-2.29,4.31-1.13,8.57-2.62,12.75-4.48s8.4-4.12,12.65-6.77c4.25-2.65,8.89-5.78,13.94-9.36.4-.26.7-.26.9,0,.2.27.03.53-.5.8-9.03,6.64-17.73,11.95-26.09,15.93-8.37,3.98-17.33,6.31-26.89,6.97v-.02ZM59.41,90.86c16.07-12.22,28.12-23.21,36.15-32.97s13.05-17.63,15.04-23.6c1.2-3.19,1.59-5.68,1.2-7.47s-1.23-2.92-2.49-3.39c-1.26-.46-2.89-.36-4.88.3-1.99.67-4.05,1.79-6.17,3.39-4.52,3.32-8.7,7.57-12.55,12.75-3.85,5.18-7.44,10.69-10.76,16.53s-6.27,11.79-8.86,17.83c-2.59,6.04-4.81,11.59-6.67,16.63h0Z" style="fill:#414042; stroke-width:0px;"></path><path d="M123.55,54.01c-3.19,6.37-6.21,13.05-9.06,20.02-2.86,6.97-5.15,13.51-6.87,19.62-2.26,8.9-3.16,15.37-2.69,19.42.46,4.05,2.02,6.27,4.68,6.67,2.52.4,5.94-.5,10.26-2.69,4.31-2.19,8.76-4.81,13.35-7.87,4.58-3.05,8.96-6.17,13.15-9.36,4.18-3.19,7.47-5.71,9.86-7.57.26-.26.56-.3.9-.1.33.2.16.5-.5.9-2.39,1.86-5.68,4.38-9.86,7.57-4.18,3.19-8.6,6.31-13.25,9.36-4.65,3.06-9.13,5.68-13.45,7.87s-7.8,3.09-10.46,2.69c-3.06-.4-4.95-2.72-5.68-6.97s.03-11.02,2.29-20.32c1.72-5.98,3.98-12.48,6.77-19.52,2.79-7.04,5.71-13.68,8.76-19.92-3.72-.26-7.27-.43-10.66-.5s-6.37.03-8.96.3-4.65.83-6.17,1.69c-1.53.87-2.36,2.03-2.49,3.49-.13.67-.46.93-1,.8-.53-.13-.66-.53-.4-1.2.53-1.59,1.73-2.82,3.58-3.68,1.86-.86,4.15-1.46,6.87-1.79s5.78-.46,9.16-.4c3.39.07,6.94.23,10.66.5,1.86-3.72,3.49-6.77,4.88-9.16,1.39-2.39,2.42-4.05,3.09-4.98.26-.26.6-.33,1-.2s.46.4.2.8c-.8,1.46-1.83,3.32-3.09,5.58-1.26,2.26-2.76,4.98-4.48,8.17,6.77.67,13.31,1.2,19.62,1.59,6.31.4,11.98.53,17.03.4,5.04-.13,9.23-.56,12.55-1.29s5.38-1.96,6.18-3.68c.13-.26.4-.33.8-.2.4.13.4.47,0,1-1.19,1.73-3.62,2.96-7.27,3.69-3.65.73-8.07,1.16-13.25,1.29s-10.89,0-17.13-.4-12.55-.93-18.92-1.59v-.03Z" style="fill:#414042; stroke-width:0px;"></path><path d="M164.38,89.07c.93.27,1.46.8,1.59,1.59.13.8-.47,1.53-1.79,2.19-.8.27-1.76.5-2.89.7s-2.49.17-4.08-.1c-.8,1.06-1.53,2.29-2.19,3.68-.67,1.39-1.2,2.86-1.59,4.38-.4,1.53-.53,3.02-.4,4.48.13,1.46.6,2.66,1.39,3.58.93,1.2,2.22,1.93,3.88,2.19,1.66.27,3.42.3,5.28.1,1.86-.2,3.69-.56,5.48-1.1,1.79-.53,3.35-1.06,4.68-1.59,5.04-2.12,10.06-4.81,15.04-8.07,4.98-3.25,9.06-6.21,12.25-8.86.26-.26.56-.3.9-.1.33.2.17.5-.5.9-1.59,1.19-3.42,2.56-5.48,4.08-2.06,1.53-4.28,3.06-6.67,4.58-2.39,1.53-4.88,2.99-7.47,4.38s-5.15,2.62-7.67,3.68c-1.99.8-4.25,1.53-6.77,2.19-2.52.67-4.88.96-7.07.9-2.19-.07-4.12-.63-5.78-1.69-1.66-1.06-2.69-2.79-3.09-5.18s-.07-4.98,1-7.77,2.39-4.91,3.98-6.37c1.06-.93,2.29-1.69,3.69-2.29s2.82-.76,4.28-.5v.02ZM158.01,92.66c2.52.4,4.45.27,5.78-.4,1.06-.53,1.56-1.1,1.49-1.69-.07-.6-.63-.9-1.69-.9-.93,0-1.93.23-2.99.7-1.06.47-1.93,1.23-2.59,2.29Z" style="fill:#414042; stroke-width:0px;"></path><path d="M199.84,90.06c-.67-2.26-.13-4.25,1.59-5.98.93-1.06,2.06-1.66,3.39-1.79s2.29.17,2.89.9.56,1.86-.1,3.39c-.67,1.53-2.39,3.42-5.18,5.68,1.59,1.46,2.75,2.39,3.49,2.79.73.4.76,1.46.1,3.19-.4,1.06-.93,2.42-1.59,4.08-.67,1.66-1.1,3.29-1.29,4.88-.2,1.59-.13,3.06.2,4.38.33,1.33,1.29,2.26,2.89,2.79,2.26.67,5.34.1,9.26-1.69s7.97-4.01,12.15-6.67c4.18-2.66,8.07-5.31,11.65-7.97,3.59-2.66,6.17-4.58,7.77-5.78.26-.26.56-.3.9-.1.33.2.17.5-.5.9-1.59,1.19-4.22,3.16-7.87,5.88-3.65,2.72-7.57,5.41-11.75,8.07s-8.3,4.88-12.35,6.67-7.27,2.29-9.66,1.49c-1.86-.53-3.06-1.49-3.59-2.89-.53-1.39-.73-2.92-.6-4.58.13-1.66.5-3.39,1.1-5.18s1.1-3.29,1.49-4.48c.26-.66.4-1.2.4-1.59s-.2-.86-.6-1.39c-1.06-.93-1.96-1.69-2.69-2.29s-1.23-1.49-1.49-2.69v-.02ZM201.63,91.65c2.66-2.12,4.31-3.85,4.98-5.18.66-1.33.8-2.26.4-2.79-.4-.53-1.13-.66-2.19-.4-1.06.27-1.99.87-2.79,1.79-.67.93-1.1,2.03-1.29,3.29-.2,1.26.1,2.36.9,3.29h0Z" style="fill:#414042; stroke-width:0px;"></path><path d="M256.4,92.85c0,.4-.23.67-.7.8-.47.13-.63-.13-.5-.8.13-1.59-.53-2.29-1.99-2.09-1.46.2-2.72.63-3.79,1.29-1.46.93-2.79,2.19-3.98,3.78s-2.09,3.29-2.69,5.08-.9,3.55-.9,5.28.47,3.12,1.39,4.18c1.2,1.33,2.85,2.06,4.98,2.19,2.12.13,4.38-.07,6.77-.6s4.75-1.26,7.07-2.19,4.35-1.79,6.08-2.59c1.99-.93,4.05-1.99,6.17-3.19,2.12-1.2,4.21-2.46,6.27-3.78,2.06-1.33,4.05-2.69,5.98-4.08,1.92-1.39,3.62-2.69,5.08-3.88.26-.26.56-.3.9-.1.33.2.17.5-.5.9-3.85,2.92-7.74,5.68-11.65,8.27-3.92,2.59-7.94,4.81-12.05,6.67-1.99.93-4.18,1.86-6.57,2.79s-4.78,1.66-7.17,2.19-4.65.7-6.77.5c-2.12-.2-3.85-.96-5.18-2.29-1.86-1.72-2.62-4.15-2.29-7.27.33-3.12,1.43-5.94,3.29-8.47,1.06-1.33,2.36-2.55,3.88-3.68,1.53-1.13,3.22-1.69,5.08-1.69,1.99,0,3.25.93,3.78,2.79h0Z" style="fill:#414042; stroke-width:0px;"></path><path d="M294.85,104.8c-2.52,2.52-4.58,3.72-6.17,3.59-.8-.13-1.43-.63-1.89-1.49-.46-.86-.7-1.82-.7-2.89-.26-2.52.43-5.18,2.09-7.97s3.88-4.71,6.67-5.78c1.46-.53,3.02-.7,4.68-.5s3.29.9,4.88,2.09l2.59-3.98c.26-.26.66-.33,1.2-.2.53.13.66.33.4.6-.67,1.06-1.49,2.56-2.49,4.48-1,1.93-1.93,3.98-2.79,6.17-.87,2.19-1.59,4.38-2.19,6.57s-.77,4.08-.5,5.68c.26,1.86,1,2.96,2.19,3.29,1.2.33,2.59.3,4.18-.1,2.39-.53,5.25-1.69,8.57-3.49,3.32-1.79,6.67-3.82,10.06-6.08,3.39-2.26,6.64-4.51,9.76-6.77,3.12-2.26,5.74-4.18,7.87-5.78.26-.26.53-.26.8,0,.26.27.13.53-.4.8-2.26,1.59-4.91,3.55-7.97,5.88-3.06,2.33-6.27,4.58-9.66,6.77-3.39,2.19-6.71,4.15-9.96,5.88-3.26,1.73-6.14,2.92-8.67,3.59-1.99.53-3.65.57-4.98.1-1.33-.46-2.26-1.69-2.79-3.69-.53-1.86-.4-4.35.4-7.47s1.72-6.01,2.79-8.67c-1.06,1.33-2.39,2.99-3.98,4.98-1.59,1.99-2.92,3.45-3.98,4.38h0ZM303.81,92.65c-2.66-1.99-5.31-2.52-7.97-1.59-1.86.67-3.52,1.93-4.98,3.78-1.46,1.86-2.46,3.92-2.99,6.18-.4,1.33-.6,2.69-.6,4.08s.53,2.23,1.59,2.49c1.46.27,3.45-1,5.98-3.79,1.59-1.86,3.22-3.78,4.88-5.78,1.66-1.99,3.02-3.79,4.08-5.38h.01Z" style="fill:#414042; stroke-width:0px;"></path><path d="M342.05,90.06c-.67-2.26-.13-4.25,1.59-5.98.93-1.06,2.06-1.66,3.39-1.79,1.33-.13,2.29.17,2.89.9s.56,1.86-.1,3.39c-.67,1.53-2.39,3.42-5.18,5.68,1.59,1.46,2.75,2.39,3.49,2.79.73.4.76,1.46.1,3.19-.4,1.06-.93,2.42-1.59,4.08-.67,1.66-1.1,3.29-1.29,4.88-.2,1.59-.13,3.06.2,4.38.33,1.33,1.29,2.26,2.89,2.79,2.26.67,5.34.1,9.26-1.69s7.97-4.01,12.15-6.67c4.18-2.66,8.07-5.31,11.65-7.97,3.59-2.66,6.17-4.58,7.77-5.78.26-.26.56-.3.9-.1.33.2.17.5-.5.9-1.59,1.19-4.22,3.16-7.87,5.88-3.65,2.72-7.57,5.41-11.75,8.07s-8.3,4.88-12.35,6.67c-4.05,1.79-7.27,2.29-9.66,1.49-1.86-.53-3.06-1.49-3.59-2.89-.53-1.39-.73-2.92-.6-4.58s.5-3.39,1.1-5.18,1.1-3.29,1.49-4.48c.26-.66.4-1.2.4-1.59s-.2-.86-.6-1.39c-1.06-.93-1.96-1.69-2.69-2.29s-1.23-1.49-1.49-2.69v-.02ZM343.84,91.65c2.66-2.12,4.31-3.85,4.98-5.18.66-1.33.8-2.26.4-2.79s-1.13-.66-2.19-.4c-1.06.27-1.99.87-2.79,1.79-.67.93-1.1,2.03-1.29,3.29-.2,1.26.1,2.36.9,3.29h0Z" style="fill:#414042; stroke-width:0px;"></path><path d="M397.43,89.07c.93.27,1.46.8,1.59,1.59.13.8-.47,1.53-1.79,2.19-.8.27-1.76.5-2.89.7s-2.49.17-4.08-.1c-.8,1.06-1.53,2.29-2.19,3.68-.67,1.39-1.2,2.86-1.59,4.38-.4,1.53-.53,3.02-.4,4.48.13,1.46.6,2.66,1.39,3.58.93,1.2,2.22,1.93,3.88,2.19,1.66.27,3.42.3,5.28.1,1.86-.2,3.69-.56,5.48-1.1,1.79-.53,3.35-1.06,4.68-1.59,5.04-2.12,10.06-4.81,15.04-8.07,4.98-3.25,9.06-6.21,12.25-8.86.26-.26.56-.3.9-.1.33.2.17.5-.5.9-1.59,1.19-3.42,2.56-5.48,4.08-2.06,1.53-4.28,3.06-6.67,4.58-2.39,1.53-4.88,2.99-7.47,4.38s-5.15,2.62-7.67,3.68c-1.99.8-4.25,1.53-6.77,2.19-2.52.67-4.88.96-7.07.9-2.19-.07-4.12-.63-5.78-1.69-1.66-1.06-2.69-2.79-3.09-5.18s-.07-4.98,1-7.77,2.39-4.91,3.98-6.37c1.06-.93,2.29-1.69,3.69-2.29s2.82-.76,4.28-.5v.02ZM391.06,92.66c2.52.4,4.45.27,5.78-.4,1.06-.53,1.56-1.1,1.49-1.69-.07-.6-.63-.9-1.69-.9-.93,0-1.93.23-2.99.7-1.06.47-1.93,1.23-2.59,2.29Z" style="fill:#414042; stroke-width:0px;"></path></g><path d="M254.09,55.47l-18.84-45.06h-.23v45.06h-5.05V1.31h6.66l18.74,45.06h.23V1.31h4.9v54.17h-6.41Z" style="fill:#231f20; stroke-width:0px;"></path><path d="M296.07,55.47l-3.29-13.54h-16.68l-3.44,13.54h-5.43l13.77-54.17h7.27l13.39,54.17h-5.58ZM284.67,6.13h-.31l-7.5,31.52h15.15l-7.34-31.52Z" style="fill:#231f20; stroke-width:0px;"></path><path d="M332.5,55.47l-18.84-45.06h-.23v45.06h-5.05V1.31h6.66l18.74,45.06h.23V1.31h4.9v54.17h-6.41Z" style="fill:#231f20; stroke-width:0px;"></path><path d="M384.81,28.32c0,4.23-.41,8.1-1.22,11.59-.82,3.49-1.99,6.49-3.52,8.99s-3.39,4.44-5.58,5.81c-2.19,1.38-4.69,2.07-7.5,2.07s-5.32-.69-7.54-2.07c-2.22-1.38-4.11-3.32-5.66-5.81-1.56-2.5-2.74-5.5-3.56-8.99-.82-3.49-1.22-7.36-1.22-11.59s.39-8.02,1.19-11.51c.79-3.49,1.95-6.48,3.48-8.95,1.53-2.47,3.4-4.4,5.62-5.78S364.08,0,366.99,0s5.3.69,7.5,2.07c2.19,1.38,4.05,3.3,5.58,5.78,1.53,2.47,2.7,5.46,3.52,8.95.82,3.49,1.22,7.33,1.22,11.51ZM379.23,28.32c0-3.26-.26-6.32-.76-9.18-.51-2.86-1.29-5.33-2.33-7.42-1.05-2.09-2.33-3.75-3.86-4.97-1.53-1.22-3.29-1.84-5.28-1.84-2.09,0-3.91.61-5.47,1.84-1.56,1.22-2.84,2.88-3.86,4.97-1.02,2.09-1.79,4.57-2.29,7.42-.51,2.86-.77,5.92-.77,9.18s.25,6.33.77,9.18c.51,2.86,1.27,5.36,2.29,7.5,1.02,2.14,2.31,3.83,3.86,5.05,1.56,1.22,3.38,1.84,5.47,1.84s3.83-.61,5.36-1.84c1.53-1.22,2.8-2.91,3.83-5.05,1.02-2.14,1.79-4.64,2.3-7.5.51-2.86.76-5.92.76-9.18Z" style="fill:#231f20; stroke-width:0px;"></path><path d="M422.83,40.71c0,2.81-.45,5.15-1.34,7.04-.89,1.89-2.03,3.4-3.4,4.55s-2.9,1.96-4.55,2.45c-1.66.49-3.25.73-4.78.73h-13.85V1.31h12.28c1.54,0,3.12.2,4.76.61,1.64.41,3.13,1.11,4.49,2.1,1.36.99,2.47,2.35,3.34,4.05.87,1.71,1.3,3.86,1.3,6.46,0,1.84-.22,3.43-.66,4.78-.44,1.35-1.02,2.52-1.74,3.52-.72.99-1.55,1.81-2.47,2.45-.93.64-1.88,1.13-2.86,1.49v.15c.97.2,2.01.61,3.14,1.22,1.12.61,2.15,1.47,3.1,2.56.94,1.1,1.72,2.47,2.33,4.13.61,1.66.92,3.61.92,5.85ZM416.03,15.35c0-1.78-.27-3.28-.8-4.49-.54-1.22-1.25-2.2-2.14-2.93-.89-.74-1.9-1.26-3.02-1.56-1.12-.3-2.27-.46-3.44-.46h-6.66v19.13h6.81c1.12,0,2.23-.18,3.33-.53,1.1-.35,2.08-.93,2.95-1.71s1.58-1.79,2.14-3.01c.56-1.22.84-2.69.84-4.42ZM417.55,40.36c0-2.03-.31-3.75-.92-5.14-.61-1.4-1.4-2.53-2.37-3.39-.97-.86-2.05-1.5-3.25-1.91s-2.36-.61-3.48-.61h-7.57v21.58h7.57c1.38,0,2.68-.2,3.9-.61,1.22-.41,2.29-1.04,3.21-1.91.92-.86,1.63-1.96,2.14-3.28.51-1.32.76-2.9.76-4.73Z" style="fill:#231f20; stroke-width:0px;"></path><path d="M432.09,55.47V1.31h5.35v49.19h15.45v4.97h-20.81Z" style="fill:#231f20; stroke-width:0px;"></path><path d="M482.58,55.47l-3.29-13.54h-16.68l-3.44,13.54h-5.43l13.77-54.17h7.27l13.39,54.17h-5.58ZM471.18,6.13h-.31l-7.5,31.52h15.15l-7.34-31.52Z" style="fill:#231f20; stroke-width:0px;"></path><path d="M526.19,28.47c0,4.44-.46,8.34-1.38,11.71s-2.25,6.18-3.98,8.45c-1.73,2.27-3.81,3.98-6.24,5.12-2.42,1.15-5.11,1.72-8.07,1.72h-11.63V1.31h11.71c2.96,0,5.65.57,8.07,1.72,2.42,1.15,4.49,2.87,6.2,5.16,1.71,2.3,3.02,5.14,3.94,8.53.92,3.39,1.38,7.31,1.38,11.74ZM520.91,28.47c0-3.84-.37-7.18-1.11-10.02-.74-2.84-1.76-5.18-3.06-7.02-1.3-1.84-2.83-3.22-4.59-4.15-1.76-.92-3.66-1.38-5.7-1.38h-6.27v44.99h6.27c2.04,0,3.94-.46,5.7-1.38,1.76-.92,3.29-2.3,4.59-4.15,1.3-1.84,2.32-4.17,3.06-6.99.74-2.81,1.11-6.12,1.11-9.9Z" style="fill:#231f20; stroke-width:0px;"></path><path d="M536.29,55.47V1.31h5.35v54.17h-5.35Z" style="fill:#231f20; stroke-width:0px;"></path><path d="M578.15,55.47l-18.84-45.06h-.23v45.06h-5.05V1.31h6.66l18.74,45.06h.23V1.31h4.9v54.17h-6.41Z" style="fill:#231f20; stroke-width:0px;"></path><path d="M621.24,55.29c-2.12.79-4.6,1.18-7.46,1.18-3.01,0-5.71-.66-8.11-1.99-2.4-1.33-4.41-3.21-6.04-5.66-1.63-2.45-2.88-5.41-3.75-8.87-.87-3.47-1.3-7.34-1.3-11.63,0-4.03.42-7.78,1.26-11.25.84-3.47,2.05-6.46,3.63-8.99,1.58-2.52,3.52-4.5,5.81-5.93,2.29-1.43,4.9-2.14,7.8-2.14,2.65,0,5.07.54,7.27,1.61,2.19,1.07,4.03,2.75,5.51,5.05l-3.44,3.52c-1.17-1.78-2.54-3.12-4.09-4.02-1.56-.89-3.23-1.34-5.01-1.34-2.25,0-4.18.63-5.81,1.88-1.63,1.25-3,2.95-4.09,5.09-1.1,2.14-1.91,4.63-2.45,7.46-.54,2.83-.8,5.85-.8,9.07s.28,6.48.84,9.33c.56,2.86,1.42,5.32,2.56,7.38,1.15,2.07,2.58,3.69,4.28,4.86,1.71,1.17,3.68,1.76,5.93,1.76,1.63,0,3.1-.2,4.4-.61,1.3-.41,2.38-.99,3.25-1.76v-18.36h-7.73v-4.59h12.93v25.79c-1.48,1.32-3.28,2.38-5.39,3.17Z" style="fill:#231f20; stroke-width:0px;"></path></svg>