<?xml version="1.0" encoding="UTF-8"?> <svg xmlns="http://www.w3.org/2000/svg" id="Layer_2" viewBox="0 0 535.6 159.29"><g id="Layer_1-2"><g><g><path d="M8.82,104.8c-2.52,2.52-4.58,3.72-6.17,3.59-.8-.13-1.43-.63-1.89-1.49-.46-.86-.7-1.82-.7-2.89-.26-2.52,.43-5.18,2.09-7.97,1.66-2.79,3.88-4.71,6.67-5.78,1.46-.53,3.02-.7,4.68-.5,1.66,.2,3.29,.9,4.88,2.09l2.59-3.98c.26-.26,.66-.33,1.2-.2,.53,.13,.66,.33,.4,.6-.67,1.06-1.49,2.56-2.49,4.48-1,1.93-1.93,3.98-2.79,6.17-.87,2.19-1.59,4.38-2.19,6.57s-.77,4.08-.5,5.68c.26,1.86,1,2.96,2.19,3.29,1.2,.33,2.59,.3,4.18-.1,2.39-.53,5.25-1.69,8.57-3.49,3.32-1.79,6.67-3.82,10.06-6.08,3.39-2.26,6.64-4.51,9.76-6.77,3.12-2.26,5.74-4.18,7.87-5.78,.26-.26,.53-.26,.8,0,.26,.27,.13,.53-.4,.8-2.26,1.59-4.91,3.55-7.97,5.88-3.06,2.33-6.27,4.58-9.66,6.77-3.39,2.19-6.71,4.15-9.96,5.88-3.26,1.73-6.14,2.92-8.67,3.59-1.99,.53-3.65,.57-4.98,.1-1.33-.46-2.26-1.69-2.79-3.69-.53-1.86-.4-4.35,.4-7.47,.8-3.12,1.72-6.01,2.79-8.67-1.06,1.33-2.39,2.99-3.98,4.98-1.59,1.99-2.92,3.45-3.98,4.38Zm8.96-12.15c-2.66-1.99-5.31-2.52-7.97-1.59-1.86,.67-3.52,1.93-4.98,3.78-1.46,1.86-2.46,3.92-2.99,6.18-.4,1.33-.6,2.69-.6,4.08s.53,2.23,1.59,2.49c1.46,.27,3.45-1,5.98-3.79,1.59-1.86,3.22-3.78,4.88-5.78,1.66-1.99,3.02-3.79,4.08-5.38Z" style="fill:#414042;"></path><path d="M54.23,115.96c5.04,7.57,8,14.41,8.86,20.52,.86,6.11,.56,11.09-.9,14.94-.93,2.52-2.13,4.45-3.59,5.78-1.46,1.33-2.96,2.02-4.48,2.09-1.53,.06-2.95-.5-4.28-1.69-1.33-1.2-2.39-3.06-3.19-5.58-1.2-3.72-1.49-8.37-.9-13.94,.6-5.58,1.56-11.29,2.89-17.13,1.33-5.84,2.82-11.45,4.48-16.83s3.09-9.66,4.28-12.85c1.99-5.18,4.31-10.82,6.97-16.93,2.66-6.11,5.64-12.15,8.96-18.13,3.32-5.98,6.97-11.55,10.96-16.73,3.98-5.18,8.3-9.49,12.95-12.95,2.52-1.86,4.88-3.09,7.07-3.69s4.01-.6,5.48,0c1.46,.6,2.39,1.86,2.79,3.79,.4,1.93,0,4.55-1.2,7.87-1.06,3.06-2.82,6.61-5.28,10.66-2.46,4.05-5.81,8.53-10.06,13.45-4.25,4.92-9.43,10.23-15.54,15.94-6.11,5.71-13.35,11.75-21.71,18.13-1.2,3.32-2.66,7.57-4.38,12.75s-3.25,10.59-4.58,16.23c-1.33,5.65-2.26,11.15-2.79,16.53-.53,5.38-.26,9.93,.8,13.65,1.46,4.78,3.65,7.04,6.57,6.77,2.92-.27,5.24-2.79,6.97-7.57,1.46-3.85,1.72-8.8,.8-14.84-.93-6.04-3.92-12.78-8.96-20.22,0-.53,.13-.8,.4-.8,4.91-.4,9.53-1.16,13.84-2.29,4.31-1.13,8.57-2.62,12.75-4.48,4.18-1.86,8.4-4.12,12.65-6.77,4.25-2.65,8.89-5.78,13.94-9.36,.4-.26,.7-.26,.9,0,.2,.27,.03,.53-.5,.8-9.03,6.64-17.73,11.95-26.09,15.93-8.37,3.98-17.33,6.31-26.89,6.97Zm5.18-25.1c16.07-12.22,28.12-23.21,36.15-32.97,8.03-9.76,13.05-17.63,15.04-23.6,1.2-3.19,1.59-5.68,1.2-7.47s-1.23-2.92-2.49-3.39c-1.26-.46-2.89-.36-4.88,.3-1.99,.67-4.05,1.79-6.17,3.39-4.52,3.32-8.7,7.57-12.55,12.75-3.85,5.18-7.44,10.69-10.76,16.53-3.32,5.84-6.27,11.79-8.86,17.83-2.59,6.04-4.81,11.59-6.67,16.63Z" style="fill:#414042;"></path><path d="M123.55,54.01c-3.19,6.37-6.21,13.05-9.06,20.02-2.86,6.97-5.15,13.51-6.87,19.62-2.26,8.9-3.16,15.37-2.69,19.42,.46,4.05,2.02,6.27,4.68,6.67,2.52,.4,5.94-.5,10.26-2.69,4.31-2.19,8.76-4.81,13.35-7.87,4.58-3.05,8.96-6.17,13.15-9.36,4.18-3.19,7.47-5.71,9.86-7.57,.26-.26,.56-.3,.9-.1,.33,.2,.16,.5-.5,.9-2.39,1.86-5.68,4.38-9.86,7.57-4.18,3.19-8.6,6.31-13.25,9.36-4.65,3.06-9.13,5.68-13.45,7.87-4.32,2.19-7.8,3.09-10.46,2.69-3.06-.4-4.95-2.72-5.68-6.97-.73-4.25,.03-11.02,2.29-20.32,1.72-5.98,3.98-12.48,6.77-19.52,2.79-7.04,5.71-13.68,8.76-19.92-3.72-.26-7.27-.43-10.66-.5-3.39-.07-6.37,.03-8.96,.3-2.59,.27-4.65,.83-6.17,1.69-1.53,.87-2.36,2.03-2.49,3.49-.13,.67-.46,.93-1,.8-.53-.13-.66-.53-.4-1.2,.53-1.59,1.73-2.82,3.58-3.68,1.86-.86,4.15-1.46,6.87-1.79,2.72-.33,5.78-.46,9.16-.4,3.39,.07,6.94,.23,10.66,.5,1.86-3.72,3.49-6.77,4.88-9.16,1.39-2.39,2.42-4.05,3.09-4.98,.26-.26,.6-.33,1-.2,.4,.13,.46,.4,.2,.8-.8,1.46-1.83,3.32-3.09,5.58-1.26,2.26-2.76,4.98-4.48,8.17,6.77,.67,13.31,1.2,19.62,1.59,6.31,.4,11.98,.53,17.03,.4,5.04-.13,9.23-.56,12.55-1.29,3.32-.73,5.38-1.96,6.18-3.68,.13-.26,.4-.33,.8-.2,.4,.13,.4,.47,0,1-1.19,1.73-3.62,2.96-7.27,3.69-3.65,.73-8.07,1.16-13.25,1.29-5.18,.13-10.89,0-17.13-.4-6.24-.4-12.55-.93-18.92-1.59Z" style="fill:#414042;"></path><path d="M164.38,89.07c.93,.27,1.46,.8,1.59,1.59,.13,.8-.47,1.53-1.79,2.19-.8,.27-1.76,.5-2.89,.7-1.13,.2-2.49,.17-4.08-.1-.8,1.06-1.53,2.29-2.19,3.68-.67,1.39-1.2,2.86-1.59,4.38-.4,1.53-.53,3.02-.4,4.48,.13,1.46,.6,2.66,1.39,3.58,.93,1.2,2.22,1.93,3.88,2.19,1.66,.27,3.42,.3,5.28,.1,1.86-.2,3.69-.56,5.48-1.1,1.79-.53,3.35-1.06,4.68-1.59,5.04-2.12,10.06-4.81,15.04-8.07,4.98-3.25,9.06-6.21,12.25-8.86,.26-.26,.56-.3,.9-.1,.33,.2,.17,.5-.5,.9-1.59,1.19-3.42,2.56-5.48,4.08-2.06,1.53-4.28,3.06-6.67,4.58-2.39,1.53-4.88,2.99-7.47,4.38s-5.15,2.62-7.67,3.68c-1.99,.8-4.25,1.53-6.77,2.19-2.52,.67-4.88,.96-7.07,.9-2.19-.07-4.12-.63-5.78-1.69-1.66-1.06-2.69-2.79-3.09-5.18s-.07-4.98,1-7.77,2.39-4.91,3.98-6.37c1.06-.93,2.29-1.69,3.69-2.29s2.82-.76,4.28-.5Zm-6.37,3.59c2.52,.4,4.45,.27,5.78-.4,1.06-.53,1.56-1.1,1.49-1.69-.07-.6-.63-.9-1.69-.9-.93,0-1.93,.23-2.99,.7-1.06,.47-1.93,1.23-2.59,2.29Z" style="fill:#414042;"></path><path d="M199.84,90.06c-.67-2.26-.13-4.25,1.59-5.98,.93-1.06,2.06-1.66,3.39-1.79,1.33-.13,2.29,.17,2.89,.9,.6,.73,.56,1.86-.1,3.39-.67,1.53-2.39,3.42-5.18,5.68,1.59,1.46,2.75,2.39,3.49,2.79,.73,.4,.76,1.46,.1,3.19-.4,1.06-.93,2.42-1.59,4.08-.67,1.66-1.1,3.29-1.29,4.88-.2,1.59-.13,3.06,.2,4.38,.33,1.33,1.29,2.26,2.89,2.79,2.26,.67,5.34,.1,9.26-1.69,3.92-1.79,7.97-4.01,12.15-6.67,4.18-2.66,8.07-5.31,11.65-7.97,3.59-2.66,6.17-4.58,7.77-5.78,.26-.26,.56-.3,.9-.1,.33,.2,.17,.5-.5,.9-1.59,1.19-4.22,3.16-7.87,5.88-3.65,2.72-7.57,5.41-11.75,8.07-4.18,2.66-8.3,4.88-12.35,6.67-4.05,1.79-7.27,2.29-9.66,1.49-1.86-.53-3.06-1.49-3.59-2.89-.53-1.39-.73-2.92-.6-4.58,.13-1.66,.5-3.39,1.1-5.18,.6-1.79,1.1-3.29,1.49-4.48,.26-.66,.4-1.2,.4-1.59s-.2-.86-.6-1.39c-1.06-.93-1.96-1.69-2.69-2.29-.73-.6-1.23-1.49-1.49-2.69Zm1.79,1.59c2.66-2.12,4.31-3.85,4.98-5.18,.66-1.33,.8-2.26,.4-2.79-.4-.53-1.13-.66-2.19-.4-1.06,.27-1.99,.87-2.79,1.79-.67,.93-1.1,2.03-1.29,3.29-.2,1.26,.1,2.36,.9,3.29Z" style="fill:#414042;"></path><path d="M256.4,92.85c0,.4-.23,.67-.7,.8-.47,.13-.63-.13-.5-.8,.13-1.59-.53-2.29-1.99-2.09-1.46,.2-2.72,.63-3.79,1.29-1.46,.93-2.79,2.19-3.98,3.78s-2.09,3.29-2.69,5.08c-.6,1.79-.9,3.55-.9,5.28s.47,3.12,1.39,4.18c1.2,1.33,2.85,2.06,4.98,2.19,2.12,.13,4.38-.07,6.77-.6,2.39-.53,4.75-1.26,7.07-2.19,2.32-.93,4.35-1.79,6.08-2.59,1.99-.93,4.05-1.99,6.17-3.19,2.12-1.2,4.21-2.46,6.27-3.78,2.06-1.33,4.05-2.69,5.98-4.08,1.92-1.39,3.62-2.69,5.08-3.88,.26-.26,.56-.3,.9-.1,.33,.2,.17,.5-.5,.9-3.85,2.92-7.74,5.68-11.65,8.27-3.92,2.59-7.94,4.81-12.05,6.67-1.99,.93-4.18,1.86-6.57,2.79-2.39,.93-4.78,1.66-7.17,2.19-2.39,.53-4.65,.7-6.77,.5-2.12-.2-3.85-.96-5.18-2.29-1.86-1.72-2.62-4.15-2.29-7.27,.33-3.12,1.43-5.94,3.29-8.47,1.06-1.33,2.36-2.55,3.88-3.68,1.53-1.13,3.22-1.69,5.08-1.69,1.99,0,3.25,.93,3.78,2.79Z" style="fill:#414042;"></path><path d="M294.85,104.8c-2.52,2.52-4.58,3.72-6.17,3.59-.8-.13-1.43-.63-1.89-1.49-.46-.86-.7-1.82-.7-2.89-.26-2.52,.43-5.18,2.09-7.97,1.66-2.79,3.88-4.71,6.67-5.78,1.46-.53,3.02-.7,4.68-.5,1.66,.2,3.29,.9,4.88,2.09l2.59-3.98c.26-.26,.66-.33,1.2-.2,.53,.13,.66,.33,.4,.6-.67,1.06-1.49,2.56-2.49,4.48-1,1.93-1.93,3.98-2.79,6.17-.87,2.19-1.59,4.38-2.19,6.57s-.77,4.08-.5,5.68c.26,1.86,1,2.96,2.19,3.29,1.2,.33,2.59,.3,4.18-.1,2.39-.53,5.25-1.69,8.57-3.49,3.32-1.79,6.67-3.82,10.06-6.08,3.39-2.26,6.64-4.51,9.76-6.77,3.12-2.26,5.74-4.18,7.87-5.78,.26-.26,.53-.26,.8,0,.26,.27,.13,.53-.4,.8-2.26,1.59-4.91,3.55-7.97,5.88-3.06,2.33-6.27,4.58-9.66,6.77-3.39,2.19-6.71,4.15-9.96,5.88-3.26,1.73-6.14,2.92-8.67,3.59-1.99,.53-3.65,.57-4.98,.1-1.33-.46-2.26-1.69-2.79-3.69-.53-1.86-.4-4.35,.4-7.47,.8-3.12,1.72-6.01,2.79-8.67-1.06,1.33-2.39,2.99-3.98,4.98-1.59,1.99-2.92,3.45-3.98,4.38Zm8.96-12.15c-2.66-1.99-5.31-2.52-7.97-1.59-1.86,.67-3.52,1.93-4.98,3.78-1.46,1.86-2.46,3.92-2.99,6.18-.4,1.33-.6,2.69-.6,4.08s.53,2.23,1.59,2.49c1.46,.27,3.45-1,5.98-3.79,1.59-1.86,3.22-3.78,4.88-5.78,1.66-1.99,3.02-3.79,4.08-5.38Z" style="fill:#414042;"></path><path d="M342.05,90.06c-.67-2.26-.13-4.25,1.59-5.98,.93-1.06,2.06-1.66,3.39-1.79,1.33-.13,2.29,.17,2.89,.9,.6,.73,.56,1.86-.1,3.39-.67,1.53-2.39,3.42-5.18,5.68,1.59,1.46,2.75,2.39,3.49,2.79,.73,.4,.76,1.46,.1,3.19-.4,1.06-.93,2.42-1.59,4.08-.67,1.66-1.1,3.29-1.29,4.88-.2,1.59-.13,3.06,.2,4.38,.33,1.33,1.29,2.26,2.89,2.79,2.26,.67,5.34,.1,9.26-1.69,3.92-1.79,7.97-4.01,12.15-6.67,4.18-2.66,8.07-5.31,11.65-7.97,3.59-2.66,6.17-4.58,7.77-5.78,.26-.26,.56-.3,.9-.1,.33,.2,.17,.5-.5,.9-1.59,1.19-4.22,3.16-7.87,5.88-3.65,2.72-7.57,5.41-11.75,8.07-4.18,2.66-8.3,4.88-12.35,6.67-4.05,1.79-7.27,2.29-9.66,1.49-1.86-.53-3.06-1.49-3.59-2.89-.53-1.39-.73-2.92-.6-4.58,.13-1.66,.5-3.39,1.1-5.18,.6-1.79,1.1-3.29,1.49-4.48,.26-.66,.4-1.2,.4-1.59s-.2-.86-.6-1.39c-1.06-.93-1.96-1.69-2.69-2.29-.73-.6-1.23-1.49-1.49-2.69Zm1.79,1.59c2.66-2.12,4.31-3.85,4.98-5.18,.66-1.33,.8-2.26,.4-2.79-.4-.53-1.13-.66-2.19-.4-1.06,.27-1.99,.87-2.79,1.79-.67,.93-1.1,2.03-1.29,3.29-.2,1.26,.1,2.36,.9,3.29Z" style="fill:#414042;"></path><path d="M397.43,89.07c.93,.27,1.46,.8,1.59,1.59,.13,.8-.47,1.53-1.79,2.19-.8,.27-1.76,.5-2.89,.7-1.13,.2-2.49,.17-4.08-.1-.8,1.06-1.53,2.29-2.19,3.68-.67,1.39-1.2,2.86-1.59,4.38-.4,1.53-.53,3.02-.4,4.48,.13,1.46,.6,2.66,1.39,3.58,.93,1.2,2.22,1.93,3.88,2.19,1.66,.27,3.42,.3,5.28,.1,1.86-.2,3.69-.56,5.48-1.1,1.79-.53,3.35-1.06,4.68-1.59,5.04-2.12,10.06-4.81,15.04-8.07,4.98-3.25,9.06-6.21,12.25-8.86,.26-.26,.56-.3,.9-.1,.33,.2,.17,.5-.5,.9-1.59,1.19-3.42,2.56-5.48,4.08-2.06,1.53-4.28,3.06-6.67,4.58-2.39,1.53-4.88,2.99-7.47,4.38s-5.15,2.62-7.67,3.68c-1.99,.8-4.25,1.53-6.77,2.19-2.52,.67-4.88,.96-7.07,.9-2.19-.07-4.12-.63-5.78-1.69-1.66-1.06-2.69-2.79-3.09-5.18s-.07-4.98,1-7.77,2.39-4.91,3.98-6.37c1.06-.93,2.29-1.69,3.69-2.29s2.82-.76,4.28-.5Zm-6.37,3.59c2.52,.4,4.45,.27,5.78-.4,1.06-.53,1.56-1.1,1.49-1.69-.07-.6-.63-.9-1.69-.9-.93,0-1.93,.23-2.99,.7-1.06,.47-1.93,1.23-2.59,2.29Z" style="fill:#414042;"></path></g><g><path d="M205.87,55.47V1.3h5.35V50.49h15.45v4.97h-20.81Z" style="fill:#231f20;"></path><path d="M256.36,55.47l-3.29-13.54h-16.68l-3.44,13.54h-5.43L241.29,1.3h7.27l13.39,54.17h-5.58Zm-11.4-49.35h-.31l-7.5,31.52h15.15l-7.34-31.52Z" style="fill:#231f20;"></path><path d="M292.17,41.62c0,2.4-.36,4.53-1.07,6.39-.71,1.86-1.7,3.44-2.95,4.74-1.25,1.3-2.72,2.29-4.4,2.98-1.68,.69-3.47,1.03-5.36,1.03-2.75,0-5.29-.59-7.61-1.76-2.32-1.17-4.2-2.73-5.62-4.67l3.29-3.75c1.17,1.68,2.65,2.98,4.44,3.9s3.6,1.38,5.43,1.38c2.45,0,4.5-.87,6.16-2.6,1.66-1.73,2.49-4.21,2.49-7.42,0-1.53-.26-2.88-.76-4.05-.51-1.17-1.2-2.22-2.07-3.14s-1.85-1.73-2.95-2.45c-1.1-.71-2.26-1.38-3.48-1.99-1.48-.71-2.88-1.52-4.21-2.41-1.33-.89-2.49-1.92-3.48-3.1-1-1.17-1.8-2.56-2.41-4.17-.61-1.61-.92-3.48-.92-5.62,0-2.5,.38-4.68,1.15-6.54,.76-1.86,1.8-3.42,3.1-4.67,1.3-1.25,2.77-2.18,4.4-2.79,1.63-.61,3.34-.92,5.13-.92,2.45,0,4.65,.42,6.62,1.26,1.96,.84,3.61,2.16,4.93,3.94l-3.29,3.75c-1.02-1.48-2.22-2.54-3.6-3.17s-2.88-.96-4.51-.96c-1.07,0-2.13,.19-3.17,.57-1.05,.38-1.98,.98-2.79,1.8s-1.48,1.86-1.99,3.14c-.51,1.28-.76,2.78-.76,4.51,0,1.53,.23,2.86,.69,3.98,.46,1.12,1.08,2.12,1.87,2.98,.79,.87,1.71,1.63,2.75,2.29,1.04,.66,2.13,1.28,3.25,1.84,1.43,.71,2.84,1.53,4.25,2.45,1.4,.92,2.66,1.99,3.79,3.21,1.12,1.22,2.01,2.65,2.68,4.28,.66,1.63,.99,3.54,.99,5.74Z" style="fill:#231f20;"></path><path d="M327.97,55.47V29.76h-20.73v25.71h-5.35V1.3h5.35V25.02h20.73V1.3h5.36V55.47h-5.36Z" style="fill:#231f20;"></path><path d="M345.72,55.47V1.3h21.8V6.04h-16.6V25.02h15.53v4.59h-15.53v21.04h17.37v4.82h-22.57Z" style="fill:#231f20;"></path><path d="M401.19,41.62c0,2.4-.36,4.53-1.07,6.39-.71,1.86-1.7,3.44-2.95,4.74-1.25,1.3-2.72,2.29-4.4,2.98-1.68,.69-3.47,1.03-5.36,1.03-2.75,0-5.29-.59-7.61-1.76-2.32-1.17-4.2-2.73-5.62-4.67l3.29-3.75c1.17,1.68,2.65,2.98,4.44,3.9s3.6,1.38,5.43,1.38c2.45,0,4.5-.87,6.16-2.6,1.66-1.73,2.49-4.21,2.49-7.42,0-1.53-.26-2.88-.76-4.05-.51-1.17-1.2-2.22-2.07-3.14s-1.85-1.73-2.95-2.45c-1.1-.71-2.26-1.38-3.48-1.99-1.48-.71-2.88-1.52-4.21-2.41-1.33-.89-2.49-1.92-3.48-3.1-1-1.17-1.8-2.56-2.41-4.17-.61-1.61-.92-3.48-.92-5.62,0-2.5,.38-4.68,1.15-6.54,.76-1.86,1.8-3.42,3.1-4.67,1.3-1.25,2.77-2.18,4.4-2.79,1.63-.61,3.34-.92,5.13-.92,2.45,0,4.65,.42,6.62,1.26,1.96,.84,3.61,2.16,4.93,3.94l-3.29,3.75c-1.02-1.48-2.22-2.54-3.6-3.17s-2.88-.96-4.51-.96c-1.07,0-2.13,.19-3.17,.57-1.05,.38-1.98,.98-2.79,1.8s-1.48,1.86-1.99,3.14c-.51,1.28-.76,2.78-.76,4.51,0,1.53,.23,2.86,.69,3.98,.46,1.12,1.08,2.12,1.87,2.98,.79,.87,1.71,1.63,2.75,2.29,1.04,.66,2.13,1.28,3.25,1.84,1.43,.71,2.84,1.53,4.25,2.45,1.4,.92,2.66,1.99,3.79,3.21,1.12,1.22,2.01,2.65,2.68,4.28,.66,1.63,.99,3.54,.99,5.74Z" style="fill:#231f20;"></path><path d="M425.05,55.47V1.3h5.35V50.49h15.45v4.97h-20.81Z" style="fill:#231f20;"></path><path d="M452.37,55.47V1.3h5.35V55.47h-5.35Z" style="fill:#231f20;"></path><path d="M494.23,55.47l-18.84-45.06h-.23V55.47h-5.05V1.3h6.66l18.74,45.06h.23V1.3h4.9V55.47h-6.41Z" style="fill:#231f20;"></path><path d="M513.03,55.47V1.3h21.8V6.04h-16.6V25.02h15.53v4.59h-15.53v21.04h17.37v4.82h-22.57Z" style="fill:#231f20;"></path></g></g></g></svg> 