<?xml version="1.0" encoding="UTF-8"?> <svg xmlns="http://www.w3.org/2000/svg" id="Layer_2" viewBox="0 0 573.55 159.29"><g id="Layer_1-2"><g><g><path d="M8.82,104.8c-2.52,2.52-4.58,3.72-6.17,3.59-.8-.13-1.43-.63-1.89-1.49-.46-.86-.7-1.82-.7-2.89-.26-2.52,.43-5.18,2.09-7.97,1.66-2.79,3.88-4.71,6.67-5.78,1.46-.53,3.02-.7,4.68-.5,1.66,.2,3.29,.9,4.88,2.09l2.59-3.98c.26-.26,.66-.33,1.2-.2,.53,.13,.66,.33,.4,.6-.67,1.06-1.49,2.56-2.49,4.48-1,1.93-1.93,3.98-2.79,6.17-.87,2.19-1.59,4.38-2.19,6.57s-.77,4.08-.5,5.68c.26,1.86,1,2.96,2.19,3.29,1.2,.33,2.59,.3,4.18-.1,2.39-.53,5.25-1.69,8.57-3.49,3.32-1.79,6.67-3.82,10.06-6.08,3.39-2.26,6.64-4.51,9.76-6.77,3.12-2.26,5.74-4.18,7.87-5.78,.26-.26,.53-.26,.8,0,.26,.27,.13,.53-.4,.8-2.26,1.59-4.91,3.55-7.97,5.88-3.06,2.33-6.27,4.58-9.66,6.77-3.39,2.19-6.71,4.15-9.96,5.88-3.26,1.73-6.14,2.92-8.67,3.59-1.99,.53-3.65,.57-4.98,.1-1.33-.46-2.26-1.69-2.79-3.69-.53-1.86-.4-4.35,.4-7.47,.8-3.12,1.72-6.01,2.79-8.67-1.06,1.33-2.39,2.99-3.98,4.98-1.59,1.99-2.92,3.45-3.98,4.38Zm8.96-12.15c-2.66-1.99-5.31-2.52-7.97-1.59-1.86,.67-3.52,1.93-4.98,3.78-1.46,1.86-2.46,3.92-2.99,6.18-.4,1.33-.6,2.69-.6,4.08s.53,2.23,1.59,2.49c1.46,.27,3.45-1,5.98-3.79,1.59-1.86,3.22-3.78,4.88-5.78,1.66-1.99,3.02-3.79,4.08-5.38Z" style="fill:#414042;"></path><path d="M54.23,115.96c5.04,7.57,8,14.41,8.86,20.52,.86,6.11,.56,11.09-.9,14.94-.93,2.52-2.13,4.45-3.59,5.78-1.46,1.33-2.96,2.02-4.48,2.09-1.53,.06-2.95-.5-4.28-1.69-1.33-1.2-2.39-3.06-3.19-5.58-1.2-3.72-1.49-8.37-.9-13.94,.6-5.58,1.56-11.29,2.89-17.13,1.33-5.84,2.82-11.45,4.48-16.83s3.09-9.66,4.28-12.85c1.99-5.18,4.31-10.82,6.97-16.93,2.66-6.11,5.64-12.15,8.96-18.13,3.32-5.98,6.97-11.55,10.96-16.73,3.98-5.18,8.3-9.49,12.95-12.95,2.52-1.86,4.88-3.09,7.07-3.69s4.01-.6,5.48,0c1.46,.6,2.39,1.86,2.79,3.79,.4,1.93,0,4.55-1.2,7.87-1.06,3.06-2.82,6.61-5.28,10.66-2.46,4.05-5.81,8.53-10.06,13.45-4.25,4.92-9.43,10.23-15.54,15.94-6.11,5.71-13.35,11.75-21.71,18.13-1.2,3.32-2.66,7.57-4.38,12.75s-3.25,10.59-4.58,16.23c-1.33,5.65-2.26,11.15-2.79,16.53-.53,5.38-.26,9.93,.8,13.65,1.46,4.78,3.65,7.04,6.57,6.77,2.92-.27,5.24-2.79,6.97-7.57,1.46-3.85,1.72-8.8,.8-14.84-.93-6.04-3.92-12.78-8.96-20.22,0-.53,.13-.8,.4-.8,4.91-.4,9.53-1.16,13.84-2.29,4.31-1.13,8.57-2.62,12.75-4.48,4.18-1.86,8.4-4.12,12.65-6.77,4.25-2.65,8.89-5.78,13.94-9.36,.4-.26,.7-.26,.9,0,.2,.27,.03,.53-.5,.8-9.03,6.64-17.73,11.95-26.09,15.93-8.37,3.98-17.33,6.31-26.89,6.97Zm5.18-25.1c16.07-12.22,28.12-23.21,36.15-32.97,8.03-9.76,13.05-17.63,15.04-23.6,1.2-3.19,1.59-5.68,1.2-7.47s-1.23-2.92-2.49-3.39c-1.26-.46-2.89-.36-4.88,.3-1.99,.67-4.05,1.79-6.17,3.39-4.52,3.32-8.7,7.57-12.55,12.75-3.85,5.18-7.44,10.69-10.76,16.53-3.32,5.84-6.27,11.79-8.86,17.83-2.59,6.04-4.81,11.59-6.67,16.63Z" style="fill:#414042;"></path><path d="M123.55,54.01c-3.19,6.37-6.21,13.05-9.06,20.02-2.86,6.97-5.15,13.51-6.87,19.62-2.26,8.9-3.16,15.37-2.69,19.42,.46,4.05,2.02,6.27,4.68,6.67,2.52,.4,5.94-.5,10.26-2.69,4.31-2.19,8.76-4.81,13.35-7.87,4.58-3.05,8.96-6.17,13.15-9.36,4.18-3.19,7.47-5.71,9.86-7.57,.26-.26,.56-.3,.9-.1,.33,.2,.16,.5-.5,.9-2.39,1.86-5.68,4.38-9.86,7.57-4.18,3.19-8.6,6.31-13.25,9.36-4.65,3.06-9.13,5.68-13.45,7.87-4.32,2.19-7.8,3.09-10.46,2.69-3.06-.4-4.95-2.72-5.68-6.97-.73-4.25,.03-11.02,2.29-20.32,1.72-5.98,3.98-12.48,6.77-19.52,2.79-7.04,5.71-13.68,8.76-19.92-3.72-.26-7.27-.43-10.66-.5-3.39-.07-6.37,.03-8.96,.3-2.59,.27-4.65,.83-6.17,1.69-1.53,.87-2.36,2.03-2.49,3.49-.13,.67-.46,.93-1,.8-.53-.13-.66-.53-.4-1.2,.53-1.59,1.73-2.82,3.58-3.68,1.86-.86,4.15-1.46,6.87-1.79,2.72-.33,5.78-.46,9.16-.4,3.39,.07,6.94,.23,10.66,.5,1.86-3.72,3.49-6.77,4.88-9.16,1.39-2.39,2.42-4.05,3.09-4.98,.26-.26,.6-.33,1-.2,.4,.13,.46,.4,.2,.8-.8,1.46-1.83,3.32-3.09,5.58-1.26,2.26-2.76,4.98-4.48,8.17,6.77,.67,13.31,1.2,19.62,1.59,6.31,.4,11.98,.53,17.03,.4,5.04-.13,9.23-.56,12.55-1.29,3.32-.73,5.38-1.96,6.18-3.68,.13-.26,.4-.33,.8-.2,.4,.13,.4,.47,0,1-1.19,1.73-3.62,2.96-7.27,3.69-3.65,.73-8.07,1.16-13.25,1.29-5.18,.13-10.89,0-17.13-.4-6.24-.4-12.55-.93-18.92-1.59Z" style="fill:#414042;"></path><path d="M164.38,89.07c.93,.27,1.46,.8,1.59,1.59,.13,.8-.47,1.53-1.79,2.19-.8,.27-1.76,.5-2.89,.7-1.13,.2-2.49,.17-4.08-.1-.8,1.06-1.53,2.29-2.19,3.68-.67,1.39-1.2,2.86-1.59,4.38-.4,1.53-.53,3.02-.4,4.48,.13,1.46,.6,2.66,1.39,3.58,.93,1.2,2.22,1.93,3.88,2.19,1.66,.27,3.42,.3,5.28,.1,1.86-.2,3.69-.56,5.48-1.1,1.79-.53,3.35-1.06,4.68-1.59,5.04-2.12,10.06-4.81,15.04-8.07,4.98-3.25,9.06-6.21,12.25-8.86,.26-.26,.56-.3,.9-.1,.33,.2,.17,.5-.5,.9-1.59,1.19-3.42,2.56-5.48,4.08-2.06,1.53-4.28,3.06-6.67,4.58-2.39,1.53-4.88,2.99-7.47,4.38s-5.15,2.62-7.67,3.68c-1.99,.8-4.25,1.53-6.77,2.19-2.52,.67-4.88,.96-7.07,.9-2.19-.07-4.12-.63-5.78-1.69-1.66-1.06-2.69-2.79-3.09-5.18s-.07-4.98,1-7.77,2.39-4.91,3.98-6.37c1.06-.93,2.29-1.69,3.69-2.29s2.82-.76,4.28-.5Zm-6.37,3.59c2.52,.4,4.45,.27,5.78-.4,1.06-.53,1.56-1.1,1.49-1.69-.07-.6-.63-.9-1.69-.9-.93,0-1.93,.23-2.99,.7-1.06,.47-1.93,1.23-2.59,2.29Z" style="fill:#414042;"></path><path d="M199.84,90.06c-.67-2.26-.13-4.25,1.59-5.98,.93-1.06,2.06-1.66,3.39-1.79,1.33-.13,2.29,.17,2.89,.9,.6,.73,.56,1.86-.1,3.39-.67,1.53-2.39,3.42-5.18,5.68,1.59,1.46,2.75,2.39,3.49,2.79,.73,.4,.76,1.46,.1,3.19-.4,1.06-.93,2.42-1.59,4.08-.67,1.66-1.1,3.29-1.29,4.88-.2,1.59-.13,3.06,.2,4.38,.33,1.33,1.29,2.26,2.89,2.79,2.26,.67,5.34,.1,9.26-1.69,3.92-1.79,7.97-4.01,12.15-6.67,4.18-2.66,8.07-5.31,11.65-7.97,3.59-2.66,6.17-4.58,7.77-5.78,.26-.26,.56-.3,.9-.1,.33,.2,.17,.5-.5,.9-1.59,1.19-4.22,3.16-7.87,5.88-3.65,2.72-7.57,5.41-11.75,8.07-4.18,2.66-8.3,4.88-12.35,6.67-4.05,1.79-7.27,2.29-9.66,1.49-1.86-.53-3.06-1.49-3.59-2.89-.53-1.39-.73-2.92-.6-4.58,.13-1.66,.5-3.39,1.1-5.18,.6-1.79,1.1-3.29,1.49-4.48,.26-.66,.4-1.2,.4-1.59s-.2-.86-.6-1.39c-1.06-.93-1.96-1.69-2.69-2.29-.73-.6-1.23-1.49-1.49-2.69Zm1.79,1.59c2.66-2.12,4.31-3.85,4.98-5.18,.66-1.33,.8-2.26,.4-2.79-.4-.53-1.13-.66-2.19-.4-1.06,.27-1.99,.87-2.79,1.79-.67,.93-1.1,2.03-1.29,3.29-.2,1.26,.1,2.36,.9,3.29Z" style="fill:#414042;"></path><path d="M256.4,92.85c0,.4-.23,.67-.7,.8-.47,.13-.63-.13-.5-.8,.13-1.59-.53-2.29-1.99-2.09-1.46,.2-2.72,.63-3.79,1.29-1.46,.93-2.79,2.19-3.98,3.78s-2.09,3.29-2.69,5.08c-.6,1.79-.9,3.55-.9,5.28s.47,3.12,1.39,4.18c1.2,1.33,2.85,2.06,4.98,2.19,2.12,.13,4.38-.07,6.77-.6,2.39-.53,4.75-1.26,7.07-2.19,2.32-.93,4.35-1.79,6.08-2.59,1.99-.93,4.05-1.99,6.17-3.19,2.12-1.2,4.21-2.46,6.27-3.78,2.06-1.33,4.05-2.69,5.98-4.08,1.92-1.39,3.62-2.69,5.08-3.88,.26-.26,.56-.3,.9-.1,.33,.2,.17,.5-.5,.9-3.85,2.92-7.74,5.68-11.65,8.27-3.92,2.59-7.94,4.81-12.05,6.67-1.99,.93-4.18,1.86-6.57,2.79-2.39,.93-4.78,1.66-7.17,2.19-2.39,.53-4.65,.7-6.77,.5-2.12-.2-3.85-.96-5.18-2.29-1.86-1.72-2.62-4.15-2.29-7.27,.33-3.12,1.43-5.94,3.29-8.47,1.06-1.33,2.36-2.55,3.88-3.68,1.53-1.13,3.22-1.69,5.08-1.69,1.99,0,3.25,.93,3.78,2.79Z" style="fill:#414042;"></path><path d="M294.85,104.8c-2.52,2.52-4.58,3.72-6.17,3.59-.8-.13-1.43-.63-1.89-1.49-.46-.86-.7-1.82-.7-2.89-.26-2.52,.43-5.18,2.09-7.97,1.66-2.79,3.88-4.71,6.67-5.78,1.46-.53,3.02-.7,4.68-.5,1.66,.2,3.29,.9,4.88,2.09l2.59-3.98c.26-.26,.66-.33,1.2-.2,.53,.13,.66,.33,.4,.6-.67,1.06-1.49,2.56-2.49,4.48-1,1.93-1.93,3.98-2.79,6.17-.87,2.19-1.59,4.38-2.19,6.57s-.77,4.08-.5,5.68c.26,1.86,1,2.96,2.19,3.29,1.2,.33,2.59,.3,4.18-.1,2.39-.53,5.25-1.69,8.57-3.49,3.32-1.79,6.67-3.82,10.06-6.08,3.39-2.26,6.64-4.51,9.76-6.77,3.12-2.26,5.74-4.18,7.87-5.78,.26-.26,.53-.26,.8,0,.26,.27,.13,.53-.4,.8-2.26,1.59-4.91,3.55-7.97,5.88-3.06,2.33-6.27,4.58-9.66,6.77-3.39,2.19-6.71,4.15-9.96,5.88-3.26,1.73-6.14,2.92-8.67,3.59-1.99,.53-3.65,.57-4.98,.1-1.33-.46-2.26-1.69-2.79-3.69-.53-1.86-.4-4.35,.4-7.47,.8-3.12,1.72-6.01,2.79-8.67-1.06,1.33-2.39,2.99-3.98,4.98-1.59,1.99-2.92,3.45-3.98,4.38Zm8.96-12.15c-2.66-1.99-5.31-2.52-7.97-1.59-1.86,.67-3.52,1.93-4.98,3.78-1.46,1.86-2.46,3.92-2.99,6.18-.4,1.33-.6,2.69-.6,4.08s.53,2.23,1.59,2.49c1.46,.27,3.45-1,5.98-3.79,1.59-1.86,3.22-3.78,4.88-5.78,1.66-1.99,3.02-3.79,4.08-5.38Z" style="fill:#414042;"></path><path d="M342.05,90.06c-.67-2.26-.13-4.25,1.59-5.98,.93-1.06,2.06-1.66,3.39-1.79,1.33-.13,2.29,.17,2.89,.9,.6,.73,.56,1.86-.1,3.39-.67,1.53-2.39,3.42-5.18,5.68,1.59,1.46,2.75,2.39,3.49,2.79,.73,.4,.76,1.46,.1,3.19-.4,1.06-.93,2.42-1.59,4.08-.67,1.66-1.1,3.29-1.29,4.88-.2,1.59-.13,3.06,.2,4.38,.33,1.33,1.29,2.26,2.89,2.79,2.26,.67,5.34,.1,9.26-1.69,3.92-1.79,7.97-4.01,12.15-6.67,4.18-2.66,8.07-5.31,11.65-7.97,3.59-2.66,6.17-4.58,7.77-5.78,.26-.26,.56-.3,.9-.1,.33,.2,.17,.5-.5,.9-1.59,1.19-4.22,3.16-7.87,5.88-3.65,2.72-7.57,5.41-11.75,8.07-4.18,2.66-8.3,4.88-12.35,6.67-4.05,1.79-7.27,2.29-9.66,1.49-1.86-.53-3.06-1.49-3.59-2.89-.53-1.39-.73-2.92-.6-4.58,.13-1.66,.5-3.39,1.1-5.18,.6-1.79,1.1-3.29,1.49-4.48,.26-.66,.4-1.2,.4-1.59s-.2-.86-.6-1.39c-1.06-.93-1.96-1.69-2.69-2.29-.73-.6-1.23-1.49-1.49-2.69Zm1.79,1.59c2.66-2.12,4.31-3.85,4.98-5.18,.66-1.33,.8-2.26,.4-2.79-.4-.53-1.13-.66-2.19-.4-1.06,.27-1.99,.87-2.79,1.79-.67,.93-1.1,2.03-1.29,3.29-.2,1.26,.1,2.36,.9,3.29Z" style="fill:#414042;"></path><path d="M397.43,89.07c.93,.27,1.46,.8,1.59,1.59,.13,.8-.47,1.53-1.79,2.19-.8,.27-1.76,.5-2.89,.7-1.13,.2-2.49,.17-4.08-.1-.8,1.06-1.53,2.29-2.19,3.68-.67,1.39-1.2,2.86-1.59,4.38-.4,1.53-.53,3.02-.4,4.48,.13,1.46,.6,2.66,1.39,3.58,.93,1.2,2.22,1.93,3.88,2.19,1.66,.27,3.42,.3,5.28,.1,1.86-.2,3.69-.56,5.48-1.1,1.79-.53,3.35-1.06,4.68-1.59,5.04-2.12,10.06-4.81,15.04-8.07,4.98-3.25,9.06-6.21,12.25-8.86,.26-.26,.56-.3,.9-.1,.33,.2,.17,.5-.5,.9-1.59,1.19-3.42,2.56-5.48,4.08-2.06,1.53-4.28,3.06-6.67,4.58-2.39,1.53-4.88,2.99-7.47,4.38s-5.15,2.62-7.67,3.68c-1.99,.8-4.25,1.53-6.77,2.19-2.52,.67-4.88,.96-7.07,.9-2.19-.07-4.12-.63-5.78-1.69-1.66-1.06-2.69-2.79-3.09-5.18s-.07-4.98,1-7.77,2.39-4.91,3.98-6.37c1.06-.93,2.29-1.69,3.69-2.29s2.82-.76,4.28-.5Zm-6.37,3.59c2.52,.4,4.45,.27,5.78-.4,1.06-.53,1.56-1.1,1.49-1.69-.07-.6-.63-.9-1.69-.9-.93,0-1.93,.23-2.99,.7-1.06,.47-1.93,1.23-2.59,2.29Z" style="fill:#414042;"></path></g><g><path d="M229.51,54.85c-2.19,1.27-4.67,1.91-7.42,1.91-2.96,0-5.58-.73-7.88-2.18-2.29-1.45-4.23-3.44-5.81-5.97-1.58-2.53-2.79-5.52-3.63-8.99-.84-3.47-1.26-7.22-1.26-11.25s.42-7.85,1.26-11.32c.84-3.47,2.07-6.46,3.67-8.99s3.56-4.5,5.85-5.93c2.29-1.43,4.9-2.14,7.8-2.14,2.55,0,4.93,.54,7.15,1.61s4.07,2.75,5.55,5.05l-3.44,3.52c-1.17-1.78-2.54-3.11-4.09-3.98-1.56-.87-3.2-1.3-4.93-1.3-2.25,0-4.2,.61-5.85,1.84-1.66,1.22-3.04,2.91-4.13,5.05-1.1,2.14-1.91,4.64-2.45,7.5-.54,2.86-.8,5.89-.8,9.1s.28,6.24,.84,9.07c.56,2.83,1.39,5.32,2.49,7.46,1.1,2.14,2.47,3.84,4.13,5.09,1.66,1.25,3.61,1.87,5.85,1.87,1.94,0,3.7-.55,5.28-1.64,1.58-1.1,2.88-2.54,3.9-4.32l3.37,3.44c-1.43,2.4-3.24,4.23-5.43,5.51Z" style="fill:#231f20;"></path><path d="M264.78,55.47l-3.29-13.54h-16.68l-3.44,13.54h-5.43L249.71,1.3h7.27l13.39,54.17h-5.58Zm-11.4-49.35h-.31l-7.5,31.52h15.15l-7.34-31.52Z" style="fill:#231f20;"></path><path d="M314.05,55.47V8.42h-.23l-13.28,47.05h-4.96l-13.2-47.05h-.23V55.47h-5.05V1.3h7.96l12.93,45.75h.31L311.06,1.3h8.26V55.47h-5.28Z" style="fill:#231f20;"></path><path d="M365.23,28.31c0,4.23-.41,8.1-1.22,11.59-.82,3.49-1.99,6.49-3.52,8.99s-3.39,4.44-5.58,5.81c-2.19,1.38-4.69,2.07-7.5,2.07s-5.32-.69-7.54-2.07c-2.22-1.38-4.11-3.32-5.66-5.81-1.56-2.5-2.74-5.5-3.56-8.99-.82-3.49-1.22-7.36-1.22-11.59s.39-8.02,1.19-11.51c.79-3.49,1.95-6.48,3.48-8.95,1.53-2.47,3.4-4.4,5.62-5.78s4.78-2.07,7.69-2.07,5.3,.69,7.5,2.07c2.19,1.38,4.05,3.3,5.58,5.78,1.53,2.47,2.7,5.46,3.52,8.95,.82,3.49,1.22,7.33,1.22,11.51Zm-5.58,0c0-3.26-.26-6.32-.76-9.18-.51-2.86-1.29-5.33-2.33-7.42-1.05-2.09-2.33-3.75-3.86-4.97-1.53-1.22-3.29-1.84-5.28-1.84-2.09,0-3.91,.61-5.47,1.84-1.56,1.22-2.84,2.88-3.86,4.97-1.02,2.09-1.79,4.57-2.29,7.42-.51,2.86-.77,5.92-.77,9.18s.25,6.33,.77,9.18c.51,2.86,1.27,5.36,2.29,7.5,1.02,2.14,2.31,3.83,3.86,5.05,1.56,1.22,3.38,1.84,5.47,1.84s3.83-.61,5.36-1.84c1.53-1.22,2.8-2.91,3.83-5.05,1.02-2.14,1.79-4.64,2.3-7.5,.51-2.86,.76-5.92,.76-9.18Z" style="fill:#231f20;"></path><path d="M404.82,44.41c-.54,2.47-1.4,4.63-2.6,6.46-1.2,1.84-2.79,3.28-4.78,4.32s-4.44,1.57-7.34,1.57-5.34-.52-7.31-1.57c-1.96-1.04-3.55-2.49-4.74-4.32-1.2-1.84-2.05-3.99-2.56-6.46-.51-2.47-.76-5.11-.76-7.92V1.3h5.36V35.8c0,1.99,.14,3.95,.42,5.89,.28,1.94,.79,3.66,1.53,5.16,.74,1.5,1.76,2.72,3.06,3.63s3,1.38,5.09,1.38,3.72-.46,5.05-1.38c1.33-.92,2.36-2.13,3.1-3.63,.74-1.5,1.25-3.21,1.53-5.13,.28-1.91,.42-3.89,.42-5.93V1.3h5.36V36.49c0,2.81-.27,5.45-.8,7.92Z" style="fill:#231f20;"></path><path d="M422.68,6.12V25.55h15.22v4.59h-15.22v25.32h-5.28V1.3h21.65V6.12h-16.37Z" style="fill:#231f20;"></path><path d="M447.7,55.47V1.3h5.35V50.49h15.45v4.97h-20.81Z" style="fill:#231f20;"></path><path d="M498.19,55.47l-3.29-13.54h-16.68l-3.44,13.54h-5.43L483.12,1.3h7.27l13.39,54.17h-5.58Zm-11.4-49.35h-.31l-7.5,31.52h15.15l-7.34-31.52Z" style="fill:#231f20;"></path><path d="M534.34,55.28c-2.12,.79-4.6,1.18-7.46,1.18-3.01,0-5.71-.66-8.11-1.99-2.4-1.33-4.41-3.21-6.04-5.66-1.63-2.45-2.88-5.41-3.75-8.87-.87-3.47-1.3-7.34-1.3-11.63,0-4.03,.42-7.78,1.26-11.25,.84-3.47,2.05-6.46,3.63-8.99,1.58-2.52,3.52-4.5,5.81-5.93,2.29-1.43,4.9-2.14,7.8-2.14,2.65,0,5.07,.54,7.27,1.61,2.19,1.07,4.03,2.75,5.51,5.05l-3.44,3.52c-1.17-1.78-2.54-3.12-4.09-4.02-1.56-.89-3.23-1.34-5.01-1.34-2.25,0-4.18,.63-5.81,1.88-1.63,1.25-3,2.95-4.09,5.09-1.1,2.14-1.91,4.63-2.45,7.46-.54,2.83-.8,5.85-.8,9.07s.28,6.48,.84,9.33c.56,2.86,1.42,5.32,2.56,7.38,1.15,2.07,2.58,3.69,4.28,4.86,1.71,1.17,3.68,1.76,5.93,1.76,1.63,0,3.1-.2,4.4-.61,1.3-.41,2.38-.99,3.25-1.76V30.91h-7.73v-4.59h12.93v25.79c-1.48,1.32-3.28,2.38-5.39,3.17Z" style="fill:#231f20;"></path><path d="M550.98,55.47V1.3h21.8V6.04h-16.6V25.02h15.53v4.59h-15.53v21.04h17.37v4.82h-22.57Z" style="fill:#231f20;"></path></g></g></g></svg> 