<svg xmlns="http://www.w3.org/2000/svg" id="Layer_2" width="740.56" height="120.89" viewBox="0 0 740.56 120.89"><g id="Layer_1-2"><path d="M206.97,88.49c.13-.27.5-.37,1.1-.3.6.07.83.23.7.5-1.07,2.27-2.07,4.53-3,6.8-.93,2.27-1.8,4.53-2.6,6.8,2.53-3.47,5.43-7.03,8.7-10.7,3.27-3.67,6.23-6.57,8.9-8.7.53-.53,1.2-1.03,2-1.5.8-.47,1.57-.77,2.3-.9.73-.13,1.37,0,1.9.4.53.4.87,1.27,1,2.6.13,1.47-.23,3.8-1.1,7-.87,3.2-1.9,6.4-3.1,9.6,5.33-6,9.27-10.03,11.8-12.1,2.53-2.07,4.53-2.77,6-2.1,1.33.67,1.87,2.2,1.6,4.6-.27,2.4-.7,4.97-1.3,7.7-.6,2.73-.9,5.23-.9,7.5s1,3.53,3,3.8c1.87.27,4.47-.43,7.8-2.1,3.33-1.67,6.77-3.7,10.3-6.1,3.53-2.4,6.93-4.83,10.2-7.3,3.27-2.47,5.7-4.3,7.3-5.5.27-.27.57-.3.9-.1.33.2.17.5-.5.9-1.73,1.33-4.2,3.23-7.4,5.7-3.2,2.47-6.6,4.87-10.2,7.2-3.6,2.33-7.1,4.33-10.5,6-3.4,1.67-6.1,2.37-8.1,2.1-2.27-.4-3.53-1.77-3.8-4.1-.27-2.33-.2-4.87.2-7.6.4-2.73.8-5.3,1.2-7.7.4-2.4.27-3.8-.4-4.2-.93-.67-2.83.17-5.7,2.5-2.87,2.33-7.1,6.9-12.7,13.7-.4.4-.8.57-1.2.5-.4-.07-.47-.43-.2-1.1,2-5.07,3.37-9.1,4.1-12.1.73-3,1.23-5.23,1.5-6.7,0-.93-.17-1.53-.5-1.8-.33-.27-.8-.33-1.4-.2-.6.13-1.23.4-1.9.8-.67.4-1.2.8-1.6,1.2-1.47,1.07-3.07,2.47-4.8,4.2-1.73,1.73-3.43,3.6-5.1,5.6-1.67,2-3.3,4-4.9,6s-3,3.87-4.2,5.6c-.27.27-.6.4-1,.4s-.53-.27-.4-.8c.67-2.8,1.53-5.63,2.6-8.5,1.07-2.87,2.2-5.37,3.4-7.5Z" fill="#fbcbc5"></path><path d="M282.77,101.09c-2.53,2.53-4.6,3.73-6.2,3.6-.8-.13-1.43-.63-1.9-1.5-.47-.87-.7-1.83-.7-2.9-.27-2.53.43-5.2,2.1-8,1.67-2.8,3.9-4.73,6.7-5.8,1.47-.53,3.03-.7,4.7-.5,1.67.2,3.3.9,4.9,2.1l2.6-4c.27-.27.67-.33,1.2-.2.53.13.67.33.4.6-.67,1.07-1.5,2.57-2.5,4.5-1,1.93-1.93,4-2.8,6.2-.87,2.2-1.6,4.4-2.2,6.6-.6,2.2-.77,4.1-.5,5.7.27,1.87,1,2.97,2.2,3.3,1.2.33,2.6.3,4.2-.1,2.4-.53,5.27-1.7,8.6-3.5,3.33-1.8,6.7-3.83,10.1-6.1,3.4-2.27,6.67-4.53,9.8-6.8,3.13-2.27,5.77-4.2,7.9-5.8.27-.27.53-.27.8,0,.27.27.13.53-.4.8-2.27,1.6-4.93,3.57-8,5.9-3.07,2.33-6.3,4.6-9.7,6.8-3.4,2.2-6.73,4.17-10,5.9-3.27,1.73-6.17,2.93-8.7,3.6-2,.53-3.67.57-5,.1-1.33-.47-2.27-1.7-2.8-3.7-.53-1.87-.4-4.37.4-7.5.8-3.13,1.73-6.03,2.8-8.7-1.07,1.33-2.4,3-4,5s-2.93,3.47-4,4.4ZM291.77,88.89c-2.67-2-5.33-2.53-8-1.6-1.87.67-3.53,1.93-5,3.8-1.47,1.87-2.47,3.93-3,6.2-.4,1.33-.6,2.7-.6,4.1s.53,2.23,1.6,2.5c1.47.27,3.47-1,6-3.8,1.6-1.87,3.23-3.8,4.9-5.8,1.67-2,3.03-3.8,4.1-5.4Z" fill="#fbcbc5"></path><path d="M333.36,107.49c6.4-2.13,12.53-4.73,18.4-7.8,5.87-3.07,11.47-6.8,16.8-11.2.27-.27.57-.3.9-.1.33.2.17.5-.5.9-6,4.67-11.83,8.47-17.5,11.4-5.67,2.93-11.7,5.53-18.1,7.8-.27,2.27-.73,4.2-1.4,5.8-.67,1.6-1.87,2.93-3.6,4-.8.53-1.67.87-2.6,1-.93.13-1.73.07-2.4-.2-.67-.27-1.17-.73-1.5-1.4-.33-.67-.37-1.53-.1-2.6.67-2,2.13-3.53,4.4-4.6,2.27-1.07,4.27-1.93,6-2.6,0-1.6-.17-3.37-.5-5.3-.33-1.93-.6-3.87-.8-5.8-.2-1.93-.27-3.83-.2-5.7.07-1.87.57-3.6,1.5-5.2.67-1.2,1.57-2.13,2.7-2.8,1.13-.67,2.27-1,3.4-1s2.07.33,2.8,1c.73.67,1.03,1.8.9,3.4,0,.4-.23.6-.7.6s-.63-.2-.5-.6c.4-1.2.33-2.1-.2-2.7-.53-.6-1.23-.9-2.1-.9s-1.8.27-2.8.8c-1,.53-1.77,1.4-2.3,2.6-.67,1.33-1.03,2.93-1.1,4.8-.07,1.87,0,3.8.2,5.8.2,2,.4,3.97.6,5.9.2,1.93.3,3.5.3,4.7ZM322.56,115.09c-.67,1.73-.3,2.8,1.1,3.2s2.83.2,4.3-.6c1.6-.93,2.7-2.23,3.3-3.9.6-1.67.9-3.3.9-4.9-1.73.53-3.57,1.27-5.5,2.2-1.93.93-3.3,2.27-4.1,4Z" fill="#fbcbc5"></path><path d="M385.36,50.09c-3.2,6.4-6.23,13.1-9.1,20.1-2.87,7-5.17,13.57-6.9,19.7-2.27,8.93-3.17,15.43-2.7,19.5.46,4.07,2.03,6.3,4.7,6.7,2.53.4,5.97-.5,10.3-2.7,4.33-2.2,8.8-4.83,13.4-7.9,4.6-3.07,9-6.2,13.2-9.4,4.2-3.2,7.5-5.73,9.9-7.6.27-.27.57-.3.9-.1.33.2.17.5-.5.9-2.4,1.87-5.7,4.4-9.9,7.6-4.2,3.2-8.63,6.33-13.3,9.4-4.67,3.07-9.17,5.7-13.5,7.9-4.33,2.2-7.83,3.1-10.5,2.7-3.07-.4-4.97-2.73-5.7-7-.73-4.27.03-11.07,2.3-20.4,1.73-6,4-12.53,6.8-19.6,2.8-7.07,5.73-13.73,8.8-20-3.73-.27-7.3-.43-10.7-.5-3.4-.07-6.4.03-9,.3-2.6.27-4.67.83-6.2,1.7-1.53.87-2.37,2.03-2.5,3.5-.13.67-.47.93-1,.8-.53-.13-.67-.53-.4-1.2.53-1.6,1.73-2.83,3.6-3.7,1.87-.87,4.17-1.47,6.9-1.8,2.73-.33,5.8-.47,9.2-.4,3.4.07,6.97.23,10.7.5,1.87-3.73,3.5-6.8,4.9-9.2,1.4-2.4,2.43-4.07,3.1-5,.27-.27.6-.33,1-.2.4.13.46.4.2.8-.8,1.47-1.83,3.33-3.1,5.6-1.27,2.27-2.77,5-4.5,8.2,6.8.67,13.37,1.2,19.7,1.6,6.33.4,12.03.53,17.1.4,5.07-.13,9.27-.57,12.6-1.3,3.33-.73,5.4-1.97,6.2-3.7.13-.27.4-.33.8-.2.4.13.4.47,0,1-1.2,1.73-3.63,2.97-7.3,3.7-3.67.73-8.1,1.17-13.3,1.3-5.2.13-10.93,0-17.2-.4-6.27-.4-12.6-.93-19-1.6Z" fill="#fbcbc5"></path><path d="M426.36,85.29c.93.27,1.47.8,1.6,1.6.13.8-.47,1.53-1.8,2.2-.8.27-1.77.5-2.9.7-1.13.2-2.5.17-4.1-.1-.8,1.07-1.53,2.3-2.2,3.7-.67,1.4-1.2,2.87-1.6,4.4-.4,1.53-.53,3.03-.4,4.5.13,1.47.6,2.67,1.4,3.6.93,1.2,2.23,1.93,3.9,2.2,1.67.27,3.43.3,5.3.1,1.87-.2,3.7-.57,5.5-1.1,1.8-.53,3.37-1.07,4.7-1.6,5.07-2.13,10.1-4.83,15.1-8.1,5-3.27,9.1-6.23,12.3-8.9.27-.27.57-.3.9-.1.33.2.17.5-.5.9-1.6,1.2-3.43,2.57-5.5,4.1-2.07,1.53-4.3,3.07-6.7,4.6-2.4,1.53-4.9,3-7.5,4.4s-5.17,2.63-7.7,3.7c-2,.8-4.27,1.53-6.8,2.2-2.53.67-4.9.97-7.1.9-2.2-.07-4.13-.63-5.8-1.7-1.67-1.07-2.7-2.8-3.1-5.2s-.07-5,1-7.8c1.07-2.8,2.4-4.93,4-6.4,1.07-.93,2.3-1.7,3.7-2.3,1.4-.6,2.83-.77,4.3-.5ZM419.96,88.89c2.53.4,4.47.27,5.8-.4,1.07-.53,1.57-1.1,1.5-1.7-.07-.6-.63-.9-1.7-.9-.93,0-1.93.23-3,.7-1.07.47-1.93,1.23-2.6,2.3Z" fill="#fbcbc5"></path><path d="M461.96,86.29c-.67-2.27-.13-4.27,1.6-6,.93-1.07,2.07-1.67,3.4-1.8,1.33-.13,2.3.17,2.9.9.6.73.57,1.87-.1,3.4-.67,1.53-2.4,3.43-5.2,5.7,1.6,1.47,2.77,2.4,3.5,2.8.73.4.77,1.47.1,3.2-.4,1.07-.93,2.43-1.6,4.1-.67,1.67-1.1,3.3-1.3,4.9-.2,1.6-.13,3.07.2,4.4.33,1.33,1.3,2.27,2.9,2.8,2.27.67,5.37.1,9.3-1.7,3.93-1.8,8-4.03,12.2-6.7,4.2-2.67,8.1-5.33,11.7-8,3.6-2.67,6.2-4.6,7.8-5.8.27-.27.57-.3.9-.1.33.2.17.5-.5.9-1.6,1.2-4.23,3.17-7.9,5.9-3.67,2.73-7.6,5.43-11.8,8.1-4.2,2.67-8.33,4.9-12.4,6.7-4.07,1.8-7.3,2.3-9.7,1.5-1.87-.53-3.07-1.5-3.6-2.9-.53-1.4-.73-2.93-.6-4.6.13-1.67.5-3.4,1.1-5.2.6-1.8,1.1-3.3,1.5-4.5.27-.67.4-1.2.4-1.6s-.2-.87-.6-1.4c-1.07-.93-1.97-1.7-2.7-2.3-.73-.6-1.23-1.5-1.5-2.7ZM463.76,87.89c2.67-2.13,4.33-3.87,5-5.2.67-1.33.8-2.27.4-2.8-.4-.53-1.13-.67-2.2-.4-1.07.27-2,.87-2.8,1.8-.67.93-1.1,2.03-1.3,3.3-.2,1.27.1,2.37.9,3.3Z" fill="#fbcbc5"></path><path d="M518.75,89.09c0,.4-.23.67-.7.8-.47.13-.63-.13-.5-.8.13-1.6-.53-2.3-2-2.1-1.47.2-2.73.63-3.8,1.3-1.47.93-2.8,2.2-4,3.8-1.2,1.6-2.1,3.3-2.7,5.1-.6,1.8-.9,3.57-.9,5.3s.47,3.13,1.4,4.2c1.2,1.33,2.87,2.07,5,2.2,2.13.13,4.4-.07,6.8-.6,2.4-.53,4.77-1.27,7.1-2.2,2.33-.93,4.37-1.8,6.1-2.6,2-.93,4.07-2,6.2-3.2,2.13-1.2,4.23-2.47,6.3-3.8,2.07-1.33,4.07-2.7,6-4.1,1.93-1.4,3.63-2.7,5.1-3.9.27-.27.57-.3.9-.1.33.2.17.5-.5.9-3.87,2.93-7.77,5.7-11.7,8.3-3.93,2.6-7.97,4.83-12.1,6.7-2,.93-4.2,1.87-6.6,2.8-2.4.93-4.8,1.67-7.2,2.2-2.4.53-4.67.7-6.8.5-2.13-.2-3.87-.97-5.2-2.3-1.87-1.73-2.63-4.17-2.3-7.3.33-3.13,1.43-5.97,3.3-8.5,1.07-1.33,2.37-2.57,3.9-3.7,1.53-1.13,3.23-1.7,5.1-1.7,2,0,3.27.93,3.8,2.8Z" fill="#fbcbc5"></path><path d="M554.15,87.89c1.2-5.07,2.9-10.47,5.1-16.2,2.2-5.73,4.67-11.43,7.4-17.1,2.73-5.67,5.7-11.13,8.9-16.4,3.2-5.27,6.4-9.9,9.6-13.9,4.13-5.07,8.17-8.77,12.1-11.1,3.93-2.33,7.43-3.63,10.5-3.9,2.93-.13,5.2.57,6.8,2.1,1.6,1.53,2.4,3.7,2.4,6.5.13,3.73-1.33,8.53-4.4,14.4-3.07,5.87-8.33,12.67-15.8,20.4-6.13,6.67-12.73,12.9-19.8,18.7-7.07,5.8-14.13,11.5-21.2,17.1-.67,2.27-1.3,5.23-1.9,8.9-.6,3.67-.77,7.2-.5,10.6.27,3.4,1.23,6.27,2.9,8.6,1.67,2.33,4.43,3.17,8.3,2.5,3.2-.53,7-2.07,11.4-4.6,4.4-2.53,8.87-5.4,13.4-8.6,4.53-3.2,8.87-6.4,13-9.6,4.13-3.2,7.53-5.8,10.2-7.8.27-.27.57-.3.9-.1.33.2.17.5-.5.9-2.67,2-6.07,4.6-10.2,7.8-4.13,3.2-8.43,6.4-12.9,9.6-4.47,3.2-8.93,6.07-13.4,8.6-4.47,2.53-8.3,4.07-11.5,4.6-4,.67-6.97-.03-8.9-2.1-1.93-2.07-3.17-4.8-3.7-8.2-.53-3.4-.57-7.1-.1-11.1.46-4,1.1-7.53,1.9-10.6ZM555.95,87.09c6.93-5.47,13.87-11.1,20.8-16.9,6.93-5.8,13.46-11.9,19.6-18.3,7.2-7.6,12.3-14.3,15.3-20.1,3-5.8,4.43-10.43,4.3-13.9,0-2.53-.7-4.5-2.1-5.9s-3.37-2.03-5.9-1.9c-2.93.27-6.27,1.53-10,3.8-3.73,2.27-7.6,5.93-11.6,11-3.33,4.13-6.53,8.73-9.6,13.8-3.07,5.07-5.9,10.37-8.5,15.9-2.6,5.53-4.97,11.07-7.1,16.6-2.13,5.53-3.87,10.83-5.2,15.9Z" fill="#fbcbc5"></path><path d="M615.75,101.09c-2.53,2.53-4.6,3.73-6.2,3.6-.8-.13-1.43-.63-1.9-1.5-.47-.87-.7-1.83-.7-2.9-.27-2.53.43-5.2,2.1-8,1.67-2.8,3.9-4.73,6.7-5.8,1.47-.53,3.03-.7,4.7-.5,1.67.2,3.3.9,4.9,2.1l2.6-4c.27-.27.67-.33,1.2-.2.53.13.67.33.4.6-.67,1.07-1.5,2.57-2.5,4.5-1,1.93-1.93,4-2.8,6.2-.87,2.2-1.6,4.4-2.2,6.6-.6,2.2-.77,4.1-.5,5.7.27,1.87,1,2.97,2.2,3.3,1.2.33,2.6.3,4.2-.1,2.4-.53,5.27-1.7,8.6-3.5,3.33-1.8,6.7-3.83,10.1-6.1,3.4-2.27,6.67-4.53,9.8-6.8,3.13-2.27,5.77-4.2,7.9-5.8.27-.27.53-.27.8,0,.27.27.13.53-.4.8-2.27,1.6-4.93,3.57-8,5.9-3.07,2.33-6.3,4.6-9.7,6.8-3.4,2.2-6.73,4.17-10,5.9-3.27,1.73-6.17,2.93-8.7,3.6-2,.53-3.67.57-5,.1-1.33-.47-2.27-1.7-2.8-3.7-.53-1.87-.4-4.37.4-7.5.8-3.13,1.73-6.03,2.8-8.7-1.07,1.33-2.4,3-4,5s-2.93,3.47-4,4.4ZM624.75,88.89c-2.67-2-5.33-2.53-8-1.6-1.87.67-3.53,1.93-5,3.8-1.47,1.87-2.47,3.93-3,6.2-.4,1.33-.6,2.7-.6,4.1s.53,2.23,1.6,2.5c1.47.27,3.47-1,6-3.8,1.6-1.87,3.23-3.8,4.9-5.8,1.67-2,3.03-3.8,4.1-5.4Z" fill="#fbcbc5"></path><path d="M666.35,107.49c6.4-2.13,12.53-4.73,18.4-7.8,5.87-3.07,11.47-6.8,16.8-11.2.27-.27.57-.3.9-.1.33.2.17.5-.5.9-6,4.67-11.83,8.47-17.5,11.4-5.67,2.93-11.7,5.53-18.1,7.8-.27,2.27-.73,4.2-1.4,5.8-.67,1.6-1.87,2.93-3.6,4-.8.53-1.67.87-2.6,1-.93.13-1.73.07-2.4-.2-.67-.27-1.17-.73-1.5-1.4-.33-.67-.37-1.53-.1-2.6.67-2,2.13-3.53,4.4-4.6,2.27-1.07,4.27-1.93,6-2.6,0-1.6-.17-3.37-.5-5.3-.33-1.93-.6-3.87-.8-5.8-.2-1.93-.27-3.83-.2-5.7.07-1.87.57-3.6,1.5-5.2.67-1.2,1.57-2.13,2.7-2.8,1.13-.67,2.27-1,3.4-1s2.07.33,2.8,1c.73.67,1.03,1.8.9,3.4,0,.4-.23.6-.7.6s-.63-.2-.5-.6c.4-1.2.33-2.1-.2-2.7-.53-.6-1.23-.9-2.1-.9s-1.8.27-2.8.8c-1,.53-1.77,1.4-2.3,2.6-.67,1.33-1.03,2.93-1.1,4.8-.07,1.87,0,3.8.2,5.8.2,2,.4,3.97.6,5.9.2,1.93.3,3.5.3,4.7ZM655.55,115.09c-.67,1.73-.3,2.8,1.1,3.2,1.4.4,2.83.2,4.3-.6,1.6-.93,2.7-2.23,3.3-3.9.6-1.67.9-3.3.9-4.9-1.73.53-3.57,1.27-5.5,2.2-1.93.93-3.3,2.27-4.1,4Z" fill="#fbcbc5"></path><path d="M703.55,107.49c6.4-2.13,12.53-4.73,18.4-7.8,5.87-3.07,11.47-6.8,16.8-11.2.27-.27.57-.3.9-.1.33.2.17.5-.5.9-6,4.67-11.83,8.47-17.5,11.4-5.67,2.93-11.7,5.53-18.1,7.8-.27,2.27-.73,4.2-1.4,5.8-.67,1.6-1.87,2.93-3.6,4-.8.53-1.67.87-2.6,1-.93.13-1.73.07-2.4-.2-.67-.27-1.17-.73-1.5-1.4-.33-.67-.37-1.53-.1-2.6.67-2,2.13-3.53,4.4-4.6,2.27-1.07,4.27-1.93,6-2.6,0-1.6-.17-3.37-.5-5.3-.33-1.93-.6-3.87-.8-5.8-.2-1.93-.27-3.83-.2-5.7.07-1.87.57-3.6,1.5-5.2.67-1.2,1.57-2.13,2.7-2.8,1.13-.67,2.27-1,3.4-1s2.07.33,2.8,1c.73.67,1.03,1.8.9,3.4,0,.4-.23.6-.7.6s-.63-.2-.5-.6c.4-1.2.33-2.1-.2-2.7-.53-.6-1.23-.9-2.1-.9s-1.8.27-2.8.8c-1,.53-1.77,1.4-2.3,2.6-.67,1.33-1.03,2.93-1.1,4.8-.07,1.87,0,3.8.2,5.8.2,2,.4,3.97.6,5.9.2,1.93.3,3.5.3,4.7ZM692.75,115.09c-.67,1.73-.3,2.8,1.1,3.2,1.4.4,2.83.2,4.3-.6,1.6-.93,2.7-2.23,3.3-3.9.6-1.67.9-3.3.9-4.9-1.73.53-3.57,1.27-5.5,2.2-1.93.93-3.3,2.27-4.1,4Z" fill="#fbcbc5"></path><path d="M203.57,95.99c-1.07,2.87-1.93,5.7-2.6,8.5-.13.54,0,.8.4.8s.73-.13,1-.4c1.2-1.73,2.6-3.6,4.2-5.6,1.6-2,3.23-4,4.9-6,1.67-2,3.37-3.87,5.1-5.6,1.73-1.73,3.33-3.13,4.8-4.2.4-.4.93-.8,1.6-1.2.67-.4,1.3-.67,1.9-.8.6-.13,1.07-.06,1.4.2.33.27.5.87.5,1.8-.27,1.47-.77,3.7-1.5,6.7-.73,3-2.1,7.03-4.1,12.1-.27.67-.2,1.03.2,1.1.4.07.8-.1,1.2-.5,5.6-6.8,9.83-11.36,12.7-13.7,2.87-2.33,4.77-3.16,5.7-2.5.67.4.8,1.8.4,4.2-.4,2.4-.8,4.97-1.2,7.7-.4,2.73-.47,5.27-.2,7.6.27,2.34,1.53,3.7,3.8,4.1,2,.27,4.7-.43,8.1-2.1,3.4-1.66,6.9-3.66,10.5-6,3.6-2.33,7-4.73,10.2-7.2,3.2-2.46,5.67-4.36,7.4-5.7.67-.4.83-.7.5-.9-.33-.2-.63-.17-.9.1-1.6,1.2-4.04,3.04-7.3,5.5-3.27,2.47-6.67,4.9-10.2,7.3-3.54,2.4-6.97,4.43-10.3,6.1-3.33,1.67-5.93,2.37-7.8,2.1-2-.27-3-1.53-3-3.8s.3-4.76.9-7.5c.6-2.73,1.03-5.3,1.3-7.7.26-2.4-.27-3.93-1.6-4.6-1.47-.67-3.47.04-6,2.1-2.54,2.07-6.47,6.1-11.8,12.1,1.2-3.2,2.23-6.4,3.1-9.6.87-3.2,1.23-5.53,1.1-7-.13-1.33-.47-2.2-1-2.6-.53-.4-1.17-.53-1.9-.4-.73.14-1.5.44-2.3.9-.8.47-1.47.97-2,1.5-2.67,2.14-5.63,5.04-8.9,8.7-3.27,3.67-6.17,7.23-8.7,10.7.8-2.27,1.67-4.53,2.6-6.8.93-2.27,1.93-4.53,3-6.8.13-.26-.1-.43-.7-.5-.6-.06-.97.03-1.1.3-1.2,2.14-2.33,4.64-3.4,7.5Z" fill="none" stroke="#fbcbc5" stroke-miterlimit="10" stroke-width="1.5"></path><path d="M287.67,94.29c-1.67,2-3.3,3.93-4.9,5.8-2.53,2.8-4.53,4.07-6,3.8-1.07-.26-1.6-1.1-1.6-2.5s.2-2.76.6-4.1c.53-2.27,1.53-4.33,3-6.2,1.47-1.87,3.13-3.13,5-3.8,2.67-.93,5.33-.4,8,1.6-1.07,1.6-2.43,3.4-4.1,5.4ZM286.77,96.69c1.6-2,2.93-3.67,4-5-1.07,2.67-2,5.57-2.8,8.7-.8,3.14-.93,5.64-.4,7.5.53,2,1.47,3.24,2.8,3.7,1.33.47,3,.43,5-.1,2.53-.67,5.43-1.86,8.7-3.6,3.27-1.73,6.6-3.7,10-5.9,3.4-2.2,6.63-4.47,9.7-6.8,3.07-2.33,5.73-4.3,8-5.9.53-.27.67-.53.4-.8-.27-.27-.54-.27-.8,0-2.13,1.6-4.77,3.53-7.9,5.8-3.14,2.27-6.4,4.53-9.8,6.8-3.4,2.27-6.77,4.3-10.1,6.1-3.33,1.8-6.2,2.97-8.6,3.5-1.6.4-3,.44-4.2.1-1.2-.33-1.93-1.43-2.2-3.3-.27-1.6-.1-3.5.5-5.7.6-2.2,1.33-4.4,2.2-6.6.86-2.2,1.8-4.27,2.8-6.2,1-1.93,1.83-3.43,2.5-4.5.27-.27.13-.47-.4-.6-.54-.13-.93-.06-1.2.2l-2.6,4c-1.6-1.2-3.24-1.9-4.9-2.1-1.67-.2-3.23-.03-4.7.5-2.8,1.07-5.03,3-6.7,5.8-1.66,2.8-2.36,5.47-2.1,8,0,1.07.23,2.03.7,2.9.47.87,1.1,1.37,1.9,1.5,1.6.14,3.67-1.06,6.2-3.6,1.07-.93,2.4-2.4,4-4.4Z" fill="none" stroke="#fbcbc5" stroke-miterlimit="10" stroke-width="1.5"></path><path d="M326.66,111.09c1.93-.93,3.76-1.67,5.5-2.2,0,1.6-.3,3.23-.9,4.9-.6,1.67-1.7,2.97-3.3,3.9-1.46.8-2.9,1-4.3.6-1.4-.4-1.77-1.47-1.1-3.2.8-1.73,2.17-3.07,4.1-4ZM333.06,102.79c-.2-1.93-.4-3.9-.6-5.9-.2-2-.27-3.93-.2-5.8.07-1.87.43-3.47,1.1-4.8.53-1.2,1.3-2.07,2.3-2.6,1-.53,1.93-.8,2.8-.8s1.57.3,2.1.9c.53.6.6,1.5.2,2.7-.14.4.03.6.5.6s.7-.2.7-.6c.13-1.6-.17-2.73-.9-3.4-.73-.67-1.67-1-2.8-1s-2.27.33-3.4,1c-1.13.67-2.03,1.6-2.7,2.8-.93,1.6-1.43,3.33-1.5,5.2-.07,1.87,0,3.77.2,5.7.2,1.93.47,3.87.8,5.8.33,1.93.5,3.7.5,5.3-1.74.67-3.74,1.53-6,2.6-2.27,1.07-3.73,2.6-4.4,4.6-.27,1.07-.23,1.93.1,2.6.34.67.84,1.14,1.5,1.4.67.27,1.47.33,2.4.2.93-.13,1.8-.47,2.6-1,1.73-1.07,2.93-2.4,3.6-4,.67-1.6,1.13-3.53,1.4-5.8,6.4-2.27,12.43-4.86,18.1-7.8,5.66-2.93,11.5-6.73,17.5-11.4.66-.4.83-.7.5-.9-.34-.2-.63-.17-.9.1-5.33,4.4-10.94,8.14-16.8,11.2-5.87,3.07-12,5.67-18.4,7.8,0-1.2-.1-2.77-.3-4.7Z" fill="none" stroke="#fbcbc5" stroke-miterlimit="10" stroke-width="1.5"></path><path d="M404.36,51.69c6.27.4,12,.53,17.2.4,5.2-.13,9.63-.57,13.3-1.3,3.67-.73,6.1-1.97,7.3-3.7.4-.53.4-.87,0-1-.4-.13-.67-.07-.8.2-.8,1.73-2.87,2.97-6.2,3.7-3.34.73-7.54,1.17-12.6,1.3-5.07.13-10.77,0-17.1-.4-6.34-.4-12.9-.93-19.7-1.6,1.73-3.2,3.23-5.93,4.5-8.2,1.27-2.27,2.3-4.13,3.1-5.6.27-.4.2-.67-.2-.8-.4-.13-.74-.06-1,.2-.67.94-1.7,2.6-3.1,5-1.4,2.4-3.03,5.47-4.9,9.2-3.74-.27-7.3-.43-10.7-.5-3.4-.07-6.47.07-9.2.4-2.73.33-5.03.93-6.9,1.8-1.86.87-3.07,2.1-3.6,3.7-.27.67-.13,1.07.4,1.2.53.14.87-.13,1-.8.13-1.47.97-2.63,2.5-3.5,1.53-.86,3.6-1.43,6.2-1.7,2.6-.27,5.6-.36,9-.3,3.4.07,6.97.24,10.7.5-3.07,6.27-6,12.94-8.8,20-2.8,7.07-5.07,13.6-6.8,19.6-2.27,9.33-3.04,16.14-2.3,20.4.73,4.27,2.63,6.6,5.7,7,2.67.4,6.17-.5,10.5-2.7,4.33-2.2,8.83-4.83,13.5-7.9,4.67-3.07,9.1-6.2,13.3-9.4,4.2-3.2,7.5-5.73,9.9-7.6.67-.4.83-.7.5-.9-.33-.2-.63-.17-.9.1-2.4,1.87-5.7,4.4-9.9,7.6-4.2,3.2-8.6,6.33-13.2,9.4-4.6,3.07-9.07,5.7-13.4,7.9-4.34,2.2-7.77,3.1-10.3,2.7-2.67-.4-4.23-2.63-4.7-6.7-.47-4.06.43-10.56,2.7-19.5,1.73-6.13,4.03-12.7,6.9-19.7,2.87-7,5.9-13.7,9.1-20.1,6.4.67,12.73,1.2,19,1.6Z" fill="none" stroke="#fbcbc5" stroke-miterlimit="10" stroke-width="1.5"></path><path d="M422.56,86.59c1.07-.47,2.07-.7,3-.7,1.07,0,1.63.3,1.7.9.07.6-.43,1.17-1.5,1.7-1.34.67-3.27.8-5.8.4.67-1.07,1.53-1.83,2.6-2.3ZM422.06,85.79c-1.4.6-2.64,1.37-3.7,2.3-1.6,1.47-2.93,3.6-4,6.4-1.07,2.8-1.4,5.4-1,7.8.4,2.4,1.43,4.13,3.1,5.2,1.67,1.07,3.6,1.64,5.8,1.7,2.2.07,4.57-.23,7.1-.9,2.53-.67,4.8-1.4,6.8-2.2,2.53-1.07,5.1-2.3,7.7-3.7,2.6-1.4,5.1-2.87,7.5-4.4,2.4-1.53,4.63-3.06,6.7-4.6,2.07-1.53,3.9-2.9,5.5-4.1.66-.4.83-.7.5-.9-.34-.2-.64-.17-.9.1-3.2,2.67-7.3,5.64-12.3,8.9-5,3.27-10.03,5.97-15.1,8.1-1.34.54-2.9,1.07-4.7,1.6-1.8.53-3.64.9-5.5,1.1-1.87.2-3.64.17-5.3-.1-1.67-.27-2.97-1-3.9-2.2-.8-.93-1.27-2.13-1.4-3.6-.13-1.47,0-2.97.4-4.5.4-1.53.93-3,1.6-4.4.67-1.4,1.4-2.63,2.2-3.7,1.6.27,2.97.3,4.1.1,1.13-.2,2.1-.43,2.9-.7,1.33-.67,1.93-1.4,1.8-2.2-.13-.8-.67-1.33-1.6-1.6-1.47-.27-2.9-.1-4.3.5Z" fill="none" stroke="#fbcbc5" stroke-miterlimit="10" stroke-width="1.5"></path><path d="M462.86,84.59c.2-1.27.63-2.37,1.3-3.3.8-.93,1.73-1.53,2.8-1.8,1.07-.27,1.8-.13,2.2.4.4.54.27,1.47-.4,2.8-.67,1.34-2.34,3.07-5,5.2-.8-.93-1.1-2.03-.9-3.3ZM463.46,88.99c.73.6,1.63,1.37,2.7,2.3.4.53.6,1,.6,1.4s-.14.94-.4,1.6c-.4,1.2-.9,2.7-1.5,4.5-.6,1.8-.97,3.53-1.1,5.2-.14,1.67.07,3.2.6,4.6.53,1.4,1.73,2.37,3.6,2.9,2.4.8,5.63.3,9.7-1.5,4.07-1.8,8.2-4.03,12.4-6.7,4.2-2.67,8.13-5.37,11.8-8.1,3.67-2.73,6.3-4.7,7.9-5.9.66-.4.83-.7.5-.9-.34-.2-.64-.17-.9.1-1.6,1.2-4.2,3.14-7.8,5.8-3.6,2.67-7.5,5.33-11.7,8-4.2,2.67-8.27,4.9-12.2,6.7-3.93,1.8-7.03,2.37-9.3,1.7-1.6-.53-2.57-1.47-2.9-2.8-.33-1.33-.4-2.8-.2-4.4.2-1.6.63-3.23,1.3-4.9.66-1.67,1.2-3.03,1.6-4.1.67-1.73.63-2.8-.1-3.2-.73-.4-1.9-1.33-3.5-2.8,2.8-2.27,4.53-4.17,5.2-5.7.66-1.53.7-2.67.1-3.4-.6-.73-1.57-1.03-2.9-.9-1.33.14-2.47.73-3.4,1.8-1.73,1.73-2.27,3.73-1.6,6,.27,1.2.77,2.1,1.5,2.7Z" fill="none" stroke="#fbcbc5" stroke-miterlimit="10" stroke-width="1.5"></path><path d="M514.96,86.29c-1.87,0-3.57.57-5.1,1.7-1.53,1.14-2.83,2.37-3.9,3.7-1.87,2.53-2.97,5.37-3.3,8.5-.33,3.14.43,5.57,2.3,7.3,1.33,1.34,3.07,2.1,5.2,2.3,2.13.2,4.4.03,6.8-.5,2.4-.53,4.8-1.27,7.2-2.2,2.4-.93,4.6-1.87,6.6-2.8,4.13-1.87,8.17-4.1,12.1-6.7,3.93-2.6,7.83-5.37,11.7-8.3.67-.4.83-.7.5-.9-.33-.2-.63-.17-.9.1-1.47,1.2-3.17,2.5-5.1,3.9-1.93,1.4-3.93,2.77-6,4.1-2.07,1.34-4.17,2.6-6.3,3.8-2.14,1.2-4.2,2.27-6.2,3.2-1.73.8-3.77,1.67-6.1,2.6-2.34.93-4.7,1.67-7.1,2.2-2.4.53-4.67.73-6.8.6-2.13-.13-3.8-.87-5-2.2-.93-1.07-1.4-2.47-1.4-4.2s.3-3.5.9-5.3c.6-1.8,1.5-3.5,2.7-5.1,1.2-1.6,2.53-2.87,4-3.8,1.07-.67,2.33-1.1,3.8-1.3,1.47-.2,2.13.5,2,2.1-.13.67.03.93.5.8.47-.13.7-.4.7-.8-.53-1.87-1.8-2.8-3.8-2.8Z" fill="none" stroke="#fbcbc5" stroke-miterlimit="10" stroke-width="1.5"></path><path d="M561.15,71.19c2.13-5.53,4.5-11.06,7.1-16.6,2.6-5.53,5.43-10.83,8.5-15.9,3.07-5.06,6.27-9.66,9.6-13.8,4-5.07,7.87-8.73,11.6-11,3.73-2.27,7.07-3.53,10-3.8,2.53-.13,4.5.5,5.9,1.9,1.4,1.4,2.1,3.37,2.1,5.9.13,3.47-1.3,8.1-4.3,13.9-3,5.8-8.1,12.5-15.3,20.1-6.13,6.4-12.67,12.5-19.6,18.3-6.93,5.8-13.87,11.44-20.8,16.9,1.33-5.07,3.07-10.37,5.2-15.9ZM552.25,98.49c-.47,4-.43,7.7.1,11.1.53,3.4,1.77,6.13,3.7,8.2,1.93,2.07,4.9,2.77,8.9,2.1,3.2-.53,7.03-2.07,11.5-4.6,4.47-2.53,8.93-5.4,13.4-8.6,4.47-3.2,8.77-6.4,12.9-9.6,4.13-3.2,7.53-5.8,10.2-7.8.67-.4.83-.7.5-.9-.33-.2-.63-.17-.9.1-2.67,2-6.07,4.6-10.2,7.8-4.13,3.2-8.47,6.4-13,9.6-4.53,3.2-9,6.07-13.4,8.6-4.4,2.54-8.2,4.07-11.4,4.6-3.87.67-6.64-.17-8.3-2.5-1.67-2.33-2.64-5.2-2.9-8.6-.27-3.4-.1-6.93.5-10.6.6-3.67,1.23-6.63,1.9-8.9,7.07-5.6,14.13-11.3,21.2-17.1,7.07-5.8,13.67-12.03,19.8-18.7,7.47-7.73,12.73-14.53,15.8-20.4,3.07-5.87,4.53-10.67,4.4-14.4,0-2.8-.8-4.96-2.4-6.5-1.6-1.53-3.87-2.23-6.8-2.1-3.07.27-6.57,1.57-10.5,3.9-3.93,2.34-7.97,6.03-12.1,11.1-3.2,4-6.4,8.63-9.6,13.9-3.2,5.27-6.17,10.74-8.9,16.4-2.73,5.67-5.2,11.37-7.4,17.1-2.2,5.74-3.9,11.14-5.1,16.2-.8,3.07-1.43,6.6-1.9,10.6Z" fill="none" stroke="#fbcbc5" stroke-miterlimit="10" stroke-width="1.5"></path><path d="M620.65,94.29c-1.67,2-3.3,3.93-4.9,5.8-2.53,2.8-4.53,4.07-6,3.8-1.07-.26-1.6-1.1-1.6-2.5s.2-2.76.6-4.1c.53-2.27,1.53-4.33,3-6.2,1.47-1.87,3.13-3.13,5-3.8,2.67-.93,5.33-.4,8,1.6-1.07,1.6-2.43,3.4-4.1,5.4ZM619.75,96.69c1.6-2,2.93-3.67,4-5-1.07,2.67-2,5.57-2.8,8.7-.8,3.14-.93,5.64-.4,7.5.53,2,1.47,3.24,2.8,3.7,1.33.47,3,.43,5-.1,2.53-.67,5.43-1.86,8.7-3.6,3.27-1.73,6.6-3.7,10-5.9,3.4-2.2,6.63-4.47,9.7-6.8,3.07-2.33,5.73-4.3,8-5.9.53-.27.67-.53.4-.8-.27-.27-.54-.27-.8,0-2.13,1.6-4.77,3.53-7.9,5.8-3.14,2.27-6.4,4.53-9.8,6.8-3.4,2.27-6.77,4.3-10.1,6.1-3.33,1.8-6.2,2.97-8.6,3.5-1.6.4-3,.44-4.2.1-1.2-.33-1.93-1.43-2.2-3.3-.27-1.6-.1-3.5.5-5.7.6-2.2,1.33-4.4,2.2-6.6.86-2.2,1.8-4.27,2.8-6.2,1-1.93,1.83-3.43,2.5-4.5.27-.27.13-.47-.4-.6-.54-.13-.93-.06-1.2.2l-2.6,4c-1.6-1.2-3.23-1.9-4.9-2.1-1.67-.2-3.23-.03-4.7.5-2.8,1.07-5.03,3-6.7,5.8-1.66,2.8-2.36,5.47-2.1,8,0,1.07.23,2.03.7,2.9.47.87,1.1,1.37,1.9,1.5,1.6.14,3.67-1.06,6.2-3.6,1.07-.93,2.4-2.4,4-4.4Z" fill="none" stroke="#fbcbc5" stroke-miterlimit="10" stroke-width="1.5"></path><path d="M659.65,111.09c1.93-.93,3.77-1.67,5.5-2.2,0,1.6-.3,3.23-.9,4.9-.6,1.67-1.7,2.97-3.3,3.9-1.47.8-2.9,1-4.3.6-1.4-.4-1.77-1.47-1.1-3.2.8-1.73,2.17-3.07,4.1-4ZM666.05,102.79c-.2-1.93-.4-3.9-.6-5.9-.2-2-.27-3.93-.2-5.8.07-1.87.43-3.47,1.1-4.8.53-1.2,1.3-2.07,2.3-2.6,1-.53,1.93-.8,2.8-.8s1.57.3,2.1.9c.53.6.6,1.5.2,2.7-.14.4.03.6.5.6s.7-.2.7-.6c.13-1.6-.17-2.73-.9-3.4-.73-.67-1.67-1-2.8-1s-2.27.33-3.4,1c-1.13.67-2.03,1.6-2.7,2.8-.93,1.6-1.43,3.33-1.5,5.2-.07,1.87,0,3.77.2,5.7.2,1.93.47,3.87.8,5.8.33,1.93.5,3.7.5,5.3-1.73.67-3.73,1.53-6,2.6-2.27,1.07-3.73,2.6-4.4,4.6-.27,1.07-.23,1.93.1,2.6.34.67.84,1.14,1.5,1.4.67.27,1.47.33,2.4.2.93-.13,1.8-.47,2.6-1,1.73-1.07,2.93-2.4,3.6-4,.66-1.6,1.13-3.53,1.4-5.8,6.4-2.27,12.43-4.86,18.1-7.8,5.66-2.93,11.5-6.73,17.5-11.4.66-.4.83-.7.5-.9-.34-.2-.63-.17-.9.1-5.33,4.4-10.93,8.14-16.8,11.2-5.87,3.07-12,5.67-18.4,7.8,0-1.2-.1-2.77-.3-4.7Z" fill="none" stroke="#fbcbc5" stroke-miterlimit="10" stroke-width="1.5"></path><path d="M696.85,111.09c1.93-.93,3.77-1.67,5.5-2.2,0,1.6-.3,3.23-.9,4.9-.6,1.67-1.7,2.97-3.3,3.9-1.47.8-2.9,1-4.3.6-1.4-.4-1.77-1.47-1.1-3.2.8-1.73,2.17-3.07,4.1-4ZM703.25,102.79c-.2-1.93-.4-3.9-.6-5.9-.2-2-.27-3.93-.2-5.8.07-1.87.43-3.47,1.1-4.8.53-1.2,1.3-2.07,2.3-2.6,1-.53,1.93-.8,2.8-.8s1.57.3,2.1.9c.53.6.6,1.5.2,2.7-.14.4.03.6.5.6s.7-.2.7-.6c.13-1.6-.17-2.73-.9-3.4-.73-.67-1.67-1-2.8-1s-2.27.33-3.4,1c-1.13.67-2.03,1.6-2.7,2.8-.93,1.6-1.43,3.33-1.5,5.2-.07,1.87,0,3.77.2,5.7.2,1.93.47,3.87.8,5.8.33,1.93.5,3.7.5,5.3-1.73.67-3.73,1.53-6,2.6-2.27,1.07-3.73,2.6-4.4,4.6-.27,1.07-.23,1.93.1,2.6.34.67.84,1.14,1.5,1.4.67.27,1.47.33,2.4.2.93-.13,1.8-.47,2.6-1,1.73-1.07,2.93-2.4,3.6-4,.66-1.6,1.13-3.53,1.4-5.8,6.4-2.27,12.43-4.86,18.1-7.8,5.66-2.93,11.5-6.73,17.5-11.4.66-.4.83-.7.5-.9-.34-.2-.63-.17-.9.1-5.33,4.4-10.93,8.14-16.8,11.2-5.87,3.07-12,5.67-18.4,7.8,0-1.2-.1-2.77-.3-4.7Z" fill="none" stroke="#fbcbc5" stroke-miterlimit="10" stroke-width="1.5"></path><path d="M20.35,55.47h-6.96L0,1.3h5.81l11.17,48.12h.15L28.31,1.3h5.66l-13.62,54.17Z" fill="#808285"></path><path d="M62.96,55.47l-3.29-13.54h-16.68l-3.44,13.54h-5.43L47.89,1.3h7.27l13.39,54.17h-5.58ZM51.56,6.12h-.31l-7.5,31.52h15.15l-7.34-31.52Z" fill="#808285"></path><path d="M75.28,55.47V1.3h5.36v49.19h15.45v4.97h-20.81Z" fill="#808285"></path><path d="M133.88,28.31c0,4.23-.41,8.1-1.22,11.59-.82,3.49-1.99,6.49-3.52,8.99-1.53,2.5-3.39,4.44-5.58,5.81-2.19,1.38-4.69,2.07-7.5,2.07s-5.32-.69-7.54-2.07-4.11-3.31-5.66-5.81c-1.56-2.5-2.74-5.5-3.56-8.99-.82-3.49-1.22-7.36-1.22-11.59s.39-8.02,1.19-11.51c.79-3.49,1.95-6.48,3.48-8.95,1.53-2.47,3.4-4.4,5.62-5.78,2.22-1.38,4.78-2.07,7.69-2.07s5.3.69,7.5,2.07c2.19,1.38,4.05,3.3,5.58,5.78,1.53,2.47,2.7,5.46,3.52,8.95.81,3.49,1.22,7.33,1.22,11.51ZM128.3,28.31c0-3.26-.26-6.32-.77-9.18-.51-2.86-1.29-5.33-2.33-7.42-1.05-2.09-2.33-3.75-3.86-4.97s-3.29-1.84-5.28-1.84c-2.09,0-3.92.61-5.47,1.84-1.56,1.22-2.84,2.88-3.86,4.97-1.02,2.09-1.79,4.57-2.3,7.42-.51,2.86-.77,5.92-.77,9.18s.25,6.32.77,9.18c.51,2.86,1.27,5.36,2.3,7.5,1.02,2.14,2.31,3.83,3.86,5.05,1.56,1.22,3.38,1.84,5.47,1.84s3.83-.61,5.36-1.84c1.53-1.22,2.8-2.91,3.83-5.05,1.02-2.14,1.78-4.64,2.29-7.5.51-2.86.77-5.92.77-9.18Z" fill="#808285"></path><path d="M166.01,55.47l-9.79-25.09h-6.96v25.09h-5.28V1.3h13.01c1.78,0,3.51.24,5.16.73,1.66.49,3.14,1.29,4.44,2.41,1.3,1.12,2.35,2.6,3.14,4.44.79,1.84,1.19,4.08,1.19,6.73,0,2.29-.29,4.27-.88,5.93-.59,1.66-1.35,3.05-2.29,4.17-.94,1.12-1.99,1.99-3.14,2.6-1.15.61-2.28.99-3.4,1.15l10.56,26.01h-5.74ZM165.71,15.87c0-1.93-.27-3.54-.8-4.84-.54-1.3-1.25-2.32-2.14-3.09-.89-.76-1.91-1.3-3.06-1.6s-2.33-.46-3.56-.46h-6.89v20.27h7.12c2.91,0,5.19-.9,6.85-2.71,1.66-1.8,2.49-4.33,2.49-7.58Z" fill="#808285"></path><path d="M225.84,28.46c0,4.44-.46,8.34-1.38,11.71-.92,3.37-2.25,6.18-3.98,8.45-1.73,2.27-3.81,3.98-6.23,5.13-2.42,1.15-5.11,1.72-8.07,1.72h-11.63V1.3h11.71c2.96,0,5.65.57,8.07,1.72,2.42,1.15,4.49,2.87,6.2,5.16,1.71,2.29,3.02,5.14,3.94,8.53.92,3.39,1.38,7.31,1.38,11.74ZM220.56,28.46c0-3.84-.37-7.18-1.11-10.02-.74-2.84-1.76-5.18-3.06-7.02-1.3-1.84-2.83-3.22-4.59-4.15-1.76-.92-3.66-1.38-5.7-1.38h-6.27v44.98h6.27c2.04,0,3.94-.46,5.7-1.38,1.76-.92,3.29-2.3,4.59-4.15,1.3-1.84,2.32-4.17,3.06-6.99.74-2.81,1.11-6.12,1.11-9.9Z" fill="#808285"></path><path d="M235.94,55.47V1.3h21.8v4.74h-16.6v18.97h15.53v4.59h-15.53v21.04h17.37v4.82h-22.57Z" fill="#808285"></path><path d="M282.07,55.47V1.3h5.36v49.19h15.45v4.97h-20.81Z" fill="#808285"></path><path d="M332.56,55.47l-3.29-13.54h-16.68l-3.44,13.54h-5.43l13.77-54.17h7.27l13.39,54.17h-5.58ZM321.16,6.12h-.31l-7.5,31.52h15.15l-7.34-31.52Z" fill="#808285"></path></g></svg>